<svg width="349" height="344" viewBox="0 0 349 344" fill="none" xmlns="http://www.w3.org/2000/svg">
<g filter="url(#filter0_d_1064_3569)">
<rect x="5.15112" width="343.404" height="343.404" fill="white"/>
</g>
<path d="M36.7168 225.57V198.263H25.9477V191.917H55.2744V198.263H44.5052V225.57H36.7168ZM58.9361 225.57V199.705H66.4361V225.57H58.9361ZM62.6861 196.099C61.3079 196.099 60.1861 195.699 59.3207 194.897C58.4553 194.096 58.0227 193.103 58.0227 191.917C58.0227 190.731 58.4553 189.737 59.3207 188.936C60.1861 188.135 61.3079 187.734 62.6861 187.734C64.0643 187.734 65.1861 188.119 66.0514 188.888C66.9168 189.625 67.3495 190.587 67.3495 191.772C67.3495 193.022 66.9168 194.064 66.0514 194.897C65.2181 195.699 64.0963 196.099 62.6861 196.099ZM106.521 199.32C108.573 199.32 110.384 199.737 111.954 200.57C113.557 201.372 114.807 202.622 115.704 204.32C116.634 205.987 117.098 208.135 117.098 210.763V225.57H109.598V211.917C109.598 209.833 109.166 208.295 108.3 207.301C107.435 206.308 106.217 205.811 104.646 205.811C103.557 205.811 102.579 206.067 101.714 206.58C100.848 207.061 100.175 207.798 99.6945 208.792C99.2138 209.785 98.9734 211.051 98.9734 212.59V225.57H91.4735V211.917C91.4735 209.833 91.0408 208.295 90.1754 207.301C89.3421 206.308 88.1401 205.811 86.5696 205.811C85.4799 205.811 84.5023 206.067 83.637 206.58C82.7716 207.061 82.0985 207.798 81.6177 208.792C81.137 209.785 80.8966 211.051 80.8966 212.59V225.57H73.3966V199.705H80.5601V206.772L79.2139 204.705C80.1113 202.942 81.3774 201.612 83.012 200.715C84.6786 199.785 86.5696 199.32 88.685 199.32C91.0568 199.32 93.1241 199.929 94.8869 201.147C96.6817 202.333 97.8676 204.16 98.4446 206.628L95.8003 205.907C96.6657 203.888 98.0439 202.285 99.9349 201.099C101.858 199.913 104.053 199.32 106.521 199.32ZM136.845 225.955C133.896 225.955 131.3 225.378 129.057 224.224C126.845 223.07 125.13 221.5 123.912 219.513C122.694 217.493 122.085 215.202 122.085 212.638C122.085 210.042 122.678 207.75 123.864 205.763C125.082 203.744 126.733 202.173 128.816 201.051C130.9 199.897 133.255 199.32 135.883 199.32C138.415 199.32 140.691 199.865 142.71 200.955C144.762 202.013 146.38 203.551 147.566 205.57C148.752 207.558 149.345 209.945 149.345 212.734C149.345 213.022 149.329 213.359 149.297 213.743C149.265 214.096 149.233 214.433 149.201 214.753H128.191V210.378H145.258L142.374 211.676C142.374 210.33 142.101 209.16 141.556 208.167C141.012 207.173 140.258 206.404 139.297 205.859C138.335 205.282 137.214 204.994 135.932 204.994C134.649 204.994 133.512 205.282 132.518 205.859C131.557 206.404 130.803 207.189 130.258 208.215C129.714 209.208 129.441 210.394 129.441 211.772V212.926C129.441 214.336 129.746 215.586 130.355 216.676C130.996 217.734 131.877 218.551 132.999 219.128C134.153 219.673 135.499 219.945 137.037 219.945C138.415 219.945 139.617 219.737 140.643 219.32C141.701 218.904 142.662 218.279 143.528 217.445L147.518 221.772C146.332 223.118 144.842 224.16 143.047 224.897C141.252 225.602 139.185 225.955 136.845 225.955ZM30.7828 260.57V247.94H25.8378V246.147H37.7677V247.94H32.8226V260.57H30.7828ZM39.4617 260.57V249.65H41.3573V252.617L41.1719 251.875C41.4741 251.12 41.9823 250.543 42.6966 250.145C43.4109 249.746 44.29 249.547 45.3339 249.547V251.463C45.2515 251.449 45.1691 251.443 45.0867 251.443C45.018 251.443 44.9493 251.443 44.8806 251.443C43.8229 251.443 42.985 251.759 42.3669 252.39C41.7488 253.022 41.4397 253.936 41.4397 255.131V260.57H39.4617ZM53.7458 260.57V258.263L53.6427 257.83V253.895C53.6427 253.057 53.3955 252.411 52.901 251.958C52.4202 251.491 51.6922 251.257 50.7169 251.257C50.0713 251.257 49.4395 251.367 48.8214 251.587C48.2032 251.793 47.6813 252.074 47.2554 252.432L46.4313 250.948C46.9944 250.495 47.6675 250.151 48.4505 249.918C49.2472 249.671 50.0782 249.547 50.9436 249.547C52.4408 249.547 53.5947 249.911 54.4051 250.639C55.2155 251.367 55.6208 252.48 55.6208 253.977V260.57H53.7458ZM50.1606 260.694C49.3502 260.694 48.6359 260.557 48.0178 260.282C47.4134 260.007 46.9464 259.629 46.6167 259.149C46.287 258.654 46.1222 258.098 46.1222 257.48C46.1222 256.889 46.2596 256.353 46.5343 255.873C46.8227 255.392 47.2829 255.007 47.9148 254.719C48.5604 254.43 49.4257 254.286 50.5109 254.286H53.9724V255.708H50.5933C49.6043 255.708 48.9381 255.873 48.5947 256.202C48.2513 256.532 48.0796 256.93 48.0796 257.397C48.0796 257.933 48.2925 258.366 48.7183 258.695C49.1442 259.011 49.7348 259.169 50.4903 259.169C51.2321 259.169 51.8777 259.004 52.4271 258.675C52.9903 258.345 53.3955 257.864 53.6427 257.232L54.0342 258.592C53.7732 259.238 53.3131 259.753 52.6537 260.138C51.9944 260.508 51.1634 260.694 50.1606 260.694ZM65.071 260.694C64.137 260.694 63.2922 260.488 62.5367 260.076C61.795 259.65 61.2043 259.025 60.7647 258.201C60.3389 257.377 60.126 256.346 60.126 255.11C60.126 253.874 60.3458 252.844 60.7853 252.02C61.2386 251.195 61.8362 250.577 62.5779 250.165C63.3334 249.753 64.1644 249.547 65.071 249.547C66.1424 249.547 67.0902 249.781 67.9144 250.248C68.7386 250.715 69.3911 251.367 69.8718 252.205C70.3526 253.029 70.593 253.998 70.593 255.11C70.593 256.223 70.3526 257.198 69.8718 258.036C69.3911 258.874 68.7386 259.526 67.9144 259.993C67.0902 260.46 66.1424 260.694 65.071 260.694ZM59.2812 260.57V245.282H61.2592V252.555L61.0532 255.09L61.1768 257.624V260.57H59.2812ZM64.9062 258.963C65.6067 258.963 66.2317 258.805 66.7812 258.489C67.3444 258.173 67.7839 257.727 68.0999 257.15C68.4295 256.559 68.5944 255.879 68.5944 255.11C68.5944 254.327 68.4295 253.654 68.0999 253.091C67.7839 252.514 67.3444 252.068 66.7812 251.752C66.2317 251.436 65.6067 251.278 64.9062 251.278C64.2194 251.278 63.5944 251.436 63.0312 251.752C62.4818 252.068 62.0422 252.514 61.7125 253.091C61.3966 253.654 61.2386 254.327 61.2386 255.11C61.2386 255.879 61.3966 256.559 61.7125 257.15C62.0422 257.727 62.4818 258.173 63.0312 258.489C63.5944 258.805 64.2194 258.963 64.9062 258.963ZM80.0041 260.57V258.263L79.9011 257.83V253.895C79.9011 253.057 79.6538 252.411 79.1593 251.958C78.6786 251.491 77.9506 251.257 76.9753 251.257C76.3297 251.257 75.6978 251.367 75.0797 251.587C74.4616 251.793 73.9396 252.074 73.5138 252.432L72.6896 250.948C73.2528 250.495 73.9259 250.151 74.7088 249.918C75.5055 249.671 76.3366 249.547 77.2019 249.547C78.6992 249.547 79.853 249.911 80.6635 250.639C81.4739 251.367 81.8791 252.48 81.8791 253.977V260.57H80.0041ZM76.419 260.694C75.6085 260.694 74.8943 260.557 74.2761 260.282C73.6717 260.007 73.2047 259.629 72.875 259.149C72.5454 258.654 72.3805 258.098 72.3805 257.48C72.3805 256.889 72.5179 256.353 72.7926 255.873C73.0811 255.392 73.5413 255.007 74.1731 254.719C74.8187 254.43 75.6841 254.286 76.7693 254.286H80.2308V255.708H76.8517C75.8627 255.708 75.1965 255.873 74.8531 256.202C74.5097 256.532 74.338 256.93 74.338 257.397C74.338 257.933 74.5509 258.366 74.9767 258.695C75.4025 259.011 75.9932 259.169 76.7486 259.169C77.4904 259.169 78.136 259.004 78.6854 258.675C79.2486 258.345 79.6538 257.864 79.9011 257.232L80.2926 258.592C80.0316 259.238 79.5714 259.753 78.9121 260.138C78.2528 260.508 77.4217 260.694 76.419 260.694ZM85.5396 260.57V245.282H87.5176V260.57H85.5396ZM97.1253 249.547C98.0181 249.547 98.8011 249.719 99.4742 250.062C100.161 250.406 100.697 250.928 101.081 251.628C101.466 252.329 101.658 253.215 101.658 254.286V260.57H99.6802V254.513C99.6802 253.455 99.4192 252.658 98.8973 252.123C98.389 251.587 97.6679 251.319 96.7338 251.319C96.0333 251.319 95.422 251.456 94.9 251.731C94.3781 252.006 93.9728 252.411 93.6844 252.947C93.4097 253.482 93.2723 254.149 93.2723 254.945V260.57H91.2943V245.282H93.2723V252.596L92.8808 251.814C93.238 251.099 93.7874 250.543 94.5292 250.145C95.2709 249.746 96.1363 249.547 97.1253 249.547ZM112.098 260.57V258.263L111.995 257.83V253.895C111.995 253.057 111.747 252.411 111.253 251.958C110.772 251.491 110.044 251.257 109.069 251.257C108.423 251.257 107.791 251.367 107.173 251.587C106.555 251.793 106.033 252.074 105.607 252.432L104.783 250.948C105.346 250.495 106.019 250.151 106.802 249.918C107.599 249.671 108.43 249.547 109.295 249.547C110.793 249.547 111.947 249.911 112.757 250.639C113.567 251.367 113.973 252.48 113.973 253.977V260.57H112.098ZM108.513 260.694C107.702 260.694 106.988 260.557 106.37 260.282C105.765 260.007 105.298 259.629 104.969 259.149C104.639 258.654 104.474 258.098 104.474 257.48C104.474 256.889 104.611 256.353 104.886 255.873C105.175 255.392 105.635 255.007 106.267 254.719C106.912 254.43 107.778 254.286 108.863 254.286H112.324V255.708H108.945C107.956 255.708 107.29 255.873 106.947 256.202C106.603 256.532 106.431 256.93 106.431 257.397C106.431 257.933 106.644 258.366 107.07 258.695C107.496 259.011 108.087 259.169 108.842 259.169C109.584 259.169 110.23 259.004 110.779 258.675C111.342 258.345 111.747 257.864 111.995 257.232L112.386 258.592C112.125 259.238 111.665 259.753 111.006 260.138C110.346 260.508 109.515 260.694 108.513 260.694ZM117.633 260.57V249.65H119.529V252.617L119.343 251.875C119.645 251.12 120.154 250.543 120.868 250.145C121.582 249.746 122.461 249.547 123.505 249.547V251.463C123.423 251.449 123.341 251.443 123.258 251.443C123.189 251.443 123.121 251.443 123.052 251.443C121.994 251.443 121.156 251.759 120.538 252.39C119.92 253.022 119.611 253.936 119.611 255.131V260.57H117.633ZM130.216 264.691C129.763 264.691 129.33 264.636 128.918 264.526C128.492 264.416 128.135 264.252 127.847 264.032L128.486 262.507C128.898 262.851 129.433 263.022 130.093 263.022C130.615 263.022 131.013 262.857 131.288 262.528C131.576 262.212 131.72 261.738 131.72 261.106V249.65H133.698V261.065C133.698 262.177 133.396 263.057 132.792 263.702C132.201 264.361 131.343 264.691 130.216 264.691ZM132.709 247.548C132.325 247.548 132.002 247.425 131.741 247.178C131.494 246.93 131.37 246.628 131.37 246.271C131.37 245.9 131.494 245.591 131.741 245.344C132.002 245.097 132.325 244.973 132.709 244.973C133.094 244.973 133.41 245.097 133.657 245.344C133.918 245.577 134.049 245.873 134.049 246.23C134.049 246.601 133.925 246.917 133.678 247.178C133.431 247.425 133.108 247.548 132.709 247.548ZM142.068 260.694C141.133 260.694 140.309 260.522 139.595 260.179C138.894 259.835 138.345 259.313 137.947 258.613C137.562 257.899 137.37 257.006 137.37 255.934V249.65H139.348V255.708C139.348 256.779 139.602 257.583 140.11 258.118C140.632 258.654 141.36 258.922 142.294 258.922C142.981 258.922 143.579 258.785 144.087 258.51C144.595 258.221 144.986 257.809 145.261 257.274C145.536 256.724 145.673 256.065 145.673 255.296V249.65H147.651V260.57H145.776V257.624L146.085 258.407C145.728 259.135 145.193 259.698 144.478 260.096C143.764 260.495 142.96 260.694 142.068 260.694ZM157.248 249.547C158.141 249.547 158.924 249.719 159.597 250.062C160.284 250.406 160.819 250.928 161.204 251.628C161.589 252.329 161.781 253.215 161.781 254.286V260.57H159.803V254.513C159.803 253.455 159.542 252.658 159.02 252.123C158.512 251.587 157.79 251.319 156.856 251.319C156.156 251.319 155.545 251.456 155.023 251.731C154.501 252.006 154.095 252.411 153.807 252.947C153.532 253.482 153.395 254.149 153.395 254.945V260.57H151.417V249.65H153.312V252.596L153.003 251.814C153.361 251.099 153.91 250.543 154.652 250.145C155.393 249.746 156.259 249.547 157.248 249.547ZM169.191 260.694C168.093 260.694 167.241 260.399 166.636 259.808C166.032 259.217 165.73 258.373 165.73 257.274V247.26H167.708V257.191C167.708 257.782 167.852 258.235 168.141 258.551C168.443 258.867 168.869 259.025 169.418 259.025C170.036 259.025 170.551 258.853 170.963 258.51L171.582 259.932C171.279 260.193 170.915 260.385 170.489 260.508C170.077 260.632 169.645 260.694 169.191 260.694ZM163.876 251.278V249.65H170.84V251.278H163.876ZM178.288 260.694C177.189 260.694 176.214 260.454 175.362 259.973C174.51 259.492 173.837 258.833 173.343 257.995C172.848 257.143 172.601 256.182 172.601 255.11C172.601 254.025 172.848 253.063 173.343 252.226C173.837 251.388 174.51 250.735 175.362 250.268C176.214 249.787 177.189 249.547 178.288 249.547C179.373 249.547 180.341 249.787 181.193 250.268C182.058 250.735 182.732 251.388 183.212 252.226C183.707 253.05 183.954 254.011 183.954 255.11C183.954 256.195 183.707 257.157 183.212 257.995C182.732 258.833 182.058 259.492 181.193 259.973C180.341 260.454 179.373 260.694 178.288 260.694ZM178.288 258.963C178.988 258.963 179.613 258.805 180.163 258.489C180.726 258.173 181.166 257.727 181.482 257.15C181.797 256.559 181.955 255.879 181.955 255.11C181.955 254.327 181.797 253.654 181.482 253.091C181.166 252.514 180.726 252.068 180.163 251.752C179.613 251.436 178.988 251.278 178.288 251.278C177.587 251.278 176.962 251.436 176.413 251.752C175.863 252.068 175.424 252.514 175.094 253.091C174.765 253.654 174.6 254.327 174.6 255.11C174.6 255.879 174.765 256.559 175.094 257.15C175.424 257.727 175.863 258.173 176.413 258.489C176.962 258.805 177.587 258.963 178.288 258.963ZM189.821 260.694C188.915 260.694 188.049 260.57 187.225 260.323C186.415 260.076 185.776 259.774 185.309 259.416L186.133 257.851C186.6 258.166 187.177 258.434 187.864 258.654C188.551 258.874 189.251 258.984 189.966 258.984C190.886 258.984 191.545 258.853 191.944 258.592C192.356 258.331 192.562 257.967 192.562 257.5C192.562 257.157 192.438 256.889 192.191 256.697C191.944 256.504 191.614 256.36 191.202 256.264C190.804 256.168 190.357 256.085 189.863 256.017C189.368 255.934 188.874 255.838 188.379 255.728C187.885 255.605 187.431 255.44 187.019 255.234C186.607 255.014 186.277 254.719 186.03 254.348C185.783 253.963 185.659 253.455 185.659 252.823C185.659 252.164 185.845 251.587 186.216 251.092C186.587 250.598 187.109 250.22 187.782 249.959C188.468 249.684 189.279 249.547 190.213 249.547C190.927 249.547 191.648 249.636 192.376 249.815C193.118 249.98 193.722 250.22 194.19 250.536L193.345 252.102C192.85 251.772 192.335 251.546 191.799 251.422C191.264 251.298 190.728 251.237 190.192 251.237C189.327 251.237 188.681 251.381 188.256 251.669C187.83 251.944 187.617 252.301 187.617 252.741C187.617 253.112 187.74 253.4 187.988 253.606C188.249 253.798 188.578 253.949 188.977 254.059C189.389 254.169 189.842 254.265 190.337 254.348C190.831 254.417 191.326 254.513 191.82 254.636C192.315 254.746 192.761 254.904 193.159 255.11C193.571 255.316 193.901 255.605 194.148 255.976C194.409 256.346 194.54 256.841 194.54 257.459C194.54 258.118 194.347 258.688 193.963 259.169C193.578 259.65 193.036 260.028 192.335 260.302C191.635 260.563 190.797 260.694 189.821 260.694ZM196.229 263.62L197.259 259.458L197.527 260.653C197.129 260.653 196.792 260.529 196.517 260.282C196.256 260.035 196.126 259.698 196.126 259.272C196.126 258.86 196.256 258.524 196.517 258.263C196.792 258.002 197.122 257.871 197.506 257.871C197.905 257.871 198.227 258.009 198.475 258.283C198.722 258.544 198.846 258.874 198.846 259.272C198.846 259.41 198.832 259.547 198.804 259.684C198.791 259.808 198.756 259.959 198.701 260.138C198.66 260.302 198.591 260.508 198.495 260.756L197.527 263.62H196.229ZM213.003 260.694C212.097 260.694 211.266 260.488 210.51 260.076C209.768 259.65 209.171 259.025 208.717 258.201C208.278 257.377 208.058 256.346 208.058 255.11C208.058 253.874 208.271 252.844 208.697 252.02C209.136 251.195 209.727 250.577 210.469 250.165C211.224 249.753 212.069 249.547 213.003 249.547C214.075 249.547 215.022 249.781 215.847 250.248C216.671 250.715 217.323 251.367 217.804 252.205C218.285 253.029 218.525 253.998 218.525 255.11C218.525 256.223 218.285 257.198 217.804 258.036C217.323 258.874 216.671 259.526 215.847 259.993C215.022 260.46 214.075 260.694 213.003 260.694ZM207.213 264.568V249.65H209.109V252.596L208.985 255.131L209.191 257.665V264.568H207.213ZM212.838 258.963C213.539 258.963 214.164 258.805 214.713 258.489C215.276 258.173 215.716 257.727 216.032 257.15C216.362 256.559 216.526 255.879 216.526 255.11C216.526 254.327 216.362 253.654 216.032 253.091C215.716 252.514 215.276 252.068 214.713 251.752C214.164 251.436 213.539 251.278 212.838 251.278C212.152 251.278 211.527 251.436 210.963 251.752C210.414 252.068 209.974 252.514 209.645 253.091C209.329 253.654 209.171 254.327 209.171 255.11C209.171 255.879 209.329 256.559 209.645 257.15C209.974 257.727 210.414 258.173 210.963 258.489C211.527 258.805 212.152 258.963 212.838 258.963ZM225.935 260.694C224.836 260.694 223.861 260.454 223.009 259.973C222.158 259.492 221.485 258.833 220.99 257.995C220.496 257.143 220.248 256.182 220.248 255.11C220.248 254.025 220.496 253.063 220.99 252.226C221.485 251.388 222.158 250.735 223.009 250.268C223.861 249.787 224.836 249.547 225.935 249.547C227.02 249.547 227.989 249.787 228.84 250.268C229.706 250.735 230.379 251.388 230.86 252.226C231.354 253.05 231.601 254.011 231.601 255.11C231.601 256.195 231.354 257.157 230.86 257.995C230.379 258.833 229.706 259.492 228.84 259.973C227.989 260.454 227.02 260.694 225.935 260.694ZM225.935 258.963C226.636 258.963 227.261 258.805 227.81 258.489C228.373 258.173 228.813 257.727 229.129 257.15C229.445 256.559 229.603 255.879 229.603 255.11C229.603 254.327 229.445 253.654 229.129 253.091C228.813 252.514 228.373 252.068 227.81 251.752C227.261 251.436 226.636 251.278 225.935 251.278C225.235 251.278 224.61 251.436 224.06 251.752C223.511 252.068 223.071 252.514 222.742 253.091C222.412 253.654 222.247 254.327 222.247 255.11C222.247 255.879 222.412 256.559 222.742 257.15C223.071 257.727 223.511 258.173 224.06 258.489C224.61 258.805 225.235 258.963 225.935 258.963ZM234.337 260.57V249.65H236.315V260.57H234.337ZM235.326 247.548C234.941 247.548 234.619 247.425 234.358 247.178C234.11 246.93 233.987 246.628 233.987 246.271C233.987 245.9 234.11 245.591 234.358 245.344C234.619 245.097 234.941 244.973 235.326 244.973C235.711 244.973 236.026 245.097 236.274 245.344C236.535 245.577 236.665 245.873 236.665 246.23C236.665 246.601 236.542 246.917 236.294 247.178C236.047 247.425 235.724 247.548 235.326 247.548ZM243.223 260.694C242.317 260.694 241.452 260.57 240.627 260.323C239.817 260.076 239.178 259.774 238.711 259.416L239.535 257.851C240.002 258.166 240.579 258.434 241.266 258.654C241.953 258.874 242.653 258.984 243.368 258.984C244.288 258.984 244.947 258.853 245.346 258.592C245.758 258.331 245.964 257.967 245.964 257.5C245.964 257.157 245.84 256.889 245.593 256.697C245.346 256.504 245.016 256.36 244.604 256.264C244.206 256.168 243.759 256.085 243.265 256.017C242.77 255.934 242.276 255.838 241.781 255.728C241.287 255.605 240.833 255.44 240.421 255.234C240.009 255.014 239.68 254.719 239.432 254.348C239.185 253.963 239.061 253.455 239.061 252.823C239.061 252.164 239.247 251.587 239.618 251.092C239.989 250.598 240.511 250.22 241.184 249.959C241.87 249.684 242.681 249.547 243.615 249.547C244.329 249.547 245.05 249.636 245.778 249.815C246.52 249.98 247.125 250.22 247.592 250.536L246.747 252.102C246.252 251.772 245.737 251.546 245.201 251.422C244.666 251.298 244.13 251.237 243.594 251.237C242.729 251.237 242.083 251.381 241.658 251.669C241.232 251.944 241.019 252.301 241.019 252.741C241.019 253.112 241.142 253.4 241.39 253.606C241.651 253.798 241.98 253.949 242.379 254.059C242.791 254.169 243.244 254.265 243.739 254.348C244.233 254.417 244.728 254.513 245.222 254.636C245.717 254.746 246.163 254.904 246.561 255.11C246.973 255.316 247.303 255.605 247.55 255.976C247.811 256.346 247.942 256.841 247.942 257.459C247.942 258.118 247.75 258.688 247.365 259.169C246.98 259.65 246.438 260.028 245.737 260.302C245.037 260.563 244.199 260.694 243.223 260.694ZM260.542 260.694C259.608 260.694 258.784 260.522 258.069 260.179C257.369 259.835 256.819 259.313 256.421 258.613C256.037 257.899 255.844 257.006 255.844 255.934V249.65H257.822V255.708C257.822 256.779 258.076 257.583 258.585 258.118C259.107 258.654 259.835 258.922 260.769 258.922C261.455 258.922 262.053 258.785 262.561 258.51C263.069 258.221 263.461 257.809 263.736 257.274C264.01 256.724 264.148 256.065 264.148 255.296V249.65H266.126V260.57H264.251V257.624L264.56 258.407C264.203 259.135 263.667 259.698 262.953 260.096C262.238 260.495 261.435 260.694 260.542 260.694ZM283.552 249.547C284.431 249.547 285.207 249.719 285.88 250.062C286.553 250.406 287.075 250.928 287.446 251.628C287.831 252.329 288.023 253.215 288.023 254.286V260.57H286.045V254.513C286.045 253.455 285.798 252.658 285.303 252.123C284.809 251.587 284.115 251.319 283.222 251.319C282.563 251.319 281.986 251.456 281.492 251.731C280.997 252.006 280.612 252.411 280.338 252.947C280.077 253.482 279.946 254.149 279.946 254.945V260.57H277.968V254.513C277.968 253.455 277.721 252.658 277.226 252.123C276.746 251.587 276.052 251.319 275.145 251.319C274.5 251.319 273.93 251.456 273.435 251.731C272.941 252.006 272.556 252.411 272.281 252.947C272.007 253.482 271.869 254.149 271.869 254.945V260.57H269.891V249.65H271.787V252.555L271.478 251.814C271.821 251.099 272.35 250.543 273.064 250.145C273.779 249.746 274.61 249.547 275.558 249.547C276.601 249.547 277.501 249.808 278.257 250.33C279.012 250.838 279.507 251.614 279.74 252.658L278.937 252.329C279.266 251.491 279.843 250.818 280.667 250.309C281.492 249.801 282.453 249.547 283.552 249.547ZM27.6304 285.57V274.65H29.526V277.617L29.3405 276.875C29.6427 276.12 30.1509 275.543 30.8652 275.145C31.5795 274.746 32.4586 274.547 33.5026 274.547V276.463C33.4202 276.449 33.3377 276.443 33.2553 276.443C33.1866 276.443 33.118 276.443 33.0493 276.443C31.9916 276.443 31.1537 276.759 30.5356 277.39C29.9174 278.022 29.6084 278.936 29.6084 280.131V285.57H27.6304ZM40.7025 285.694C39.5349 285.694 38.5047 285.454 37.6118 284.973C36.7327 284.492 36.0459 283.833 35.5514 282.995C35.0706 282.157 34.8303 281.195 34.8303 280.11C34.8303 279.025 35.0638 278.063 35.5308 277.226C36.0116 276.388 36.664 275.735 37.4882 275.268C38.3261 274.787 39.267 274.547 40.311 274.547C41.3687 274.547 42.3027 274.781 43.1132 275.248C43.9236 275.715 44.5555 276.374 45.0088 277.226C45.4758 278.063 45.7093 279.046 45.7093 280.172C45.7093 280.254 45.7024 280.351 45.6887 280.46C45.6887 280.57 45.6818 280.673 45.6681 280.77H36.3756V279.348H44.6379L43.8343 279.842C43.8481 279.142 43.7038 278.517 43.4016 277.967C43.0994 277.418 42.6805 276.992 42.1448 276.69C41.6228 276.374 41.0115 276.216 40.311 276.216C39.6242 276.216 39.0129 276.374 38.4772 276.69C37.9415 276.992 37.5225 277.425 37.2204 277.988C36.9182 278.537 36.7671 279.169 36.7671 279.884V280.213C36.7671 280.941 36.9319 281.594 37.2616 282.171C37.605 282.734 38.0789 283.173 38.6833 283.489C39.2876 283.805 39.9813 283.963 40.7643 283.963C41.4099 283.963 41.9937 283.853 42.5156 283.634C43.0514 283.414 43.5184 283.084 43.9167 282.645L45.0088 283.922C44.5143 284.499 43.8961 284.938 43.1544 285.241C42.4264 285.543 41.6091 285.694 40.7025 285.694ZM51.5878 285.694C50.6812 285.694 49.8158 285.57 48.9917 285.323C48.1812 285.076 47.5425 284.774 47.0755 284.416L47.8996 282.851C48.3667 283.166 48.9436 283.434 49.6304 283.654C50.3172 283.874 51.0177 283.984 51.732 283.984C52.6523 283.984 53.3117 283.853 53.71 283.592C54.1221 283.331 54.3282 282.967 54.3282 282.5C54.3282 282.157 54.2045 281.889 53.9573 281.697C53.71 281.504 53.3804 281.36 52.9683 281.264C52.5699 281.168 52.1235 281.085 51.629 281.017C51.1345 280.934 50.64 280.838 50.1455 280.728C49.651 280.605 49.1977 280.44 48.7856 280.234C48.3735 280.014 48.0439 279.719 47.7966 279.348C47.5494 278.963 47.4257 278.455 47.4257 277.823C47.4257 277.164 47.6112 276.587 47.9821 276.092C48.3529 275.598 48.8749 275.22 49.548 274.959C50.2348 274.684 51.0452 274.547 51.9793 274.547C52.6936 274.547 53.4147 274.636 54.1427 274.815C54.8845 274.98 55.4889 275.22 55.9559 275.536L55.1111 277.102C54.6166 276.772 54.1015 276.546 53.5658 276.422C53.0301 276.298 52.4944 276.237 51.9587 276.237C51.0933 276.237 50.4477 276.381 50.0219 276.669C49.5961 276.944 49.3831 277.301 49.3831 277.741C49.3831 278.112 49.5068 278.4 49.754 278.606C50.015 278.798 50.3447 278.949 50.743 279.059C51.1551 279.169 51.6084 279.265 52.1029 279.348C52.5974 279.417 53.0919 279.513 53.5864 279.636C54.0809 279.746 54.5273 279.904 54.9257 280.11C55.3378 280.316 55.6674 280.605 55.9147 280.976C56.1757 281.346 56.3062 281.841 56.3062 282.459C56.3062 283.118 56.1139 283.688 55.7293 284.169C55.3446 284.65 54.8021 285.028 54.1015 285.302C53.401 285.563 52.5631 285.694 51.5878 285.694ZM63.3729 285.694C62.4389 285.694 61.6147 285.522 60.9004 285.179C60.1999 284.835 59.6504 284.313 59.2521 283.613C58.8675 282.899 58.6752 282.006 58.6752 280.934V274.65H60.6532V280.708C60.6532 281.779 60.9073 282.583 61.4155 283.118C61.9375 283.654 62.6655 283.922 63.5996 283.922C64.2864 283.922 64.8839 283.785 65.3922 283.51C65.9004 283.221 66.2919 282.809 66.5666 282.274C66.8413 281.724 66.9787 281.065 66.9787 280.296V274.65H68.9567V285.57H67.0817V282.624L67.3908 283.407C67.0336 284.135 66.4979 284.698 65.7836 285.096C65.0694 285.495 64.2658 285.694 63.3729 285.694ZM72.7223 285.57V270.282H74.7003V285.57H72.7223ZM82.5087 285.694C81.4098 285.694 80.5581 285.399 79.9537 284.808C79.3493 284.217 79.0472 283.373 79.0472 282.274V272.26H81.0252V282.191C81.0252 282.782 81.1694 283.235 81.4579 283.551C81.76 283.867 82.1859 284.025 82.7353 284.025C83.3534 284.025 83.8685 283.853 84.2806 283.51L84.8988 284.932C84.5966 285.193 84.2326 285.385 83.8067 285.508C83.3947 285.632 82.962 285.694 82.5087 285.694ZM77.1928 276.278V274.65H84.157V276.278H77.1928ZM94.0689 285.57V283.263L93.9659 282.83V278.895C93.9659 278.057 93.7187 277.411 93.2242 276.958C92.7434 276.491 92.0154 276.257 91.0401 276.257C90.3945 276.257 89.7627 276.367 89.1445 276.587C88.5264 276.793 88.0044 277.074 87.5786 277.432L86.7544 275.948C87.3176 275.495 87.9907 275.151 88.7736 274.918C89.5703 274.671 90.4014 274.547 91.2668 274.547C92.764 274.547 93.9178 274.911 94.7283 275.639C95.5387 276.367 95.9439 277.48 95.9439 278.977V285.57H94.0689ZM90.4838 285.694C89.6734 285.694 88.9591 285.557 88.341 285.282C87.7366 285.007 87.2695 284.629 86.9399 284.149C86.6102 283.654 86.4454 283.098 86.4454 282.48C86.4454 281.889 86.5827 281.353 86.8575 280.873C87.1459 280.392 87.6061 280.007 88.2379 279.719C88.8835 279.43 89.7489 279.286 90.8341 279.286H94.2956V280.708H90.9165C89.9275 280.708 89.2613 280.873 88.9179 281.202C88.5745 281.532 88.4028 281.93 88.4028 282.397C88.4028 282.933 88.6157 283.366 89.0415 283.695C89.4673 284.011 90.058 284.169 90.8135 284.169C91.5552 284.169 92.2008 284.004 92.7503 283.675C93.3135 283.345 93.7187 282.864 93.9659 282.232L94.3574 283.592C94.0964 284.238 93.6363 284.753 92.9769 285.138C92.3176 285.508 91.4865 285.694 90.4838 285.694ZM104.117 285.694C103.059 285.694 102.111 285.46 101.273 284.993C100.449 284.526 99.7967 283.874 99.3159 283.036C98.8352 282.198 98.5948 281.223 98.5948 280.11C98.5948 278.998 98.8352 278.029 99.3159 277.205C99.7967 276.367 100.449 275.715 101.273 275.248C102.111 274.781 103.059 274.547 104.117 274.547C105.037 274.547 105.868 274.753 106.61 275.165C107.352 275.577 107.942 276.195 108.382 277.02C108.835 277.844 109.062 278.874 109.062 280.11C109.062 281.346 108.842 282.377 108.402 283.201C107.977 284.025 107.393 284.65 106.651 285.076C105.909 285.488 105.065 285.694 104.117 285.694ZM104.282 283.963C104.968 283.963 105.587 283.805 106.136 283.489C106.699 283.173 107.139 282.727 107.455 282.15C107.784 281.559 107.949 280.879 107.949 280.11C107.949 279.327 107.784 278.654 107.455 278.091C107.139 277.514 106.699 277.068 106.136 276.752C105.587 276.436 104.968 276.278 104.282 276.278C103.581 276.278 102.956 276.436 102.407 276.752C101.857 277.068 101.418 277.514 101.088 278.091C100.758 278.654 100.593 279.327 100.593 280.11C100.593 280.879 100.758 281.559 101.088 282.15C101.418 282.727 101.857 283.173 102.407 283.489C102.956 283.805 103.581 283.963 104.282 283.963ZM108.011 285.57V282.624L108.135 280.09L107.929 277.555V270.282H109.907V285.57H108.011ZM118.326 285.694C117.227 285.694 116.252 285.454 115.4 284.973C114.549 284.492 113.876 283.833 113.381 282.995C112.887 282.143 112.639 281.182 112.639 280.11C112.639 279.025 112.887 278.063 113.381 277.226C113.876 276.388 114.549 275.735 115.4 275.268C116.252 274.787 117.227 274.547 118.326 274.547C119.411 274.547 120.38 274.787 121.231 275.268C122.097 275.735 122.77 276.388 123.251 277.226C123.745 278.05 123.992 279.011 123.992 280.11C123.992 281.195 123.745 282.157 123.251 282.995C122.77 283.833 122.097 284.492 121.231 284.973C120.38 285.454 119.411 285.694 118.326 285.694ZM118.326 283.963C119.027 283.963 119.652 283.805 120.201 283.489C120.764 283.173 121.204 282.727 121.52 282.15C121.836 281.559 121.994 280.879 121.994 280.11C121.994 279.327 121.836 278.654 121.52 278.091C121.204 277.514 120.764 277.068 120.201 276.752C119.652 276.436 119.027 276.278 118.326 276.278C117.626 276.278 117.001 276.436 116.451 276.752C115.902 277.068 115.462 277.514 115.133 278.091C114.803 278.654 114.638 279.327 114.638 280.11C114.638 280.879 114.803 281.559 115.133 282.15C115.462 282.727 115.902 283.173 116.451 283.489C117.001 283.805 117.626 283.963 118.326 283.963ZM136.011 285.694C134.912 285.694 134.061 285.399 133.456 284.808C132.852 284.217 132.55 283.373 132.55 282.274V272.26H134.528V282.191C134.528 282.782 134.672 283.235 134.961 283.551C135.263 283.867 135.689 284.025 136.238 284.025C136.856 284.025 137.371 283.853 137.783 283.51L138.401 284.932C138.099 285.193 137.735 285.385 137.309 285.508C136.897 285.632 136.465 285.694 136.011 285.694ZM130.695 276.278V274.65H137.66V276.278H130.695ZM147.572 285.57V283.263L147.469 282.83V278.895C147.469 278.057 147.221 277.411 146.727 276.958C146.246 276.491 145.518 276.257 144.543 276.257C143.897 276.257 143.265 276.367 142.647 276.587C142.029 276.793 141.507 277.074 141.081 277.432L140.257 275.948C140.82 275.495 141.493 275.151 142.276 274.918C143.073 274.671 143.904 274.547 144.769 274.547C146.267 274.547 147.42 274.911 148.231 275.639C149.041 276.367 149.447 277.48 149.447 278.977V285.57H147.572ZM143.986 285.694C143.176 285.694 142.462 285.557 141.844 285.282C141.239 285.007 140.772 284.629 140.443 284.149C140.113 283.654 139.948 283.098 139.948 282.48C139.948 281.889 140.085 281.353 140.36 280.873C140.649 280.392 141.109 280.007 141.741 279.719C142.386 279.43 143.252 279.286 144.337 279.286H147.798V280.708H144.419C143.43 280.708 142.764 280.873 142.421 281.202C142.077 281.532 141.905 281.93 141.905 282.397C141.905 282.933 142.118 283.366 142.544 283.695C142.97 284.011 143.561 284.169 144.316 284.169C145.058 284.169 145.703 284.004 146.253 283.675C146.816 283.345 147.221 282.864 147.469 282.232L147.86 283.592C147.599 284.238 147.139 284.753 146.48 285.138C145.82 285.508 144.989 285.694 143.986 285.694ZM146.356 273.002C146.026 273.002 145.731 272.933 145.47 272.796C145.223 272.658 144.996 272.5 144.79 272.322C144.584 272.129 144.385 271.965 144.192 271.827C144 271.69 143.808 271.621 143.616 271.621C143.313 271.621 143.066 271.738 142.874 271.972C142.695 272.191 142.592 272.5 142.565 272.899H141.452C141.48 272.129 141.672 271.518 142.029 271.065C142.386 270.612 142.867 270.385 143.471 270.385C143.801 270.385 144.096 270.461 144.357 270.612C144.618 270.749 144.852 270.914 145.058 271.106C145.264 271.285 145.456 271.443 145.635 271.58C145.827 271.717 146.019 271.786 146.212 271.786C146.514 271.786 146.761 271.676 146.953 271.456C147.146 271.237 147.249 270.934 147.263 270.55H148.375C148.361 271.278 148.169 271.868 147.798 272.322C147.441 272.775 146.96 273.002 146.356 273.002ZM157.784 285.694C156.685 285.694 155.71 285.454 154.858 284.973C154.007 284.492 153.334 283.833 152.839 282.995C152.345 282.143 152.097 281.182 152.097 280.11C152.097 279.025 152.345 278.063 152.839 277.226C153.334 276.388 154.007 275.735 154.858 275.268C155.71 274.787 156.685 274.547 157.784 274.547C158.869 274.547 159.838 274.787 160.689 275.268C161.555 275.735 162.228 276.388 162.709 277.226C163.203 278.05 163.45 279.011 163.45 280.11C163.45 281.195 163.203 282.157 162.709 282.995C162.228 283.833 161.555 284.492 160.689 284.973C159.838 285.454 158.869 285.694 157.784 285.694ZM157.784 283.963C158.485 283.963 159.11 283.805 159.659 283.489C160.222 283.173 160.662 282.727 160.978 282.15C161.294 281.559 161.452 280.879 161.452 280.11C161.452 279.327 161.294 278.654 160.978 278.091C160.662 277.514 160.222 277.068 159.659 276.752C159.11 276.436 158.485 276.278 157.784 276.278C157.084 276.278 156.459 276.436 155.909 276.752C155.36 277.068 154.92 277.514 154.591 278.091C154.261 278.654 154.096 279.327 154.096 280.11C154.096 280.879 154.261 281.559 154.591 282.15C154.92 282.727 155.36 283.173 155.909 283.489C156.459 283.805 157.084 283.963 157.784 283.963ZM178.498 285.57V283.263L178.395 282.83V278.895C178.395 278.057 178.148 277.411 177.653 276.958C177.173 276.491 176.445 276.257 175.469 276.257C174.824 276.257 174.192 276.367 173.574 276.587C172.956 276.793 172.434 277.074 172.008 277.432L171.184 275.948C171.747 275.495 172.42 275.151 173.203 274.918C174 274.671 174.831 274.547 175.696 274.547C177.193 274.547 178.347 274.911 179.157 275.639C179.968 276.367 180.373 277.48 180.373 278.977V285.57H178.498ZM174.913 285.694C174.103 285.694 173.388 285.557 172.77 285.282C172.166 285.007 171.699 284.629 171.369 284.149C171.039 283.654 170.875 283.098 170.875 282.48C170.875 281.889 171.012 281.353 171.287 280.873C171.575 280.392 172.035 280.007 172.667 279.719C173.313 279.43 174.178 279.286 175.263 279.286H178.725V280.708H175.346C174.357 280.708 173.69 280.873 173.347 281.202C173.004 281.532 172.832 281.93 172.832 282.397C172.832 282.933 173.045 283.366 173.471 283.695C173.896 284.011 174.487 284.169 175.243 284.169C175.984 284.169 176.63 284.004 177.179 283.675C177.743 283.345 178.148 282.864 178.395 282.232L178.787 283.592C178.526 284.238 178.065 284.753 177.406 285.138C176.747 285.508 175.916 285.694 174.913 285.694ZM184.034 285.57V270.282H186.012V285.57H184.034ZM193.82 285.694C192.721 285.694 191.869 285.399 191.265 284.808C190.661 284.217 190.358 283.373 190.358 282.274V272.26H192.336V282.191C192.336 282.782 192.481 283.235 192.769 283.551C193.071 283.867 193.497 284.025 194.047 284.025C194.665 284.025 195.18 283.853 195.592 283.51L196.21 284.932C195.908 285.193 195.544 285.385 195.118 285.508C194.706 285.632 194.273 285.694 193.82 285.694ZM188.504 276.278V274.65H195.468V276.278H188.504ZM202.916 285.694C201.818 285.694 200.842 285.454 199.991 284.973C199.139 284.492 198.466 283.833 197.971 282.995C197.477 282.143 197.23 281.182 197.23 280.11C197.23 279.025 197.477 278.063 197.971 277.226C198.466 276.388 199.139 275.735 199.991 275.268C200.842 274.787 201.818 274.547 202.916 274.547C204.002 274.547 204.97 274.787 205.822 275.268C206.687 275.735 207.36 276.388 207.841 277.226C208.335 278.05 208.583 279.011 208.583 280.11C208.583 281.195 208.335 282.157 207.841 282.995C207.36 283.833 206.687 284.492 205.822 284.973C204.97 285.454 204.002 285.694 202.916 285.694ZM202.916 283.963C203.617 283.963 204.242 283.805 204.791 283.489C205.355 283.173 205.794 282.727 206.11 282.15C206.426 281.559 206.584 280.879 206.584 280.11C206.584 279.327 206.426 278.654 206.11 278.091C205.794 277.514 205.355 277.068 204.791 276.752C204.242 276.436 203.617 276.278 202.916 276.278C202.216 276.278 201.591 276.436 201.041 276.752C200.492 277.068 200.052 277.514 199.723 278.091C199.393 278.654 199.228 279.327 199.228 280.11C199.228 280.879 199.393 281.559 199.723 282.15C200.052 282.727 200.492 283.173 201.041 283.489C201.591 283.805 202.216 283.963 202.916 283.963ZM219.983 285.694C219.077 285.694 218.211 285.57 217.387 285.323C216.577 285.076 215.938 284.774 215.471 284.416L216.295 282.851C216.762 283.166 217.339 283.434 218.026 283.654C218.713 283.874 219.413 283.984 220.128 283.984C221.048 283.984 221.707 283.853 222.106 283.592C222.518 283.331 222.724 282.967 222.724 282.5C222.724 282.157 222.6 281.889 222.353 281.697C222.106 281.504 221.776 281.36 221.364 281.264C220.965 281.168 220.519 281.085 220.025 281.017C219.53 280.934 219.036 280.838 218.541 280.728C218.047 280.605 217.593 280.44 217.181 280.234C216.769 280.014 216.439 279.719 216.192 279.348C215.945 278.963 215.821 278.455 215.821 277.823C215.821 277.164 216.007 276.587 216.378 276.092C216.748 275.598 217.27 275.22 217.943 274.959C218.63 274.684 219.441 274.547 220.375 274.547C221.089 274.547 221.81 274.636 222.538 274.815C223.28 274.98 223.884 275.22 224.351 275.536L223.507 277.102C223.012 276.772 222.497 276.546 221.961 276.422C221.426 276.298 220.89 276.237 220.354 276.237C219.489 276.237 218.843 276.381 218.417 276.669C217.992 276.944 217.779 277.301 217.779 277.741C217.779 278.112 217.902 278.4 218.15 278.606C218.411 278.798 218.74 278.949 219.139 279.059C219.551 279.169 220.004 279.265 220.498 279.348C220.993 279.417 221.487 279.513 221.982 279.636C222.476 279.746 222.923 279.904 223.321 280.11C223.733 280.316 224.063 280.605 224.31 280.976C224.571 281.346 224.702 281.841 224.702 282.459C224.702 283.118 224.509 283.688 224.125 284.169C223.74 284.65 223.198 285.028 222.497 285.302C221.796 285.563 220.959 285.694 219.983 285.694ZM231.851 285.694C230.752 285.694 229.777 285.454 228.925 284.973C228.073 284.492 227.4 283.833 226.906 282.995C226.411 282.143 226.164 281.182 226.164 280.11C226.164 279.025 226.411 278.063 226.906 277.226C227.4 276.388 228.073 275.735 228.925 275.268C229.777 274.787 230.752 274.547 231.851 274.547C232.936 274.547 233.904 274.787 234.756 275.268C235.621 275.735 236.295 276.388 236.775 277.226C237.27 278.05 237.517 279.011 237.517 280.11C237.517 281.195 237.27 282.157 236.775 282.995C236.295 283.833 235.621 284.492 234.756 284.973C233.904 285.454 232.936 285.694 231.851 285.694ZM231.851 283.963C232.551 283.963 233.176 283.805 233.726 283.489C234.289 283.173 234.729 282.727 235.045 282.15C235.36 281.559 235.518 280.879 235.518 280.11C235.518 279.327 235.36 278.654 235.045 278.091C234.729 277.514 234.289 277.068 233.726 276.752C233.176 276.436 232.551 276.278 231.851 276.278C231.15 276.278 230.525 276.436 229.976 276.752C229.426 277.068 228.987 277.514 228.657 278.091C228.328 278.654 228.163 279.327 228.163 280.11C228.163 280.879 228.328 281.559 228.657 282.15C228.987 282.727 229.426 283.173 229.976 283.489C230.525 283.805 231.15 283.963 231.851 283.963ZM230.285 273.064L233.087 270.385H235.601L232.139 273.064H230.285ZM250.649 285.694C249.481 285.694 248.451 285.454 247.558 284.973C246.679 284.492 245.992 283.833 245.498 282.995C245.017 282.157 244.776 281.195 244.776 280.11C244.776 279.025 245.01 278.063 245.477 277.226C245.958 276.388 246.61 275.735 247.434 275.268C248.272 274.787 249.213 274.547 250.257 274.547C251.315 274.547 252.249 274.781 253.059 275.248C253.87 275.715 254.502 276.374 254.955 277.226C255.422 278.063 255.655 279.046 255.655 280.172C255.655 280.254 255.649 280.351 255.635 280.46C255.635 280.57 255.628 280.673 255.614 280.77H246.322V279.348H254.584L253.78 279.842C253.794 279.142 253.65 278.517 253.348 277.967C253.046 277.418 252.627 276.992 252.091 276.69C251.569 276.374 250.958 276.216 250.257 276.216C249.57 276.216 248.959 276.374 248.423 276.69C247.888 276.992 247.469 277.425 247.166 277.988C246.864 278.537 246.713 279.169 246.713 279.884V280.213C246.713 280.941 246.878 281.594 247.208 282.171C247.551 282.734 248.025 283.173 248.629 283.489C249.234 283.805 249.927 283.963 250.71 283.963C251.356 283.963 251.94 283.853 252.462 283.634C252.997 283.414 253.464 283.084 253.863 282.645L254.955 283.922C254.46 284.499 253.842 284.938 253.1 285.241C252.372 285.543 251.555 285.694 250.649 285.694ZM248.691 273.064L251.493 270.385H254.007L250.546 273.064H248.691ZM264.224 285.57V273.682C264.224 272.61 264.533 271.759 265.151 271.127C265.783 270.481 266.676 270.158 267.83 270.158C268.255 270.158 268.661 270.213 269.045 270.323C269.444 270.419 269.78 270.577 270.055 270.797L269.457 272.301C269.251 272.136 269.018 272.013 268.757 271.93C268.496 271.834 268.221 271.786 267.933 271.786C267.356 271.786 266.916 271.951 266.614 272.281C266.312 272.596 266.161 273.07 266.161 273.702V275.165L266.202 276.072V285.57H264.224ZM262.369 276.278V274.65H269.334V276.278H262.369ZM271.199 285.57V274.65H273.095V277.617L272.909 276.875C273.212 276.12 273.72 275.543 274.434 275.145C275.148 274.746 276.027 274.547 277.071 274.547V276.463C276.989 276.449 276.907 276.443 276.824 276.443C276.756 276.443 276.687 276.443 276.618 276.443C275.56 276.443 274.723 276.759 274.104 277.39C273.486 278.022 273.177 278.936 273.177 280.131V285.57H271.199ZM284.245 285.694C283.311 285.694 282.487 285.522 281.772 285.179C281.072 284.835 280.522 284.313 280.124 283.613C279.739 282.899 279.547 282.006 279.547 280.934V274.65H281.525V280.708C281.525 281.779 281.779 282.583 282.288 283.118C282.81 283.654 283.538 283.922 284.472 283.922C285.158 283.922 285.756 283.785 286.264 283.51C286.772 283.221 287.164 282.809 287.439 282.274C287.713 281.724 287.851 281.065 287.851 280.296V274.65H289.829V285.57H287.954V282.624L288.263 283.407C287.906 284.135 287.37 284.698 286.656 285.096C285.941 285.495 285.138 285.694 284.245 285.694ZM297.344 285.694C296.245 285.694 295.394 285.399 294.789 284.808C294.185 284.217 293.883 283.373 293.883 282.274V272.26H295.861V282.191C295.861 282.782 296.005 283.235 296.293 283.551C296.596 283.867 297.021 284.025 297.571 284.025C298.189 284.025 298.704 283.853 299.116 283.51L299.734 284.932C299.432 285.193 299.068 285.385 298.642 285.508C298.23 285.632 297.798 285.694 297.344 285.694ZM292.028 276.278V274.65H298.993V276.278H292.028ZM306.441 285.694C305.342 285.694 304.367 285.454 303.515 284.973C302.663 284.492 301.99 283.833 301.496 282.995C301.001 282.143 300.754 281.182 300.754 280.11C300.754 279.025 301.001 278.063 301.496 277.226C301.99 276.388 302.663 275.735 303.515 275.268C304.367 274.787 305.342 274.547 306.441 274.547C307.526 274.547 308.494 274.787 309.346 275.268C310.211 275.735 310.884 276.388 311.365 277.226C311.86 278.05 312.107 279.011 312.107 280.11C312.107 281.195 311.86 282.157 311.365 282.995C310.884 283.833 310.211 284.492 309.346 284.973C308.494 285.454 307.526 285.694 306.441 285.694ZM306.441 283.963C307.141 283.963 307.766 283.805 308.316 283.489C308.879 283.173 309.318 282.727 309.634 282.15C309.95 281.559 310.108 280.879 310.108 280.11C310.108 279.327 309.95 278.654 309.634 278.091C309.318 277.514 308.879 277.068 308.316 276.752C307.766 276.436 307.141 276.278 306.441 276.278C305.74 276.278 305.115 276.436 304.566 276.752C304.016 277.068 303.577 277.514 303.247 278.091C302.917 278.654 302.753 279.327 302.753 280.11C302.753 280.879 302.917 281.559 303.247 282.15C303.577 282.727 304.016 283.173 304.566 283.489C305.115 283.805 305.74 283.963 306.441 283.963ZM32.1427 310.694C31.085 310.694 30.1372 310.46 29.2993 309.993C28.4751 309.526 27.8227 308.874 27.3419 308.036C26.8611 307.198 26.6207 306.223 26.6207 305.11C26.6207 303.998 26.8611 303.029 27.3419 302.205C27.8227 301.367 28.4751 300.715 29.2993 300.248C30.1372 299.781 31.085 299.547 32.1427 299.547C33.063 299.547 33.8941 299.753 34.6358 300.165C35.3776 300.577 35.9682 301.195 36.4078 302.02C36.8611 302.844 37.0877 303.874 37.0877 305.11C37.0877 306.346 36.8679 307.377 36.4284 308.201C36.0026 309.025 35.4188 309.65 34.677 310.076C33.9353 310.488 33.0905 310.694 32.1427 310.694ZM32.3075 308.963C32.9943 308.963 33.6125 308.805 34.1619 308.489C34.7251 308.173 35.1646 307.727 35.4806 307.15C35.8102 306.559 35.9751 305.879 35.9751 305.11C35.9751 304.327 35.8102 303.654 35.4806 303.091C35.1646 302.514 34.7251 302.068 34.1619 301.752C33.6125 301.436 32.9943 301.278 32.3075 301.278C31.607 301.278 30.982 301.436 30.4325 301.752C29.8831 302.068 29.4435 302.514 29.1139 303.091C28.7842 303.654 28.6194 304.327 28.6194 305.11C28.6194 305.879 28.7842 306.559 29.1139 307.15C29.4435 307.727 29.8831 308.173 30.4325 308.489C30.982 308.805 31.607 308.963 32.3075 308.963ZM36.0369 310.57V307.624L36.1605 305.09L35.9545 302.555V295.282H37.9325V310.57H36.0369ZM46.5377 310.694C45.3701 310.694 44.3399 310.454 43.447 309.973C42.5679 309.492 41.8811 308.833 41.3866 307.995C40.9058 307.157 40.6654 306.195 40.6654 305.11C40.6654 304.025 40.899 303.063 41.366 302.226C41.8468 301.388 42.4992 300.735 43.3234 300.268C44.1613 299.787 45.1022 299.547 46.1462 299.547C47.2039 299.547 48.1379 299.781 48.9484 300.248C49.7588 300.715 50.3907 301.374 50.844 302.226C51.311 303.063 51.5445 304.046 51.5445 305.172C51.5445 305.254 51.5376 305.351 51.5239 305.46C51.5239 305.57 51.517 305.673 51.5033 305.77H42.2108V304.348H50.4731L49.6695 304.842C49.6832 304.142 49.539 303.517 49.2368 302.967C48.9346 302.418 48.5157 301.992 47.98 301.69C47.458 301.374 46.8467 301.216 46.1462 301.216C45.4594 301.216 44.8481 301.374 44.3124 301.69C43.7767 301.992 43.3577 302.425 43.0555 302.988C42.7533 303.537 42.6022 304.169 42.6022 304.884V305.213C42.6022 305.941 42.7671 306.594 43.0967 307.171C43.4402 307.734 43.9141 308.173 44.5184 308.489C45.1228 308.805 45.8165 308.963 46.5995 308.963C47.2451 308.963 47.8289 308.853 48.3508 308.634C48.8865 308.414 49.3536 308.084 49.7519 307.645L50.844 308.922C50.3494 309.499 49.7313 309.938 48.9896 310.241C48.2616 310.543 47.4442 310.694 46.5377 310.694ZM64.4193 310.694C63.4852 310.694 62.661 310.522 61.9467 310.179C61.2462 309.835 60.6968 309.313 60.2984 308.613C59.9138 307.899 59.7215 307.006 59.7215 305.934V299.65H61.6995V305.708C61.6995 306.779 61.9536 307.583 62.4619 308.118C62.9838 308.654 63.7118 308.922 64.6459 308.922C65.3327 308.922 65.9302 308.785 66.4385 308.51C66.9467 308.221 67.3382 307.809 67.6129 307.274C67.8876 306.724 68.025 306.065 68.025 305.296V299.65H70.003V310.57H68.128V307.624L68.4371 308.407C68.0799 309.135 67.5442 309.698 66.83 310.096C66.1157 310.495 65.3121 310.694 64.4193 310.694ZM87.4292 299.547C88.3083 299.547 89.0844 299.719 89.7575 300.062C90.4306 300.406 90.9525 300.928 91.3234 301.628C91.708 302.329 91.9003 303.215 91.9003 304.286V310.57H89.9223V304.513C89.9223 303.455 89.6751 302.658 89.1806 302.123C88.6861 301.587 87.9924 301.319 87.0996 301.319C86.4402 301.319 85.8633 301.456 85.3688 301.731C84.8743 302.006 84.4897 302.411 84.215 302.947C83.954 303.482 83.8235 304.149 83.8235 304.945V310.57H81.8455V304.513C81.8455 303.455 81.5982 302.658 81.1037 302.123C80.6229 301.587 79.9293 301.319 79.0227 301.319C78.3771 301.319 77.807 301.456 77.3125 301.731C76.818 302.006 76.4334 302.411 76.1587 302.947C75.884 303.482 75.7466 304.149 75.7466 304.945V310.57H73.7686V299.65H75.6642V302.555L75.3551 301.814C75.6985 301.099 76.2274 300.543 76.9417 300.145C77.6559 299.746 78.487 299.547 79.4348 299.547C80.4787 299.547 81.3784 299.808 82.1339 300.33C82.8894 300.838 83.3839 301.614 83.6174 302.658L82.8139 302.329C83.1435 301.491 83.7205 300.818 84.5446 300.309C85.3688 299.801 86.3303 299.547 87.4292 299.547ZM105.833 310.694C104.72 310.694 103.724 310.454 102.845 309.973C101.98 309.492 101.3 308.833 100.805 307.995C100.311 307.157 100.064 306.195 100.064 305.11C100.064 304.025 100.311 303.063 100.805 302.226C101.3 301.388 101.98 300.735 102.845 300.268C103.724 299.787 104.72 299.547 105.833 299.547C106.822 299.547 107.701 299.746 108.47 300.145C109.253 300.529 109.858 301.106 110.283 301.875L108.779 302.844C108.422 302.308 107.983 301.917 107.461 301.669C106.952 301.408 106.403 301.278 105.812 301.278C105.098 301.278 104.459 301.436 103.896 301.752C103.333 302.068 102.886 302.514 102.557 303.091C102.227 303.654 102.062 304.327 102.062 305.11C102.062 305.893 102.227 306.573 102.557 307.15C102.886 307.727 103.333 308.173 103.896 308.489C104.459 308.805 105.098 308.963 105.812 308.963C106.403 308.963 106.952 308.84 107.461 308.592C107.983 308.331 108.422 307.933 108.779 307.397L110.283 308.345C109.858 309.101 109.253 309.684 108.47 310.096C107.701 310.495 106.822 310.694 105.833 310.694ZM117.36 310.694C116.262 310.694 115.286 310.454 114.435 309.973C113.583 309.492 112.91 308.833 112.415 307.995C111.921 307.143 111.674 306.182 111.674 305.11C111.674 304.025 111.921 303.063 112.415 302.226C112.91 301.388 113.583 300.735 114.435 300.268C115.286 299.787 116.262 299.547 117.36 299.547C118.446 299.547 119.414 299.787 120.266 300.268C121.131 300.735 121.804 301.388 122.285 302.226C122.779 303.05 123.027 304.011 123.027 305.11C123.027 306.195 122.779 307.157 122.285 307.995C121.804 308.833 121.131 309.492 120.266 309.973C119.414 310.454 118.446 310.694 117.36 310.694ZM117.36 308.963C118.061 308.963 118.686 308.805 119.235 308.489C119.799 308.173 120.238 307.727 120.554 307.15C120.87 306.559 121.028 305.879 121.028 305.11C121.028 304.327 120.87 303.654 120.554 303.091C120.238 302.514 119.799 302.068 119.235 301.752C118.686 301.436 118.061 301.278 117.36 301.278C116.66 301.278 116.035 301.436 115.485 301.752C114.936 302.068 114.496 302.514 114.167 303.091C113.837 303.654 113.672 304.327 113.672 305.11C113.672 305.879 113.837 306.559 114.167 307.15C114.496 307.727 114.936 308.173 115.485 308.489C116.035 308.805 116.66 308.963 117.36 308.963ZM125.762 310.57V295.282H127.74V310.57H125.762ZM136.379 310.694C135.212 310.694 134.182 310.454 133.289 309.973C132.41 309.492 131.723 308.833 131.228 307.995C130.748 307.157 130.507 306.195 130.507 305.11C130.507 304.025 130.741 303.063 131.208 302.226C131.689 301.388 132.341 300.735 133.165 300.268C134.003 299.787 134.944 299.547 135.988 299.547C137.046 299.547 137.98 299.781 138.79 300.248C139.601 300.715 140.232 301.374 140.686 302.226C141.153 303.063 141.386 304.046 141.386 305.172C141.386 305.254 141.379 305.351 141.366 305.46C141.366 305.57 141.359 305.673 141.345 305.77H132.053V304.348H140.315L139.511 304.842C139.525 304.142 139.381 303.517 139.079 302.967C138.776 302.418 138.357 301.992 137.822 301.69C137.3 301.374 136.689 301.216 135.988 301.216C135.301 301.216 134.69 301.374 134.154 301.69C133.618 301.992 133.2 302.425 132.897 302.988C132.595 303.537 132.444 304.169 132.444 304.884V305.213C132.444 305.941 132.609 306.594 132.939 307.171C133.282 307.734 133.756 308.173 134.36 308.489C134.965 308.805 135.658 308.963 136.441 308.963C137.087 308.963 137.671 308.853 138.193 308.634C138.728 308.414 139.195 308.084 139.594 307.645L140.686 308.922C140.191 309.499 139.573 309.938 138.831 310.241C138.103 310.543 137.286 310.694 136.379 310.694ZM147.883 310.694C146.784 310.694 145.932 310.399 145.328 309.808C144.724 309.217 144.421 308.373 144.421 307.274V297.26H146.399V307.191C146.399 307.782 146.544 308.235 146.832 308.551C147.134 308.867 147.56 309.025 148.11 309.025C148.728 309.025 149.243 308.853 149.655 308.51L150.273 309.932C149.971 310.193 149.607 310.385 149.181 310.508C148.769 310.632 148.336 310.694 147.883 310.694ZM142.567 301.278V299.65H149.531V301.278H142.567ZM152.664 310.57V299.65H154.642V310.57H152.664ZM153.653 297.548C153.269 297.548 152.946 297.425 152.685 297.178C152.438 296.93 152.314 296.628 152.314 296.271C152.314 295.9 152.438 295.591 152.685 295.344C152.946 295.097 153.269 294.973 153.653 294.973C154.038 294.973 154.354 295.097 154.601 295.344C154.862 295.577 154.993 295.873 154.993 296.23C154.993 296.601 154.869 296.917 154.622 297.178C154.375 297.425 154.052 297.548 153.653 297.548ZM161.283 310.57L156.503 299.65H158.563L162.808 309.54H161.819L166.146 299.65H168.082L163.302 310.57H161.283ZM174.304 310.694C173.205 310.694 172.23 310.454 171.378 309.973C170.526 309.492 169.853 308.833 169.359 307.995C168.864 307.143 168.617 306.182 168.617 305.11C168.617 304.025 168.864 303.063 169.359 302.226C169.853 301.388 170.526 300.735 171.378 300.268C172.23 299.787 173.205 299.547 174.304 299.547C175.389 299.547 176.357 299.787 177.209 300.268C178.074 300.735 178.747 301.388 179.228 302.226C179.723 303.05 179.97 304.011 179.97 305.11C179.97 306.195 179.723 307.157 179.228 307.995C178.747 308.833 178.074 309.492 177.209 309.973C176.357 310.454 175.389 310.694 174.304 310.694ZM174.304 308.963C175.004 308.963 175.629 308.805 176.179 308.489C176.742 308.173 177.182 307.727 177.498 307.15C177.813 306.559 177.971 305.879 177.971 305.11C177.971 304.327 177.813 303.654 177.498 303.091C177.182 302.514 176.742 302.068 176.179 301.752C175.629 301.436 175.004 301.278 174.304 301.278C173.603 301.278 172.978 301.436 172.429 301.752C171.879 302.068 171.44 302.514 171.11 303.091C170.781 303.654 170.616 304.327 170.616 305.11C170.616 305.879 170.781 306.559 171.11 307.15C171.44 307.727 171.879 308.173 172.429 308.489C172.978 308.805 173.603 308.963 174.304 308.963ZM188.527 310.57V298.682C188.527 297.61 188.836 296.759 189.455 296.127C190.086 295.481 190.979 295.158 192.133 295.158C192.559 295.158 192.964 295.213 193.349 295.323C193.747 295.419 194.084 295.577 194.358 295.797L193.761 297.301C193.555 297.136 193.321 297.013 193.06 296.93C192.799 296.834 192.525 296.786 192.236 296.786C191.659 296.786 191.22 296.951 190.917 297.281C190.615 297.596 190.464 298.07 190.464 298.702V300.165L190.505 301.072V310.57H188.527ZM186.673 301.278V299.65H193.637V301.278H186.673ZM200.019 310.694C198.92 310.694 197.945 310.454 197.093 309.973C196.241 309.492 195.568 308.833 195.074 307.995C194.579 307.143 194.332 306.182 194.332 305.11C194.332 304.025 194.579 303.063 195.074 302.226C195.568 301.388 196.241 300.735 197.093 300.268C197.945 299.787 198.92 299.547 200.019 299.547C201.104 299.547 202.072 299.787 202.924 300.268C203.789 300.735 204.463 301.388 204.943 302.226C205.438 303.05 205.685 304.011 205.685 305.11C205.685 306.195 205.438 307.157 204.943 307.995C204.463 308.833 203.789 309.492 202.924 309.973C202.072 310.454 201.104 310.694 200.019 310.694ZM200.019 308.963C200.719 308.963 201.344 308.805 201.894 308.489C202.457 308.173 202.897 307.727 203.213 307.15C203.529 306.559 203.686 305.879 203.686 305.11C203.686 304.327 203.529 303.654 203.213 303.091C202.897 302.514 202.457 302.068 201.894 301.752C201.344 301.436 200.719 301.278 200.019 301.278C199.318 301.278 198.693 301.436 198.144 301.752C197.594 302.068 197.155 302.514 196.825 303.091C196.496 303.654 196.331 304.327 196.331 305.11C196.331 305.879 196.496 306.559 196.825 307.15C197.155 307.727 197.594 308.173 198.144 308.489C198.693 308.805 199.318 308.963 200.019 308.963ZM208.421 310.57V299.65H210.316V302.617L210.131 301.875C210.433 301.12 210.941 300.543 211.655 300.145C212.37 299.746 213.249 299.547 214.293 299.547V301.463C214.21 301.449 214.128 301.443 214.046 301.443C213.977 301.443 213.908 301.443 213.84 301.443C212.782 301.443 211.944 301.759 211.326 302.39C210.708 303.022 210.399 303.936 210.399 305.131V310.57H208.421ZM220.923 310.694C219.824 310.694 218.973 310.399 218.368 309.808C217.764 309.217 217.462 308.373 217.462 307.274V297.26H219.44V307.191C219.44 307.782 219.584 308.235 219.873 308.551C220.175 308.867 220.601 309.025 221.15 309.025C221.768 309.025 222.283 308.853 222.695 308.51L223.313 309.932C223.011 310.193 222.647 310.385 222.221 310.508C221.809 310.632 221.377 310.694 220.923 310.694ZM215.607 301.278V299.65H222.572V301.278H215.607ZM230.205 310.694C229.038 310.694 228.008 310.454 227.115 309.973C226.236 309.492 225.549 308.833 225.054 307.995C224.573 307.157 224.333 306.195 224.333 305.11C224.333 304.025 224.567 303.063 225.034 302.226C225.514 301.388 226.167 300.735 226.991 300.268C227.829 299.787 228.77 299.547 229.814 299.547C230.871 299.547 231.806 299.781 232.616 300.248C233.426 300.715 234.058 301.374 234.512 302.226C234.979 303.063 235.212 304.046 235.212 305.172C235.212 305.254 235.205 305.351 235.192 305.46C235.192 305.57 235.185 305.673 235.171 305.77H225.878V304.348H234.141L233.337 304.842C233.351 304.142 233.207 303.517 232.904 302.967C232.602 302.418 232.183 301.992 231.648 301.69C231.126 301.374 230.514 301.216 229.814 301.216C229.127 301.216 228.516 301.374 227.98 301.69C227.444 301.992 227.025 302.425 226.723 302.988C226.421 303.537 226.27 304.169 226.27 304.884V305.213C226.27 305.941 226.435 306.594 226.764 307.171C227.108 307.734 227.582 308.173 228.186 308.489C228.79 308.805 229.484 308.963 230.267 308.963C230.913 308.963 231.496 308.853 232.018 308.634C232.554 308.414 233.021 308.084 233.42 307.645L234.512 308.922C234.017 309.499 233.399 309.938 232.657 310.241C231.929 310.543 231.112 310.694 230.205 310.694ZM238.433 310.694C238.048 310.694 237.718 310.563 237.444 310.302C237.169 310.028 237.032 309.684 237.032 309.272C237.032 308.86 237.169 308.524 237.444 308.263C237.718 308.002 238.048 307.871 238.433 307.871C238.804 307.871 239.119 308.002 239.38 308.263C239.655 308.524 239.793 308.86 239.793 309.272C239.793 309.684 239.655 310.028 239.38 310.302C239.119 310.563 238.804 310.694 238.433 310.694Z" fill="black"/>
<mask id="mask0_1064_3569" style="mask-type:luminance" maskUnits="userSpaceOnUse" x="25" y="25" width="136" height="139">
<path d="M160.715 25.7578H25.7559V163.12H160.715V25.7578Z" fill="white"/>
</mask>
<g mask="url(#mask0_1064_3569)">
<path d="M57.8972 76.5806C57.0603 76.3616 56.2171 76.87 56.006 77.7007C51.2394 96.3742 64.7303 108.338 64.613 108.13C65.1714 108.689 66.1742 108.769 66.8109 108.13L77.7597 97.1783C78.3854 96.5526 78.3291 95.5483 77.7597 94.9788C77.7534 94.9726 77.744 94.971 77.7378 94.9648C77.73 94.9569 77.7284 94.9476 77.7206 94.9413C67.8074 85.7086 77.2513 69.2564 90.0617 73.1281C90.7766 73.3487 91.6589 72.956 91.9545 72.2177L97.7176 57.8023C98.0508 56.9685 97.5627 56.0658 96.8525 55.7811C96.8415 55.7764 96.829 55.7796 96.8181 55.7749C96.6038 55.7514 83.6479 50.5375 70.3901 58.464C69.6533 58.9051 69.4124 59.8594 69.8535 60.5962C70.2947 61.3361 71.2489 61.5739 71.9841 61.1327C78.5997 57.1765 86.8454 56.1081 94.2103 58.2012L89.5705 69.8039C74.6592 66.8301 64.4816 84.6495 74.4808 96.0614L65.7221 104.823C58.8484 97.4489 56.7302 87.4403 59.0173 78.4703C59.2301 77.6381 58.7279 76.7918 57.8972 76.5806Z" fill="#329BD5"/>
<path d="M86.3789 120.753C86.5854 119.919 86.077 119.076 85.2447 118.87C80.9287 117.8 76.9193 115.71 73.5591 112.792L82.346 104.002C89.6593 109.676 100.478 107.949 105.587 99.9506C105.799 100.026 118.18 104.404 117.419 104.135C114.345 110.188 109.093 115.051 102.797 117.618C102.002 117.942 101.62 118.849 101.944 119.644C102.268 120.439 103.175 120.822 103.97 120.497C116.791 115.272 121.135 103.608 120.991 103.815C121.323 102.987 120.874 102.059 120.073 101.776L105.411 96.5904C104.827 96.3839 103.904 96.5967 103.518 97.3319C99.5037 104.949 89.4215 106.486 83.3268 100.755C82.7543 100.217 81.7484 100.202 81.1634 100.788L70.2145 111.741C69.5794 112.376 69.6842 113.409 70.2145 113.939C70.2177 113.942 70.2208 113.942 70.2239 113.945C70.227 113.948 70.227 113.953 70.2302 113.956C74.2052 117.817 79.1375 120.559 84.4954 121.887C85.3214 122.092 86.1708 121.592 86.3789 120.753Z" fill="#329BD5"/>
<path d="M115.61 63.4998C116.258 64.0661 117.239 63.9989 117.803 63.3544C118.368 62.7083 118.304 61.7259 117.658 61.1596C114.617 58.4971 111.15 56.4791 107.355 55.1494C106.769 54.8756 105.619 54.9757 105.239 56.027C104.012 59.0931 99.6335 69.9637 99.4599 70.4752C99.1595 71.3482 99.743 72.2586 100.491 72.4713C108.256 74.6865 112.151 83.5969 108.325 90.8367C107.94 91.5641 108.237 92.6967 109.182 93.0299L123.864 98.2157C124.61 98.4817 125.466 98.1531 125.841 97.2755C125.841 97.2724 125.844 97.2709 125.846 97.2662C125.846 97.2646 125.846 97.2615 125.847 97.2599C127.532 93.3334 128.391 89.1535 128.391 84.8296C128.391 83.9724 127.695 83.2747 126.837 83.2747C125.979 83.2747 125.282 83.9724 125.282 84.8296C125.282 88.2743 124.683 91.6189 123.496 94.7882C122.856 94.563 111.546 90.5661 111.821 90.6631C115.003 82.5786 111.044 73.3865 102.947 70.0857L107.565 58.5784C110.496 59.7626 113.207 61.3958 115.61 63.4998Z" fill="#329BD5"/>
<path d="M51.3115 39.5711C52.9056 42.1695 55.3725 43.5367 57.5595 44.6161C62.5356 47.0674 67.9608 49.6533 71.7997 53.586C72.1047 53.8973 72.5083 54.0553 72.9119 54.0553C74.2776 54.0553 74.9862 52.3971 74.0242 51.4132C69.8818 47.1707 64.2204 44.4299 58.9345 41.8269C56.6396 40.6959 55.008 39.6509 53.9599 37.9457C53.511 37.2136 52.552 36.9837 51.823 37.4326C51.0909 37.8832 50.8625 38.839 51.3115 39.5711Z" fill="#329BD5"/>
<path d="M41.1463 52.9179C40.5393 52.3094 39.5554 52.3094 38.9468 52.9132C38.3383 53.5186 38.3367 54.5026 38.9421 55.1127C40.2734 56.4502 41.3747 58.2445 42.5417 60.1436C46.4901 66.5809 47.9653 67.532 53.0541 69.5641C54.2242 70.0303 54.9 70.6888 55.8355 71.6009C57.7377 73.4483 59.3787 74.7733 59.7839 75.1347C61.6454 76.7397 64.6537 79.3303 67.5023 79.3303C69.2794 79.3303 70.6263 78.3275 71.4523 76.7694C73.6658 72.5926 69.694 67.9778 68.4237 66.6638C66.6357 64.8085 61.8363 61.0885 61.8034 59.3787C61.7987 59.2222 61.8848 59.0689 61.8504 59.0642C62.6982 58.9313 63.2786 58.1366 63.1456 57.2887C63.0142 56.4393 62.218 55.8667 61.3701 55.9919C59.8339 56.2328 58.6591 57.7486 58.6951 59.4428C58.7686 62.9344 63.6713 66.2148 66.1883 68.8241C67.9622 70.6607 69.6861 73.4624 68.7053 75.3115C68.2908 76.0952 67.8903 76.1719 67.7401 76.2C66.5121 76.4284 64.6036 75.1848 61.2465 72.2939C57.198 68.8852 56.7788 67.7009 54.207 66.6763C52.5832 66.0271 50.8937 65.3842 49.5656 64.286C46.3728 61.6438 44.4658 56.2562 41.1463 52.9179Z" fill="#329BD5"/>
<mask id="mask1_1064_3569" style="mask-type:luminance" maskUnits="userSpaceOnUse" x="25" y="26" width="27" height="28">
<path d="M25.8674 26.5586H51.787V53.3902H25.8674V26.5586Z" fill="white"/>
</mask>
<g mask="url(#mask1_1064_3569)">
<path d="M35.1138 49.9919C34.7133 50.0216 35.1717 50.2891 28.6046 45.3489C27.9178 44.8358 26.9448 44.975 26.4286 45.6602C25.9124 46.347 26.0532 47.3216 26.7383 47.8378L32.4951 52.1554C34.2143 53.5382 36.5546 53.374 37.756 51.8738L50.8902 35.5045C52.0588 34.0497 51.8069 31.7329 49.9876 30.2749L45.4745 26.8787C44.7908 26.3625 43.8147 26.5002 43.2985 27.1885C42.7838 27.8737 42.9214 28.8498 43.6066 29.366C47.821 32.6402 48.3482 32.695 48.4811 33.3301C48.503 33.4302 48.4968 33.5194 48.467 33.5569C34.3958 51.0087 35.4376 49.9888 35.1138 49.9919Z" fill="#329BD5"/>
</g>
<path d="M127.219 43.5209C122.32 45.9332 116.768 48.6676 112.718 52.8163C112.119 53.431 112.13 54.415 112.745 55.0142C113.361 55.6164 114.343 55.6008 114.942 54.9876C118.784 51.0533 124.191 48.4768 129.184 46.0192C131.371 44.9398 133.838 43.571 135.432 40.9742C135.881 40.2421 135.653 39.2847 134.921 38.8357C134.19 38.3852 133.233 38.6167 132.784 39.3473C131.354 41.6766 128.907 42.5995 127.219 43.5209Z" fill="#329BD5"/>
<path d="M145.599 54.3216C144.011 55.9157 142.762 57.9525 141.555 59.9204C137.96 65.7757 136.99 66.3014 132.538 68.0769C130.42 68.9232 129.417 70.1653 128.007 71.4762C126.632 72.7558 125.642 73.5693 124.932 74.1794C123.638 75.2932 120.628 77.9119 119.005 77.6022C118.853 77.574 118.454 77.4989 118.038 76.7152C117.057 74.8661 118.781 72.0644 120.555 70.2263C123.064 67.6248 127.975 64.3381 128.048 60.8481C128.084 59.1508 126.909 57.6349 125.373 57.394C124.524 57.2642 123.69 57.8273 123.557 58.6768C123.426 59.5246 123.967 60.3052 124.815 60.4382C124.858 60.4742 124.945 60.6259 124.94 60.7839C124.907 62.4844 120.123 66.1981 118.32 68.0659C117.049 69.3816 113.079 73.9964 115.291 78.1732C116.125 79.7438 117.479 80.7324 119.241 80.7324C122.091 80.7324 125.099 78.1403 126.961 76.5353C128.159 75.5044 129.25 74.6205 130.909 73.0014C131.845 72.091 132.521 71.4324 133.689 70.9662C138.78 68.9357 140.253 67.9846 144.203 61.5458C145.369 59.6482 146.47 57.8524 147.801 56.5148C148.407 55.9063 148.405 54.9223 147.796 54.3154C147.188 53.71 146.204 53.7131 145.599 54.3216Z" fill="#329BD5"/>
<mask id="mask2_1064_3569" style="mask-type:luminance" maskUnits="userSpaceOnUse" x="135" y="27" width="26" height="28">
<path d="M135.085 27.7617H160.573V54.5933H135.085V27.7617Z" fill="white"/>
</mask>
<g mask="url(#mask2_1064_3569)">
<path d="M142.907 30.9399C143.594 30.4237 143.732 29.4491 143.215 28.7624C142.697 28.0741 141.721 27.9364 141.039 28.4542L136.717 31.708C134.99 33.0925 134.657 35.4171 135.853 36.9048L148.988 53.2772C150.239 54.8368 152.612 54.8728 154.208 53.59L159.702 49.468C160.387 48.9518 160.528 47.9772 160.012 47.2904C159.499 46.6021 158.525 46.4676 157.836 46.9791L152.301 51.134C152.049 51.3358 151.547 51.5016 151.412 51.3311C137.426 33.8121 138.195 35.0479 138.263 34.7335C138.396 34.0999 138.835 34.1093 142.907 30.9399Z" fill="#329BD5"/>
</g>
<path d="M116.65 135.145C116.94 137.569 117.409 140.352 119.328 142.717C119.868 143.386 120.851 143.487 121.514 142.947C122.18 142.406 122.282 141.426 121.742 140.76C120.483 139.205 120.04 137.317 119.737 134.776C119.039 128.919 118.34 122.67 115.718 117.351C115.339 116.58 114.406 116.267 113.637 116.644C112.866 117.024 112.55 117.956 112.929 118.726C115.363 123.662 115.995 129.633 116.65 135.145Z" fill="#329BD5"/>
<path d="M91.4159 114.422C93.4777 114.103 95.5551 116.67 96.6971 118.955C98.3663 122.295 99.7757 127.911 103.047 129.144C104.636 129.738 106.454 129.136 107.192 127.769C107.601 127.013 107.344 126.038 106.588 125.63C105.834 125.223 104.916 125.474 104.509 126.228C104.459 126.259 104.289 126.289 104.142 126.234C102.521 125.621 100.636 119.884 99.4769 117.564C98.6604 115.928 95.6146 110.638 90.956 111.346C89.0084 111.639 88.0385 112.666 87.5676 113.48C85.9485 116.277 87.7178 120.596 88.8738 123.561C90.7667 128.588 91.5489 129.089 91.6302 131.101C91.8523 136.562 92.2513 138.272 97.0131 144.15C98.4163 145.882 99.7413 147.518 100.559 149.219C100.932 149.992 101.858 150.319 102.634 149.946C103.408 149.574 103.734 148.645 103.361 147.87C102.385 145.843 100.883 143.988 99.4284 142.193C95.1015 136.853 94.931 135.762 94.737 130.972C94.6197 128.11 93.7264 127.636 91.7819 122.464C90.0909 118.124 89.6591 116.075 90.2583 115.038C90.3349 114.907 90.5399 114.553 91.4159 114.422Z" fill="#329BD5"/>
<path d="M124.053 147.399C124.169 147.37 124.538 147.559 124.69 147.992L127.053 155.487C127.311 156.305 128.183 156.757 129.002 156.502C129.821 156.244 130.276 155.37 130.018 154.551L127.638 147.01C126.92 144.965 124.848 143.818 123.024 144.466L103.224 151.412C101.307 152.083 100.521 154.332 101.19 156.233L102.772 161.262C103.025 162.073 103.889 162.539 104.721 162.279C105.539 162.021 105.994 161.15 105.736 160.33C104.209 155.129 103.803 155.043 104.25 154.347L124.053 147.399Z" fill="#329BD5"/>
<path d="M35.3738 137.959C35.3738 142.174 38.7997 145.601 43.0109 145.601C47.2237 145.601 50.6496 142.174 50.6496 137.959C50.6496 133.958 47.5491 130.702 43.6304 130.382C43.7055 129.819 43.6523 117.862 43.6695 101.682C43.6695 101.398 43.9026 101.165 44.1888 101.165H52.4376C53.2964 101.165 53.9926 100.468 53.9926 99.6096C53.9926 98.7524 53.2964 98.0547 52.4376 98.0547H44.1888C42.1881 98.0547 40.5611 99.6832 40.5611 101.682C40.6096 132.001 40.4595 130.16 40.6706 130.724C37.6077 131.719 35.3738 134.568 35.3738 137.959ZM43.0109 133.428C45.5091 133.428 47.5412 135.461 47.5412 137.959C47.5412 140.458 45.5091 142.491 43.0109 142.491C40.5142 142.491 38.4821 140.458 38.4821 137.959C38.4821 135.461 40.5142 133.428 43.0109 133.428Z" fill="#329BD5"/>
<path d="M148.255 106.949V93.6316C148.255 91.6308 146.626 90.0039 144.627 90.0039H131.449C130.59 90.0039 129.894 90.7 129.894 91.5589C129.894 92.4161 130.59 93.1138 131.449 93.1138H144.627C144.914 93.1138 145.145 93.3453 145.145 93.6316V106.949C141.677 107.67 139.063 110.749 139.063 114.43C139.063 118.644 142.489 122.071 146.7 122.071C150.913 122.071 154.339 118.644 154.339 114.43C154.339 110.749 151.723 107.67 148.255 106.949ZM146.7 118.961C144.203 118.961 142.171 116.928 142.171 114.43C142.171 111.931 144.203 109.898 146.7 109.898C149.198 109.898 151.23 111.931 151.23 114.43C151.23 116.928 149.198 118.961 146.7 118.961Z" fill="#329BD5"/>
</g>
<defs>
<filter id="filter0_d_1064_3569" x="5.91278e-05" y="0" width="348.555" height="343.402" filterUnits="userSpaceOnUse" color-interpolation-filters="sRGB">
<feFlood flood-opacity="0" result="BackgroundImageFix"/>
<feColorMatrix in="SourceAlpha" type="matrix" values="0 0 0 0 0 0 0 0 0 0 0 0 0 0 0 0 0 0 127 0" result="hardAlpha"/>
<feOffset dx="-5.15106"/>
<feComposite in2="hardAlpha" operator="out"/>
<feColorMatrix type="matrix" values="0 0 0 0 0 0 0 0 0 0 0 0 0 0 0 0 0 0 1 0"/>
<feBlend mode="normal" in2="BackgroundImageFix" result="effect1_dropShadow_1064_3569"/>
<feBlend mode="normal" in="SourceGraphic" in2="effect1_dropShadow_1064_3569" result="shape"/>
</filter>
</defs>
</svg>
