<svg width="349" height="344" viewBox="0 0 349 344" fill="none" xmlns="http://www.w3.org/2000/svg">
<g filter="url(#filter0_d_1064_3680)">
<rect x="5.15112" width="343.404" height="343.404" fill="white"/>
</g>
<path d="M45.4941 205.474H61.6959V211.532H45.4941V205.474ZM46.071 219.32H64.3882V225.57H38.3307V191.917H63.7632V198.167H46.071V219.32ZM46.696 189.176L53.1864 182.253H61.2632L52.5614 189.176H46.696ZM80.3515 225.955C77.3067 225.955 74.9349 225.186 73.2362 223.647C71.5375 222.077 70.6881 219.753 70.6881 216.676V193.984H78.1881V216.58C78.1881 217.67 78.4765 218.519 79.0534 219.128C79.6304 219.705 80.4156 219.993 81.4092 219.993C82.5951 219.993 83.6047 219.673 84.438 219.032L86.4572 224.32C85.688 224.865 84.7585 225.282 83.6688 225.57C82.6111 225.827 81.5054 225.955 80.3515 225.955ZM66.6978 206.051V200.282H84.6303V206.051H66.6978ZM90.6673 225.57V199.705H98.1673V225.57H90.6673ZM94.4173 196.099C93.0391 196.099 91.9173 195.699 91.0519 194.897C90.1866 194.096 89.7539 193.103 89.7539 191.917C89.7539 190.731 90.1866 189.737 91.0519 188.936C91.9173 188.135 93.0391 187.734 94.4173 187.734C95.7955 187.734 96.9173 188.119 97.7827 188.888C98.648 189.625 99.0807 190.587 99.0807 191.772C99.0807 193.022 98.648 194.064 97.7827 194.897C96.9493 195.699 95.8275 196.099 94.4173 196.099ZM117.628 225.955C114.839 225.955 112.355 225.394 110.176 224.272C107.996 223.118 106.282 221.532 105.032 219.513C103.814 217.493 103.205 215.202 103.205 212.638C103.205 210.042 103.814 207.75 105.032 205.763C106.282 203.744 107.996 202.173 110.176 201.051C112.355 199.897 114.839 199.32 117.628 199.32C120.352 199.32 122.724 199.897 124.743 201.051C126.762 202.173 128.253 203.792 129.214 205.907L123.397 209.032C122.724 207.814 121.875 206.917 120.849 206.34C119.855 205.763 118.766 205.474 117.58 205.474C116.298 205.474 115.144 205.763 114.118 206.34C113.093 206.917 112.275 207.734 111.666 208.792C111.089 209.849 110.801 211.131 110.801 212.638C110.801 214.144 111.089 215.426 111.666 216.484C112.275 217.542 113.093 218.359 114.118 218.936C115.144 219.513 116.298 219.801 117.58 219.801C118.766 219.801 119.855 219.529 120.849 218.984C121.875 218.407 122.724 217.493 123.397 216.243L129.214 219.417C128.253 221.5 126.762 223.118 124.743 224.272C122.724 225.394 120.352 225.955 117.628 225.955ZM149.398 225.57V220.522L148.917 219.417V210.378C148.917 208.776 148.42 207.526 147.427 206.628C146.465 205.731 144.975 205.282 142.956 205.282C141.577 205.282 140.215 205.506 138.869 205.955C137.555 206.372 136.433 206.949 135.504 207.686L132.811 202.445C134.222 201.452 135.92 200.683 137.907 200.138C139.895 199.593 141.914 199.32 143.965 199.32C147.907 199.32 150.968 200.25 153.148 202.109C155.327 203.968 156.417 206.869 156.417 210.811V225.57H149.398ZM141.513 225.955C139.494 225.955 137.763 225.618 136.321 224.945C134.879 224.24 133.773 223.295 133.004 222.109C132.234 220.923 131.85 219.593 131.85 218.118C131.85 216.58 132.218 215.234 132.956 214.08C133.725 212.926 134.927 212.029 136.561 211.388C138.196 210.715 140.327 210.378 142.956 210.378H149.83V214.753H143.773C142.01 214.753 140.792 215.042 140.119 215.618C139.478 216.195 139.157 216.917 139.157 217.782C139.157 218.743 139.526 219.513 140.263 220.09C141.032 220.634 142.074 220.907 143.388 220.907C144.638 220.907 145.76 220.618 146.754 220.042C147.747 219.433 148.468 218.551 148.917 217.397L150.071 220.859C149.526 222.525 148.532 223.791 147.09 224.657C145.648 225.522 143.789 225.955 141.513 225.955ZM34.3197 250.57L40.8513 236.147H42.8911L49.4433 250.57H47.2798L41.4488 237.301H42.273L36.442 250.57H34.3197ZM37.1013 246.965L37.6576 245.316H45.7757L46.3732 246.965H37.1013ZM55.9859 254.691C54.9832 254.691 54.0079 254.547 53.0601 254.258C52.126 253.984 51.3637 253.585 50.773 253.063L51.7208 251.539C52.2291 251.978 52.8541 252.322 53.5958 252.569C54.3376 252.83 55.1137 252.96 55.9241 252.96C57.2153 252.96 58.1631 252.658 58.7675 252.054C59.3719 251.449 59.6741 250.529 59.6741 249.293V246.985L59.8801 244.822L59.7771 242.638V239.65H61.6521V249.087C61.6521 251.01 61.1713 252.425 60.2098 253.331C59.2482 254.238 57.8403 254.691 55.9859 254.691ZM55.7387 250.117C54.681 250.117 53.7332 249.897 52.8953 249.458C52.0711 249.004 51.4118 248.379 50.9173 247.583C50.4365 246.786 50.1961 245.866 50.1961 244.822C50.1961 243.764 50.4365 242.844 50.9173 242.061C51.4118 241.264 52.0711 240.646 52.8953 240.206C53.7332 239.767 54.681 239.547 55.7387 239.547C56.6727 239.547 57.5244 239.739 58.2936 240.124C59.0628 240.495 59.6741 241.072 60.1274 241.855C60.5944 242.638 60.8279 243.627 60.8279 244.822C60.8279 246.003 60.5944 246.985 60.1274 247.768C59.6741 248.551 59.0628 249.142 58.2936 249.54C57.5244 249.925 56.6727 250.117 55.7387 250.117ZM55.9653 248.386C56.6933 248.386 57.3389 248.235 57.9021 247.933C58.4653 247.631 58.9048 247.212 59.2208 246.676C59.5504 246.14 59.7153 245.522 59.7153 244.822C59.7153 244.121 59.5504 243.503 59.2208 242.967C58.9048 242.432 58.4653 242.02 57.9021 241.731C57.3389 241.429 56.6933 241.278 55.9653 241.278C55.2373 241.278 54.5848 241.429 54.0079 241.731C53.4447 242.02 52.9983 242.432 52.6686 242.967C52.3527 243.503 52.1947 244.121 52.1947 244.822C52.1947 245.522 52.3527 246.14 52.6686 246.676C52.9983 247.212 53.4447 247.631 54.0079 247.933C54.5848 248.235 55.2373 248.386 55.9653 248.386ZM65.4315 250.57V239.65H67.4095V250.57H65.4315ZM66.4205 237.548C66.0359 237.548 65.7131 237.425 65.4521 237.178C65.2049 236.93 65.0812 236.628 65.0812 236.271C65.0812 235.9 65.2049 235.591 65.4521 235.344C65.7131 235.097 66.0359 234.973 66.4205 234.973C66.8051 234.973 67.1211 235.097 67.3683 235.344C67.6293 235.577 67.7598 235.873 67.7598 236.23C67.7598 236.601 67.6362 236.917 67.3889 237.178C67.1417 237.425 66.8189 237.548 66.4205 237.548ZM84.8468 239.547C85.7259 239.547 86.502 239.719 87.1751 240.062C87.8482 240.406 88.3702 240.928 88.741 241.628C89.1257 242.329 89.318 243.215 89.318 244.286V250.57H87.34V244.513C87.34 243.455 87.0927 242.658 86.5982 242.123C86.1037 241.587 85.41 241.319 84.5172 241.319C83.8578 241.319 83.2809 241.456 82.7864 241.731C82.2919 242.006 81.9073 242.411 81.6326 242.947C81.3716 243.482 81.2411 244.149 81.2411 244.945V250.57H79.2631V244.513C79.2631 243.455 79.0158 242.658 78.5213 242.123C78.0406 241.587 77.3469 241.319 76.4403 241.319C75.7947 241.319 75.2246 241.456 74.7301 241.731C74.2356 242.006 73.851 242.411 73.5763 242.947C73.3016 243.482 73.1642 244.149 73.1642 244.945V250.57H71.1862V239.65H73.0818V242.555L72.7727 241.814C73.1161 241.099 73.645 240.543 74.3593 240.145C75.0735 239.746 75.9046 239.547 76.8524 239.547C77.8963 239.547 78.7961 239.808 79.5515 240.33C80.307 240.838 80.8015 241.614 81.035 242.658L80.2315 242.329C80.5611 241.491 81.1381 240.818 81.9622 240.309C82.7864 239.801 83.7479 239.547 84.8468 239.547ZM97.6347 250.694C96.5358 250.694 95.5605 250.454 94.7089 249.973C93.8572 249.492 93.1842 248.833 92.6897 247.995C92.1951 247.143 91.9479 246.182 91.9479 245.11C91.9479 244.025 92.1951 243.063 92.6897 242.226C93.1842 241.388 93.8572 240.735 94.7089 240.268C95.5605 239.787 96.5358 239.547 97.6347 239.547C98.7198 239.547 99.6882 239.787 100.54 240.268C101.405 240.735 102.078 241.388 102.559 242.226C103.054 243.05 103.301 244.011 103.301 245.11C103.301 246.195 103.054 247.157 102.559 247.995C102.078 248.833 101.405 249.492 100.54 249.973C99.6882 250.454 98.7198 250.694 97.6347 250.694ZM97.6347 248.963C98.3352 248.963 98.9602 248.805 99.5097 248.489C100.073 248.173 100.512 247.727 100.828 247.15C101.144 246.559 101.302 245.879 101.302 245.11C101.302 244.327 101.144 243.654 100.828 243.091C100.512 242.514 100.073 242.068 99.5097 241.752C98.9602 241.436 98.3352 241.278 97.6347 241.278C96.9341 241.278 96.3091 241.436 95.7597 241.752C95.2102 242.068 94.7707 242.514 94.441 243.091C94.1113 243.654 93.9465 244.327 93.9465 245.11C93.9465 245.879 94.1113 246.559 94.441 247.15C94.7707 247.727 95.2102 248.173 95.7597 248.489C96.3091 248.805 96.9341 248.963 97.6347 248.963ZM109.168 250.694C108.262 250.694 107.396 250.57 106.572 250.323C105.762 250.076 105.123 249.774 104.656 249.416L105.48 247.851C105.947 248.166 106.524 248.434 107.211 248.654C107.898 248.874 108.598 248.984 109.312 248.984C110.233 248.984 110.892 248.853 111.29 248.592C111.703 248.331 111.909 247.967 111.909 247.5C111.909 247.157 111.785 246.889 111.538 246.697C111.29 246.504 110.961 246.36 110.549 246.264C110.15 246.168 109.704 246.085 109.209 246.017C108.715 245.934 108.22 245.838 107.726 245.728C107.231 245.605 106.778 245.44 106.366 245.234C105.954 245.014 105.624 244.719 105.377 244.348C105.13 243.963 105.006 243.455 105.006 242.823C105.006 242.164 105.192 241.587 105.562 241.092C105.933 240.598 106.455 240.22 107.128 239.959C107.815 239.684 108.626 239.547 109.56 239.547C110.274 239.547 110.995 239.636 111.723 239.815C112.465 239.98 113.069 240.22 113.536 240.536L112.692 242.102C112.197 241.772 111.682 241.546 111.146 241.422C110.611 241.298 110.075 241.237 109.539 241.237C108.674 241.237 108.028 241.381 107.602 241.669C107.176 241.944 106.964 242.301 106.964 242.741C106.964 243.112 107.087 243.4 107.334 243.606C107.595 243.798 107.925 243.949 108.323 244.059C108.736 244.169 109.189 244.265 109.683 244.348C110.178 244.417 110.672 244.513 111.167 244.636C111.661 244.746 112.108 244.904 112.506 245.11C112.918 245.316 113.248 245.605 113.495 245.976C113.756 246.346 113.887 246.841 113.887 247.459C113.887 248.118 113.694 248.688 113.31 249.169C112.925 249.65 112.382 250.028 111.682 250.302C110.981 250.563 110.143 250.694 109.168 250.694ZM126.652 250.694C125.539 250.694 124.543 250.454 123.664 249.973C122.799 249.492 122.119 248.833 121.624 247.995C121.13 247.157 120.882 246.195 120.882 245.11C120.882 244.025 121.13 243.063 121.624 242.226C122.119 241.388 122.799 240.735 123.664 240.268C124.543 239.787 125.539 239.547 126.652 239.547C127.641 239.547 128.52 239.746 129.289 240.145C130.072 240.529 130.676 241.106 131.102 241.875L129.598 242.844C129.241 242.308 128.801 241.917 128.279 241.669C127.771 241.408 127.222 241.278 126.631 241.278C125.917 241.278 125.278 241.436 124.715 241.752C124.152 242.068 123.705 242.514 123.376 243.091C123.046 243.654 122.881 244.327 122.881 245.11C122.881 245.893 123.046 246.573 123.376 247.15C123.705 247.727 124.152 248.173 124.715 248.489C125.278 248.805 125.917 248.963 126.631 248.963C127.222 248.963 127.771 248.84 128.279 248.592C128.801 248.331 129.241 247.933 129.598 247.397L131.102 248.345C130.676 249.101 130.072 249.684 129.289 250.096C128.52 250.495 127.641 250.694 126.652 250.694ZM138.179 250.694C137.08 250.694 136.105 250.454 135.253 249.973C134.402 249.492 133.729 248.833 133.234 247.995C132.74 247.143 132.492 246.182 132.492 245.11C132.492 244.025 132.74 243.063 133.234 242.226C133.729 241.388 134.402 240.735 135.253 240.268C136.105 239.787 137.08 239.547 138.179 239.547C139.264 239.547 140.233 239.787 141.084 240.268C141.95 240.735 142.623 241.388 143.104 242.226C143.598 243.05 143.845 244.011 143.845 245.11C143.845 246.195 143.598 247.157 143.104 247.995C142.623 248.833 141.95 249.492 141.084 249.973C140.233 250.454 139.264 250.694 138.179 250.694ZM138.179 248.963C138.88 248.963 139.505 248.805 140.054 248.489C140.617 248.173 141.057 247.727 141.373 247.15C141.689 246.559 141.847 245.879 141.847 245.11C141.847 244.327 141.689 243.654 141.373 243.091C141.057 242.514 140.617 242.068 140.054 241.752C139.505 241.436 138.88 241.278 138.179 241.278C137.479 241.278 136.854 241.436 136.304 241.752C135.755 242.068 135.315 242.514 134.986 243.091C134.656 243.654 134.491 244.327 134.491 245.11C134.491 245.879 134.656 246.559 134.986 247.15C135.315 247.727 135.755 248.173 136.304 248.489C136.854 248.805 137.479 248.963 138.179 248.963ZM160.242 239.547C161.121 239.547 161.897 239.719 162.57 240.062C163.243 240.406 163.765 240.928 164.136 241.628C164.52 242.329 164.713 243.215 164.713 244.286V250.57H162.735V244.513C162.735 243.455 162.487 242.658 161.993 242.123C161.498 241.587 160.805 241.319 159.912 241.319C159.253 241.319 158.676 241.456 158.181 241.731C157.687 242.006 157.302 242.411 157.027 242.947C156.766 243.482 156.636 244.149 156.636 244.945V250.57H154.658V244.513C154.658 243.455 154.411 242.658 153.916 242.123C153.435 241.587 152.742 241.319 151.835 241.319C151.189 241.319 150.619 241.456 150.125 241.731C149.63 242.006 149.246 242.411 148.971 242.947C148.696 243.482 148.559 244.149 148.559 244.945V250.57H146.581V239.65H148.476V242.555L148.167 241.814C148.511 241.099 149.04 240.543 149.754 240.145C150.468 239.746 151.299 239.547 152.247 239.547C153.291 239.547 154.191 239.808 154.946 240.33C155.702 240.838 156.196 241.614 156.43 242.658L155.626 242.329C155.956 241.491 156.533 240.818 157.357 240.309C158.181 239.801 159.143 239.547 160.242 239.547ZM178.645 250.694C177.532 250.694 176.537 250.454 175.658 249.973C174.792 249.492 174.112 248.833 173.618 247.995C173.123 247.157 172.876 246.195 172.876 245.11C172.876 244.025 173.123 243.063 173.618 242.226C174.112 241.388 174.792 240.735 175.658 240.268C176.537 239.787 177.532 239.547 178.645 239.547C179.634 239.547 180.513 239.746 181.282 240.145C182.065 240.529 182.67 241.106 183.096 241.875L181.592 242.844C181.234 242.308 180.795 241.917 180.273 241.669C179.765 241.408 179.215 241.278 178.625 241.278C177.91 241.278 177.272 241.436 176.708 241.752C176.145 242.068 175.699 242.514 175.369 243.091C175.039 243.654 174.875 244.327 174.875 245.11C174.875 245.893 175.039 246.573 175.369 247.15C175.699 247.727 176.145 248.173 176.708 248.489C177.272 248.805 177.91 248.963 178.625 248.963C179.215 248.963 179.765 248.84 180.273 248.592C180.795 248.331 181.234 247.933 181.592 247.397L183.096 248.345C182.67 249.101 182.065 249.684 181.282 250.096C180.513 250.495 179.634 250.694 178.645 250.694ZM185.516 250.57V235.282H187.494V250.57H185.516ZM198.049 250.57V248.263L197.946 247.83V243.895C197.946 243.057 197.699 242.411 197.204 241.958C196.724 241.491 195.996 241.257 195.02 241.257C194.375 241.257 193.743 241.367 193.125 241.587C192.507 241.793 191.985 242.074 191.559 242.432L190.735 240.948C191.298 240.495 191.971 240.151 192.754 239.918C193.551 239.671 194.382 239.547 195.247 239.547C196.744 239.547 197.898 239.911 198.709 240.639C199.519 241.367 199.924 242.48 199.924 243.977V250.57H198.049ZM194.464 250.694C193.654 250.694 192.939 250.557 192.321 250.282C191.717 250.007 191.25 249.629 190.92 249.149C190.59 248.654 190.426 248.098 190.426 247.48C190.426 246.889 190.563 246.353 190.838 245.873C191.126 245.392 191.586 245.007 192.218 244.719C192.864 244.43 193.729 244.286 194.814 244.286H198.276V245.708H194.897C193.908 245.708 193.242 245.873 192.898 246.202C192.555 246.532 192.383 246.93 192.383 247.397C192.383 247.933 192.596 248.366 193.022 248.695C193.448 249.011 194.038 249.169 194.794 249.169C195.535 249.169 196.181 249.004 196.731 248.675C197.294 248.345 197.699 247.864 197.946 247.232L198.338 248.592C198.077 249.238 197.616 249.753 196.957 250.138C196.298 250.508 195.467 250.694 194.464 250.694ZM203.585 250.57V239.65H205.48V242.617L205.295 241.875C205.597 241.12 206.105 240.543 206.82 240.145C207.534 239.746 208.413 239.547 209.457 239.547V241.463C209.374 241.449 209.292 241.443 209.21 241.443C209.141 241.443 209.072 241.443 209.004 241.443C207.946 241.443 207.108 241.759 206.49 242.39C205.872 243.022 205.563 243.936 205.563 245.131V250.57H203.585ZM216.657 250.694C215.489 250.694 214.459 250.454 213.566 249.973C212.687 249.492 212 248.833 211.506 247.995C211.025 247.157 210.785 246.195 210.785 245.11C210.785 244.025 211.018 243.063 211.485 242.226C211.966 241.388 212.618 240.735 213.443 240.268C214.28 239.787 215.221 239.547 216.265 239.547C217.323 239.547 218.257 239.781 219.067 240.248C219.878 240.715 220.51 241.374 220.963 242.226C221.43 243.063 221.664 244.046 221.664 245.172C221.664 245.254 221.657 245.351 221.643 245.46C221.643 245.57 221.636 245.673 221.622 245.77H212.33V244.348H220.592L219.789 244.842C219.802 244.142 219.658 243.517 219.356 242.967C219.054 242.418 218.635 241.992 218.099 241.69C217.577 241.374 216.966 241.216 216.265 241.216C215.578 241.216 214.967 241.374 214.432 241.69C213.896 241.992 213.477 242.425 213.175 242.988C212.872 243.537 212.721 244.169 212.721 244.884V245.213C212.721 245.941 212.886 246.594 213.216 247.171C213.559 247.734 214.033 248.173 214.638 248.489C215.242 248.805 215.936 248.963 216.719 248.963C217.364 248.963 217.948 248.853 218.47 248.634C219.006 248.414 219.473 248.084 219.871 247.645L220.963 248.922C220.469 249.499 219.85 249.938 219.109 250.241C218.381 250.543 217.563 250.694 216.657 250.694ZM223.259 250.57V249.293L230.264 240.598L230.656 241.278H223.382V239.65H232.242V240.948L225.237 249.623L224.784 248.943H232.407V250.57H223.259ZM241.833 250.57V248.263L241.73 247.83V243.895C241.73 243.057 241.483 242.411 240.988 241.958C240.508 241.491 239.78 241.257 238.804 241.257C238.159 241.257 237.527 241.367 236.909 241.587C236.291 241.793 235.769 242.074 235.343 242.432L234.519 240.948C235.082 240.495 235.755 240.151 236.538 239.918C237.335 239.671 238.166 239.547 239.031 239.547C240.528 239.547 241.682 239.911 242.493 240.639C243.303 241.367 243.708 242.48 243.708 243.977V250.57H241.833ZM238.248 250.694C237.438 250.694 236.723 250.557 236.105 250.282C235.501 250.007 235.034 249.629 234.704 249.149C234.374 248.654 234.21 248.098 234.21 247.48C234.21 246.889 234.347 246.353 234.622 245.873C234.91 245.392 235.37 245.007 236.002 244.719C236.648 244.43 237.513 244.286 238.598 244.286H242.06V245.708H238.681C237.692 245.708 237.026 245.873 236.682 246.202C236.339 246.532 236.167 246.93 236.167 247.397C236.167 247.933 236.38 248.366 236.806 248.695C237.232 249.011 237.822 249.169 238.578 249.169C239.32 249.169 239.965 249.004 240.515 248.675C241.078 248.345 241.483 247.864 241.73 247.232L242.122 248.592C241.861 249.238 241.401 249.753 240.741 250.138C240.082 250.508 239.251 250.694 238.248 250.694ZM257.765 250.694C256.597 250.694 255.567 250.454 254.674 249.973C253.795 249.492 253.108 248.833 252.614 247.995C252.133 247.157 251.892 246.195 251.892 245.11C251.892 244.025 252.126 243.063 252.593 242.226C253.074 241.388 253.726 240.735 254.55 240.268C255.388 239.787 256.329 239.547 257.373 239.547C258.431 239.547 259.365 239.781 260.175 240.248C260.986 240.715 261.618 241.374 262.071 242.226C262.538 243.063 262.772 244.046 262.772 245.172C262.772 245.254 262.765 245.351 262.751 245.46C262.751 245.57 262.744 245.673 262.73 245.77H253.438V244.348H261.7L260.897 244.842C260.91 244.142 260.766 243.517 260.464 242.967C260.162 242.418 259.743 241.992 259.207 241.69C258.685 241.374 258.074 241.216 257.373 241.216C256.686 241.216 256.075 241.374 255.539 241.69C255.004 241.992 254.585 242.425 254.283 242.988C253.98 243.537 253.829 244.169 253.829 244.884V245.213C253.829 245.941 253.994 246.594 254.324 247.171C254.667 247.734 255.141 248.173 255.745 248.489C256.35 248.805 257.044 248.963 257.826 248.963C258.472 248.963 259.056 248.853 259.578 248.634C260.114 248.414 260.581 248.084 260.979 247.645L262.071 248.922C261.576 249.499 260.958 249.938 260.217 250.241C259.489 250.543 258.671 250.694 257.765 250.694ZM39.3472 275.694C38.4406 275.694 37.5752 275.57 36.751 275.323C35.9406 275.076 35.3019 274.774 34.8348 274.416L35.659 272.851C36.126 273.166 36.703 273.434 37.3898 273.654C38.0766 273.874 38.7771 273.984 39.4914 273.984C40.4117 273.984 41.0711 273.853 41.4694 273.592C41.8815 273.331 42.0875 272.967 42.0875 272.5C42.0875 272.157 41.9639 271.889 41.7167 271.697C41.4694 271.504 41.1397 271.36 40.7277 271.264C40.3293 271.168 39.8829 271.085 39.3884 271.017C38.8939 270.934 38.3994 270.838 37.9049 270.728C37.4104 270.605 36.9571 270.44 36.545 270.234C36.1329 270.014 35.8032 269.719 35.556 269.348C35.3087 268.963 35.1851 268.455 35.1851 267.823C35.1851 267.164 35.3705 266.587 35.7414 266.092C36.1123 265.598 36.6343 265.22 37.3073 264.959C37.9942 264.684 38.8046 264.547 39.7386 264.547C40.4529 264.547 41.1741 264.636 41.9021 264.815C42.6438 264.98 43.2482 265.22 43.7153 265.536L42.8705 267.102C42.376 266.772 41.8609 266.546 41.3252 266.422C40.7895 266.298 40.2538 266.237 39.718 266.237C38.8527 266.237 38.2071 266.381 37.7812 266.669C37.3554 266.944 37.1425 267.301 37.1425 267.741C37.1425 268.112 37.2661 268.4 37.5134 268.606C37.7744 268.798 38.104 268.949 38.5024 269.059C38.9145 269.169 39.3678 269.265 39.8623 269.348C40.3568 269.417 40.8513 269.513 41.3458 269.636C41.8403 269.746 42.2867 269.904 42.6851 270.11C43.0971 270.316 43.4268 270.605 43.6741 270.976C43.935 271.346 44.0655 271.841 44.0655 272.459C44.0655 273.118 43.8732 273.688 43.4886 274.169C43.104 274.65 42.5614 275.028 41.8609 275.302C41.1603 275.563 40.3224 275.694 39.3472 275.694ZM46.5376 275.57V264.65H48.5156V275.57H46.5376ZM47.5266 262.548C47.142 262.548 46.8192 262.425 46.5582 262.178C46.3109 261.93 46.1873 261.628 46.1873 261.271C46.1873 260.9 46.3109 260.591 46.5582 260.344C46.8192 260.097 47.142 259.973 47.5266 259.973C47.9112 259.973 48.2271 260.097 48.4744 260.344C48.7354 260.577 48.8658 260.873 48.8658 261.23C48.8658 261.601 48.7422 261.917 48.495 262.178C48.2477 262.425 47.9249 262.548 47.5266 262.548ZM58.1233 264.547C59.0161 264.547 59.7991 264.719 60.4722 265.062C61.159 265.406 61.6947 265.928 62.0793 266.628C62.4639 267.329 62.6562 268.215 62.6562 269.286V275.57H60.6782V269.513C60.6782 268.455 60.4172 267.658 59.8952 267.123C59.387 266.587 58.6659 266.319 57.7318 266.319C57.0313 266.319 56.42 266.456 55.898 266.731C55.376 267.006 54.9708 267.411 54.6824 267.947C54.4076 268.482 54.2703 269.149 54.2703 269.945V275.57H52.2923V264.65H54.1879V267.596L53.8788 266.814C54.2359 266.099 54.7854 265.543 55.5271 265.145C56.2689 264.746 57.1343 264.547 58.1233 264.547ZM71.0764 275.694C69.9638 275.694 68.9679 275.454 68.0888 274.973C67.2234 274.492 66.5435 273.833 66.049 272.995C65.5545 272.157 65.3072 271.195 65.3072 270.11C65.3072 269.025 65.5545 268.063 66.049 267.226C66.5435 266.388 67.2234 265.735 68.0888 265.268C68.9679 264.787 69.9638 264.547 71.0764 264.547C72.0654 264.547 72.9446 264.746 73.7138 265.145C74.4967 265.529 75.1011 266.106 75.527 266.875L74.0228 267.844C73.6657 267.308 73.2261 266.917 72.7042 266.669C72.1959 266.408 71.6465 266.278 71.0558 266.278C70.3415 266.278 69.7028 266.436 69.1396 266.752C68.5764 267.068 68.13 267.514 67.8004 268.091C67.4707 268.654 67.3059 269.327 67.3059 270.11C67.3059 270.893 67.4707 271.573 67.8004 272.15C68.13 272.727 68.5764 273.173 69.1396 273.489C69.7028 273.805 70.3415 273.963 71.0558 273.963C71.6465 273.963 72.1959 273.84 72.7042 273.592C73.2261 273.331 73.6657 272.933 74.0228 272.397L75.527 273.345C75.1011 274.101 74.4967 274.684 73.7138 275.096C72.9446 275.495 72.0654 275.694 71.0764 275.694ZM82.7895 275.694C81.6219 275.694 80.5917 275.454 79.6988 274.973C78.8197 274.492 78.1329 273.833 77.6384 272.995C77.1576 272.157 76.9173 271.195 76.9173 270.11C76.9173 269.025 77.1508 268.063 77.6178 267.226C78.0986 266.388 78.751 265.735 79.5752 265.268C80.4131 264.787 81.354 264.547 82.398 264.547C83.4557 264.547 84.3897 264.781 85.2002 265.248C86.0106 265.715 86.6425 266.374 87.0958 267.226C87.5628 268.063 87.7963 269.046 87.7963 270.172C87.7963 270.254 87.7894 270.351 87.7757 270.46C87.7757 270.57 87.7688 270.673 87.7551 270.77H78.4626V269.348H86.7249L85.9213 269.842C85.9351 269.142 85.7908 268.517 85.4886 267.967C85.1864 267.418 84.7675 266.992 84.2318 266.69C83.7098 266.374 83.0985 266.216 82.398 266.216C81.7112 266.216 81.0999 266.374 80.5642 266.69C80.0285 266.992 79.6095 267.425 79.3073 267.988C79.0052 268.537 78.8541 269.169 78.8541 269.884V270.213C78.8541 270.941 79.0189 271.594 79.3486 272.171C79.692 272.734 80.1659 273.173 80.7703 273.489C81.3746 273.805 82.0683 273.963 82.8513 273.963C83.4969 273.963 84.0807 273.853 84.6026 273.634C85.1384 273.414 85.6054 273.084 86.0037 272.645L87.0958 273.922C86.6013 274.499 85.9831 274.938 85.2414 275.241C84.5134 275.543 83.6961 275.694 82.7895 275.694ZM90.5429 275.57V264.65H92.4385V267.617L92.2531 266.875C92.5553 266.12 93.0635 265.543 93.7778 265.145C94.4921 264.746 95.3712 264.547 96.4152 264.547V266.463C96.3327 266.449 96.2503 266.443 96.1679 266.443C96.0992 266.443 96.0305 266.443 95.9619 266.443C94.9042 266.443 94.0663 266.759 93.4481 267.39C92.83 268.022 92.521 268.936 92.521 270.131V275.57H90.5429ZM98.8531 275.57V264.65H100.831V275.57H98.8531ZM99.8421 262.548C99.4575 262.548 99.1347 262.425 98.8737 262.178C98.6264 261.93 98.5028 261.628 98.5028 261.271C98.5028 260.9 98.6264 260.591 98.8737 260.344C99.1347 260.097 99.4575 259.973 99.8421 259.973C100.227 259.973 100.543 260.097 100.79 260.344C101.051 260.577 101.181 260.873 101.181 261.23C101.181 261.601 101.058 261.917 100.81 262.178C100.563 262.425 100.24 262.548 99.8421 262.548ZM109.12 275.694C108.062 275.694 107.115 275.46 106.277 274.993C105.453 274.526 104.8 273.874 104.319 273.036C103.839 272.198 103.598 271.223 103.598 270.11C103.598 268.998 103.839 268.029 104.319 267.205C104.8 266.367 105.453 265.715 106.277 265.248C107.115 264.781 108.062 264.547 109.12 264.547C110.04 264.547 110.871 264.753 111.613 265.165C112.355 265.577 112.946 266.195 113.385 267.02C113.838 267.844 114.065 268.874 114.065 270.11C114.065 271.346 113.845 272.377 113.406 273.201C112.98 274.025 112.396 274.65 111.654 275.076C110.913 275.488 110.068 275.694 109.12 275.694ZM109.285 273.963C109.972 273.963 110.59 273.805 111.139 273.489C111.703 273.173 112.142 272.727 112.458 272.15C112.788 271.559 112.952 270.879 112.952 270.11C112.952 269.327 112.788 268.654 112.458 268.091C112.142 267.514 111.703 267.068 111.139 266.752C110.59 266.436 109.972 266.278 109.285 266.278C108.584 266.278 107.959 266.436 107.41 266.752C106.86 267.068 106.421 267.514 106.091 268.091C105.762 268.654 105.597 269.327 105.597 270.11C105.597 270.879 105.762 271.559 106.091 272.15C106.421 272.727 106.86 273.173 107.41 273.489C107.959 273.805 108.584 273.963 109.285 273.963ZM113.014 275.57V272.624L113.138 270.09L112.932 267.555V260.282H114.91V275.57H113.014ZM125.431 275.57V273.263L125.328 272.83V268.895C125.328 268.057 125.081 267.411 124.586 266.958C124.106 266.491 123.378 266.257 122.402 266.257C121.757 266.257 121.125 266.367 120.507 266.587C119.889 266.793 119.367 267.074 118.941 267.432L118.117 265.948C118.68 265.495 119.353 265.151 120.136 264.918C120.933 264.671 121.764 264.547 122.629 264.547C124.126 264.547 125.28 264.911 126.091 265.639C126.901 266.367 127.306 267.48 127.306 268.977V275.57H125.431ZM121.846 275.694C121.036 275.694 120.321 275.557 119.703 275.282C119.099 275.007 118.632 274.629 118.302 274.149C117.973 273.654 117.808 273.098 117.808 272.48C117.808 271.889 117.945 271.353 118.22 270.873C118.508 270.392 118.968 270.007 119.6 269.719C120.246 269.43 121.111 269.286 122.196 269.286H125.658V270.708H122.279C121.29 270.708 120.624 270.873 120.28 271.202C119.937 271.532 119.765 271.93 119.765 272.397C119.765 272.933 119.978 273.366 120.404 273.695C120.83 274.011 121.42 274.169 122.176 274.169C122.918 274.169 123.563 274.004 124.113 273.675C124.676 273.345 125.081 272.864 125.328 272.232L125.72 273.592C125.459 274.238 124.999 274.753 124.339 275.138C123.68 275.508 122.849 275.694 121.846 275.694ZM135.479 275.694C134.421 275.694 133.474 275.46 132.636 274.993C131.811 274.526 131.159 273.874 130.678 273.036C130.197 272.198 129.957 271.223 129.957 270.11C129.957 268.998 130.197 268.029 130.678 267.205C131.159 266.367 131.811 265.715 132.636 265.248C133.474 264.781 134.421 264.547 135.479 264.547C136.399 264.547 137.23 264.753 137.972 265.165C138.714 265.577 139.305 266.195 139.744 267.02C140.197 267.844 140.424 268.874 140.424 270.11C140.424 271.346 140.204 272.377 139.765 273.201C139.339 274.025 138.755 274.65 138.013 275.076C137.272 275.488 136.427 275.694 135.479 275.694ZM135.644 273.963C136.331 273.963 136.949 273.805 137.498 273.489C138.061 273.173 138.501 272.727 138.817 272.15C139.147 271.559 139.311 270.879 139.311 270.11C139.311 269.327 139.147 268.654 138.817 268.091C138.501 267.514 138.061 267.068 137.498 266.752C136.949 266.436 136.331 266.278 135.644 266.278C134.943 266.278 134.318 266.436 133.769 266.752C133.219 267.068 132.78 267.514 132.45 268.091C132.121 268.654 131.956 269.327 131.956 270.11C131.956 270.879 132.121 271.559 132.45 272.15C132.78 272.727 133.219 273.173 133.769 273.489C134.318 273.805 134.943 273.963 135.644 273.963ZM139.373 275.57V272.624L139.497 270.09L139.291 267.555V260.282H141.269V275.57H139.373ZM149.874 275.694C148.706 275.694 147.676 275.454 146.783 274.973C145.904 274.492 145.217 273.833 144.723 272.995C144.242 272.157 144.002 271.195 144.002 270.11C144.002 269.025 144.235 268.063 144.702 267.226C145.183 266.388 145.836 265.735 146.66 265.268C147.498 264.787 148.439 264.547 149.483 264.547C150.54 264.547 151.474 264.781 152.285 265.248C153.095 265.715 153.727 266.374 154.18 267.226C154.647 268.063 154.881 269.046 154.881 270.172C154.881 270.254 154.874 270.351 154.86 270.46C154.86 270.57 154.853 270.673 154.84 270.77H145.547V269.348H153.809L153.006 269.842C153.02 269.142 152.875 268.517 152.573 267.967C152.271 267.418 151.852 266.992 151.316 266.69C150.794 266.374 150.183 266.216 149.483 266.216C148.796 266.216 148.184 266.374 147.649 266.69C147.113 266.992 146.694 267.425 146.392 267.988C146.09 268.537 145.939 269.169 145.939 269.884V270.213C145.939 270.941 146.103 271.594 146.433 272.171C146.777 272.734 147.25 273.173 147.855 273.489C148.459 273.805 149.153 273.963 149.936 273.963C150.581 273.963 151.165 273.853 151.687 273.634C152.223 273.414 152.69 273.084 153.088 272.645L154.18 273.922C153.686 274.499 153.068 274.938 152.326 275.241C151.598 275.543 150.781 275.694 149.874 275.694ZM156.845 278.62L157.875 274.458L158.143 275.653C157.744 275.653 157.408 275.529 157.133 275.282C156.872 275.035 156.742 274.698 156.742 274.272C156.742 273.86 156.872 273.524 157.133 273.263C157.408 273.002 157.737 272.871 158.122 272.871C158.52 272.871 158.843 273.009 159.09 273.283C159.338 273.544 159.461 273.874 159.461 274.272C159.461 274.41 159.448 274.547 159.42 274.684C159.406 274.808 159.372 274.959 159.317 275.138C159.276 275.302 159.207 275.508 159.111 275.756L158.143 278.62H156.845ZM172.341 275.694C171.284 275.694 170.336 275.46 169.498 274.993C168.674 274.526 168.021 273.874 167.541 273.036C167.06 272.198 166.819 271.223 166.819 270.11C166.819 268.998 167.06 268.029 167.541 267.205C168.021 266.367 168.674 265.715 169.498 265.248C170.336 264.781 171.284 264.547 172.341 264.547C173.262 264.547 174.093 264.753 174.834 265.165C175.576 265.577 176.167 266.195 176.606 267.02C177.06 267.844 177.286 268.874 177.286 270.11C177.286 271.346 177.067 272.377 176.627 273.201C176.201 274.025 175.617 274.65 174.876 275.076C174.134 275.488 173.289 275.694 172.341 275.694ZM172.506 273.963C173.193 273.963 173.811 273.805 174.361 273.489C174.924 273.173 175.363 272.727 175.679 272.15C176.009 271.559 176.174 270.879 176.174 270.11C176.174 269.327 176.009 268.654 175.679 268.091C175.363 267.514 174.924 267.068 174.361 266.752C173.811 266.436 173.193 266.278 172.506 266.278C171.806 266.278 171.181 266.436 170.631 266.752C170.082 267.068 169.642 267.514 169.313 268.091C168.983 268.654 168.818 269.327 168.818 270.11C168.818 270.879 168.983 271.559 169.313 272.15C169.642 272.727 170.082 273.173 170.631 273.489C171.181 273.805 171.806 273.963 172.506 273.963ZM176.236 275.57V272.624L176.359 270.09L176.153 267.555V260.282H178.131V275.57H176.236ZM181.874 275.57V264.65H183.852V275.57H181.874ZM182.863 262.548C182.478 262.548 182.155 262.425 181.894 262.178C181.647 261.93 181.523 261.628 181.523 261.271C181.523 260.9 181.647 260.591 181.894 260.344C182.155 260.097 182.478 259.973 182.863 259.973C183.247 259.973 183.563 260.097 183.811 260.344C184.072 260.577 184.202 260.873 184.202 261.23C184.202 261.601 184.078 261.917 183.831 262.178C183.584 262.425 183.261 262.548 182.863 262.548ZM190.76 275.694C189.854 275.694 188.988 275.57 188.164 275.323C187.354 275.076 186.715 274.774 186.248 274.416L187.072 272.851C187.539 273.166 188.116 273.434 188.803 273.654C189.49 273.874 190.19 273.984 190.905 273.984C191.825 273.984 192.484 273.853 192.883 273.592C193.295 273.331 193.501 272.967 193.501 272.5C193.501 272.157 193.377 271.889 193.13 271.697C192.883 271.504 192.553 271.36 192.141 271.264C191.742 271.168 191.296 271.085 190.801 271.017C190.307 270.934 189.812 270.838 189.318 270.728C188.823 270.605 188.37 270.44 187.958 270.234C187.546 270.014 187.216 269.719 186.969 269.348C186.722 268.963 186.598 268.455 186.598 267.823C186.598 267.164 186.784 266.587 187.155 266.092C187.525 265.598 188.047 265.22 188.72 264.959C189.407 264.684 190.218 264.547 191.152 264.547C191.866 264.547 192.587 264.636 193.315 264.815C194.057 264.98 194.661 265.22 195.128 265.536L194.284 267.102C193.789 266.772 193.274 266.546 192.738 266.422C192.203 266.298 191.667 266.237 191.131 266.237C190.266 266.237 189.62 266.381 189.194 266.669C188.769 266.944 188.556 267.301 188.556 267.741C188.556 268.112 188.679 268.4 188.927 268.606C189.187 268.798 189.517 268.949 189.916 269.059C190.328 269.169 190.781 269.265 191.275 269.348C191.77 269.417 192.264 269.513 192.759 269.636C193.253 269.746 193.7 269.904 194.098 270.11C194.51 270.316 194.84 270.605 195.087 270.976C195.348 271.346 195.479 271.841 195.479 272.459C195.479 273.118 195.286 273.688 194.902 274.169C194.517 274.65 193.975 275.028 193.274 275.302C192.573 275.563 191.736 275.694 190.76 275.694ZM202.71 275.694C201.598 275.694 200.602 275.454 199.723 274.973C198.857 274.492 198.177 273.833 197.683 272.995C197.188 272.157 196.941 271.195 196.941 270.11C196.941 269.025 197.188 268.063 197.683 267.226C198.177 266.388 198.857 265.735 199.723 265.268C200.602 264.787 201.598 264.547 202.71 264.547C203.699 264.547 204.578 264.746 205.348 265.145C206.131 265.529 206.735 266.106 207.161 266.875L205.657 267.844C205.3 267.308 204.86 266.917 204.338 266.669C203.83 266.408 203.28 266.278 202.69 266.278C201.975 266.278 201.337 266.436 200.773 266.752C200.21 267.068 199.764 267.514 199.434 268.091C199.105 268.654 198.94 269.327 198.94 270.11C198.94 270.893 199.105 271.573 199.434 272.15C199.764 272.727 200.21 273.173 200.773 273.489C201.337 273.805 201.975 273.963 202.69 273.963C203.28 273.963 203.83 273.84 204.338 273.592C204.86 273.331 205.3 272.933 205.657 272.397L207.161 273.345C206.735 274.101 206.131 274.684 205.348 275.096C204.578 275.495 203.699 275.694 202.71 275.694ZM214.316 275.694C213.382 275.694 212.558 275.522 211.844 275.179C211.143 274.835 210.594 274.313 210.196 273.613C209.811 272.899 209.619 272.006 209.619 270.934V264.65H211.597V270.708C211.597 271.779 211.851 272.583 212.359 273.118C212.881 273.654 213.609 273.922 214.543 273.922C215.23 273.922 215.827 273.785 216.336 273.51C216.844 273.221 217.235 272.809 217.51 272.274C217.785 271.724 217.922 271.065 217.922 270.296V264.65H219.9V275.57H218.025V272.624L218.334 273.407C217.977 274.135 217.441 274.698 216.727 275.096C216.013 275.495 215.209 275.694 214.316 275.694ZM227.416 275.694C226.317 275.694 225.465 275.399 224.861 274.808C224.256 274.217 223.954 273.373 223.954 272.274V262.26H225.932V272.191C225.932 272.782 226.076 273.235 226.365 273.551C226.667 273.867 227.093 274.025 227.642 274.025C228.261 274.025 228.776 273.853 229.188 273.51L229.806 274.932C229.504 275.193 229.14 275.385 228.714 275.508C228.302 275.632 227.869 275.694 227.416 275.694ZM222.1 266.278V264.65H229.064V266.278H222.1ZM232.197 275.57V264.65H234.175V275.57H232.197ZM233.186 262.548C232.802 262.548 232.479 262.425 232.218 262.178C231.971 261.93 231.847 261.628 231.847 261.271C231.847 260.9 231.971 260.591 232.218 260.344C232.479 260.097 232.802 259.973 233.186 259.973C233.571 259.973 233.887 260.097 234.134 260.344C234.395 260.577 234.525 260.873 234.525 261.23C234.525 261.601 234.402 261.917 234.155 262.178C233.907 262.425 233.585 262.548 233.186 262.548ZM243.783 264.547C244.676 264.547 245.459 264.719 246.132 265.062C246.819 265.406 247.354 265.928 247.739 266.628C248.124 267.329 248.316 268.215 248.316 269.286V275.57H246.338V269.513C246.338 268.455 246.077 267.658 245.555 267.123C245.047 266.587 244.325 266.319 243.391 266.319C242.691 266.319 242.08 266.456 241.558 266.731C241.036 267.006 240.63 267.411 240.342 267.947C240.067 268.482 239.93 269.149 239.93 269.945V275.57H237.952V264.65H239.847V267.596L239.538 266.814C239.896 266.099 240.445 265.543 241.187 265.145C241.929 264.746 242.794 264.547 243.783 264.547ZM256.489 275.694C255.431 275.694 254.483 275.46 253.645 274.993C252.821 274.526 252.169 273.874 251.688 273.036C251.207 272.198 250.967 271.223 250.967 270.11C250.967 268.998 251.207 268.029 251.688 267.205C252.169 266.367 252.821 265.715 253.645 265.248C254.483 264.781 255.431 264.547 256.489 264.547C257.409 264.547 258.24 264.753 258.982 265.165C259.724 265.577 260.314 266.195 260.754 267.02C261.207 267.844 261.434 268.874 261.434 270.11C261.434 271.346 261.214 272.377 260.775 273.201C260.349 274.025 259.765 274.65 259.023 275.076C258.281 275.488 257.437 275.694 256.489 275.694ZM256.654 273.963C257.34 273.963 257.959 273.805 258.508 273.489C259.071 273.173 259.511 272.727 259.827 272.15C260.156 271.559 260.321 270.879 260.321 270.11C260.321 269.327 260.156 268.654 259.827 268.091C259.511 267.514 259.071 267.068 258.508 266.752C257.959 266.436 257.34 266.278 256.654 266.278C255.953 266.278 255.328 266.436 254.779 266.752C254.229 267.068 253.79 267.514 253.46 268.091C253.13 268.654 252.965 269.327 252.965 270.11C252.965 270.879 253.13 271.559 253.46 272.15C253.79 272.727 254.229 273.173 254.779 273.489C255.328 273.805 255.953 273.963 256.654 273.963ZM260.383 275.57V272.624L260.507 270.09L260.301 267.555V260.282H262.279V275.57H260.383ZM270.698 275.694C269.599 275.694 268.624 275.454 267.773 274.973C266.921 274.492 266.248 273.833 265.753 272.995C265.259 272.143 265.012 271.182 265.012 270.11C265.012 269.025 265.259 268.063 265.753 267.226C266.248 266.388 266.921 265.735 267.773 265.268C268.624 264.787 269.599 264.547 270.698 264.547C271.784 264.547 272.752 264.787 273.604 265.268C274.469 265.735 275.142 266.388 275.623 267.226C276.117 268.05 276.365 269.011 276.365 270.11C276.365 271.195 276.117 272.157 275.623 272.995C275.142 273.833 274.469 274.492 273.604 274.973C272.752 275.454 271.784 275.694 270.698 275.694ZM270.698 273.963C271.399 273.963 272.024 273.805 272.573 273.489C273.137 273.173 273.576 272.727 273.892 272.15C274.208 271.559 274.366 270.879 274.366 270.11C274.366 269.327 274.208 268.654 273.892 268.091C273.576 267.514 273.137 267.068 272.573 266.752C272.024 266.436 271.399 266.278 270.698 266.278C269.998 266.278 269.373 266.436 268.823 266.752C268.274 267.068 267.834 267.514 267.505 268.091C267.175 268.654 267.01 269.327 267.01 270.11C267.01 270.879 267.175 271.559 267.505 272.15C267.834 272.727 268.274 273.173 268.823 273.489C269.373 273.805 269.998 273.963 270.698 273.963ZM42.0463 289.547C42.9392 289.547 43.7221 289.719 44.3952 290.062C45.082 290.406 45.6177 290.928 46.0023 291.628C46.387 292.329 46.5793 293.215 46.5793 294.286V300.57H44.6013V294.513C44.6013 293.455 44.3403 292.658 43.8183 292.123C43.3101 291.587 42.5889 291.319 41.6548 291.319C40.9543 291.319 40.343 291.456 39.8211 291.731C39.2991 292.006 38.8939 292.411 38.6054 292.947C38.3307 293.482 38.1933 294.149 38.1933 294.945V300.57H36.2153V289.65H38.1109V292.596L37.8018 291.814C38.159 291.099 38.7084 290.543 39.4502 290.145C40.1919 289.746 41.0573 289.547 42.0463 289.547ZM54.9171 300.694C53.8182 300.694 52.8429 300.454 51.9913 299.973C51.1396 299.492 50.4665 298.833 49.972 297.995C49.4775 297.143 49.2303 296.182 49.2303 295.11C49.2303 294.025 49.4775 293.063 49.972 292.226C50.4665 291.388 51.1396 290.735 51.9913 290.268C52.8429 289.787 53.8182 289.547 54.9171 289.547C56.0022 289.547 56.9706 289.787 57.8223 290.268C58.6876 290.735 59.3607 291.388 59.8415 292.226C60.336 293.05 60.5832 294.011 60.5832 295.11C60.5832 296.195 60.336 297.157 59.8415 297.995C59.3607 298.833 58.6876 299.492 57.8223 299.973C56.9706 300.454 56.0022 300.694 54.9171 300.694ZM54.9171 298.963C55.6176 298.963 56.2426 298.805 56.792 298.489C57.3552 298.173 57.7948 297.727 58.1107 297.15C58.4267 296.559 58.5846 295.879 58.5846 295.11C58.5846 294.327 58.4267 293.654 58.1107 293.091C57.7948 292.514 57.3552 292.068 56.792 291.752C56.2426 291.436 55.6176 291.278 54.9171 291.278C54.2165 291.278 53.5915 291.436 53.0421 291.752C52.4926 292.068 52.0531 292.514 51.7234 293.091C51.3937 293.654 51.2289 294.327 51.2289 295.11C51.2289 295.879 51.3937 296.559 51.7234 297.15C52.0531 297.727 52.4926 298.173 53.0421 298.489C53.5915 298.805 54.2165 298.963 54.9171 298.963ZM66.4506 300.694C65.544 300.694 64.6787 300.57 63.8545 300.323C63.044 300.076 62.4053 299.774 61.9383 299.416L62.7625 297.851C63.2295 298.166 63.8064 298.434 64.4932 298.654C65.18 298.874 65.8806 298.984 66.5948 298.984C67.5152 298.984 68.1745 298.853 68.5729 298.592C68.9849 298.331 69.191 297.967 69.191 297.5C69.191 297.157 69.0674 296.889 68.8201 296.697C68.5729 296.504 68.2432 296.36 67.8311 296.264C67.4328 296.168 66.9863 296.085 66.4918 296.017C65.9973 295.934 65.5028 295.838 65.0083 295.728C64.5138 295.605 64.0605 295.44 63.6484 295.234C63.2364 295.014 62.9067 294.719 62.6594 294.348C62.4122 293.963 62.2886 293.455 62.2886 292.823C62.2886 292.164 62.474 291.587 62.8449 291.092C63.2157 290.598 63.7377 290.22 64.4108 289.959C65.0976 289.684 65.908 289.547 66.8421 289.547C67.5564 289.547 68.2775 289.636 69.0055 289.815C69.7473 289.98 70.3517 290.22 70.8187 290.536L69.9739 292.102C69.4794 291.772 68.9643 291.546 68.4286 291.422C67.8929 291.298 67.3572 291.237 66.8215 291.237C65.9561 291.237 65.3105 291.381 64.8847 291.669C64.4589 291.944 64.246 292.301 64.246 292.741C64.246 293.112 64.3696 293.4 64.6168 293.606C64.8778 293.798 65.2075 293.949 65.6058 294.059C66.0179 294.169 66.4712 294.265 66.9657 294.348C67.4602 294.417 67.9547 294.513 68.4492 294.636C68.9437 294.746 69.3902 294.904 69.7885 295.11C70.2006 295.316 70.5303 295.605 70.7775 295.976C71.0385 296.346 71.169 296.841 71.169 297.459C71.169 298.118 70.9767 298.688 70.5921 299.169C70.2075 299.65 69.6649 300.028 68.9643 300.302C68.2638 300.563 67.4259 300.694 66.4506 300.694ZM76.7729 300.694C75.8663 300.694 75.0009 300.57 74.1767 300.323C73.3663 300.076 72.7276 299.774 72.2605 299.416L73.0847 297.851C73.5517 298.166 74.1287 298.434 74.8155 298.654C75.5023 298.874 76.2028 298.984 76.9171 298.984C77.8374 298.984 78.4968 298.853 78.8951 298.592C79.3072 298.331 79.5132 297.967 79.5132 297.5C79.5132 297.157 79.3896 296.889 79.1424 296.697C78.8951 296.504 78.5654 296.36 78.1533 296.264C77.755 296.168 77.3086 296.085 76.8141 296.017C76.3196 295.934 75.8251 295.838 75.3306 295.728C74.8361 295.605 74.3828 295.44 73.9707 295.234C73.5586 295.014 73.2289 294.719 72.9817 294.348C72.7344 293.963 72.6108 293.455 72.6108 292.823C72.6108 292.164 72.7962 291.587 73.1671 291.092C73.538 290.598 74.06 290.22 74.733 289.959C75.4199 289.684 76.2303 289.547 77.1643 289.547C77.8786 289.547 78.5998 289.636 79.3278 289.815C80.0695 289.98 80.6739 290.22 81.141 290.536L80.2962 292.102C79.8017 291.772 79.2866 291.546 78.7509 291.422C78.2152 291.298 77.6795 291.237 77.1437 291.237C76.2784 291.237 75.6328 291.381 75.2069 291.669C74.7811 291.944 74.5682 292.301 74.5682 292.741C74.5682 293.112 74.6918 293.4 74.9391 293.606C75.2001 293.798 75.5297 293.949 75.9281 294.059C76.3402 294.169 76.7935 294.265 77.288 294.348C77.7825 294.417 78.277 294.513 78.7715 294.636C79.266 294.746 79.7124 294.904 80.1108 295.11C80.5228 295.316 80.8525 295.605 81.0998 295.976C81.3607 296.346 81.4912 296.841 81.4912 297.459C81.4912 298.118 81.2989 298.688 80.9143 299.169C80.5297 299.65 79.9871 300.028 79.2866 300.302C78.586 300.563 77.7481 300.694 76.7729 300.694ZM88.6404 300.694C87.5415 300.694 86.5663 300.454 85.7146 299.973C84.863 299.492 84.1899 298.833 83.6954 297.995C83.2009 297.143 82.9537 296.182 82.9537 295.11C82.9537 294.025 83.2009 293.063 83.6954 292.226C84.1899 291.388 84.863 290.735 85.7146 290.268C86.5663 289.787 87.5415 289.547 88.6404 289.547C89.7256 289.547 90.694 289.787 91.5456 290.268C92.411 290.735 93.0841 291.388 93.5649 292.226C94.0594 293.05 94.3066 294.011 94.3066 295.11C94.3066 296.195 94.0594 297.157 93.5649 297.995C93.0841 298.833 92.411 299.492 91.5456 299.973C90.694 300.454 89.7256 300.694 88.6404 300.694ZM88.6404 298.963C89.341 298.963 89.966 298.805 90.5154 298.489C91.0786 298.173 91.5182 297.727 91.8341 297.15C92.15 296.559 92.308 295.879 92.308 295.11C92.308 294.327 92.15 293.654 91.8341 293.091C91.5182 292.514 91.0786 292.068 90.5154 291.752C89.966 291.436 89.341 291.278 88.6404 291.278C87.9399 291.278 87.3149 291.436 86.7654 291.752C86.216 292.068 85.7764 292.514 85.4468 293.091C85.1171 293.654 84.9523 294.327 84.9523 295.11C84.9523 295.879 85.1171 296.559 85.4468 297.15C85.7764 297.727 86.216 298.173 86.7654 298.489C87.3149 298.805 87.9399 298.963 88.6404 298.963ZM100.174 300.694C99.2674 300.694 98.402 300.57 97.5779 300.323C96.7674 300.076 96.1287 299.774 95.6617 299.416L96.4858 297.851C96.9529 298.166 97.5298 298.434 98.2166 298.654C98.9034 298.874 99.6039 298.984 100.318 298.984C101.239 298.984 101.898 298.853 102.296 298.592C102.708 298.331 102.914 297.967 102.914 297.5C102.914 297.157 102.791 296.889 102.543 296.697C102.296 296.504 101.967 296.36 101.554 296.264C101.156 296.168 100.71 296.085 100.215 296.017C99.7207 295.934 99.2262 295.838 98.7317 295.728C98.2372 295.605 97.7839 295.44 97.3718 295.234C96.9597 295.014 96.6301 294.719 96.3828 294.348C96.1356 293.963 96.0119 293.455 96.0119 292.823C96.0119 292.164 96.1974 291.587 96.5682 291.092C96.9391 290.598 97.4611 290.22 98.1342 289.959C98.821 289.684 99.6314 289.547 100.565 289.547C101.28 289.547 102.001 289.636 102.729 289.815C103.471 289.98 104.075 290.22 104.542 290.536L103.697 292.102C103.203 291.772 102.688 291.546 102.152 291.422C101.616 291.298 101.081 291.237 100.545 291.237C99.6795 291.237 99.0339 291.381 98.6081 291.669C98.1822 291.944 97.9693 292.301 97.9693 292.741C97.9693 293.112 98.093 293.4 98.3402 293.606C98.6012 293.798 98.9309 293.949 99.3292 294.059C99.7413 294.169 100.195 294.265 100.689 294.348C101.184 294.417 101.678 294.513 102.173 294.636C102.667 294.746 103.114 294.904 103.512 295.11C103.924 295.316 104.254 295.605 104.501 295.976C104.762 296.346 104.892 296.841 104.892 297.459C104.892 298.118 104.7 298.688 104.315 299.169C103.931 299.65 103.388 300.028 102.688 300.302C101.987 300.563 101.149 300.694 100.174 300.694ZM119.677 300.57V298.263L119.574 297.83V293.895C119.574 293.057 119.326 292.411 118.832 291.958C118.351 291.491 117.623 291.257 116.648 291.257C116.002 291.257 115.37 291.367 114.752 291.587C114.134 291.793 113.612 292.074 113.186 292.432L112.362 290.948C112.925 290.495 113.598 290.151 114.381 289.918C115.178 289.671 116.009 289.547 116.874 289.547C118.372 289.547 119.525 289.911 120.336 290.639C121.146 291.367 121.552 292.48 121.552 293.977V300.57H119.677ZM116.091 300.694C115.281 300.694 114.567 300.557 113.949 300.282C113.344 300.007 112.877 299.629 112.547 299.149C112.218 298.654 112.053 298.098 112.053 297.48C112.053 296.889 112.19 296.353 112.465 295.873C112.754 295.392 113.214 295.007 113.846 294.719C114.491 294.43 115.357 294.286 116.442 294.286H119.903V295.708H116.524C115.535 295.708 114.869 295.873 114.525 296.202C114.182 296.532 114.01 296.93 114.01 297.397C114.01 297.933 114.223 298.366 114.649 298.695C115.075 299.011 115.666 299.169 116.421 299.169C117.163 299.169 117.808 299.004 118.358 298.675C118.921 298.345 119.326 297.864 119.574 297.232L119.965 298.592C119.704 299.238 119.244 299.753 118.585 300.138C117.925 300.508 117.094 300.694 116.091 300.694ZM129.972 300.694C128.859 300.694 127.863 300.454 126.984 299.973C126.119 299.492 125.439 298.833 124.944 297.995C124.45 297.157 124.202 296.195 124.202 295.11C124.202 294.025 124.45 293.063 124.944 292.226C125.439 291.388 126.119 290.735 126.984 290.268C127.863 289.787 128.859 289.547 129.972 289.547C130.961 289.547 131.84 289.746 132.609 290.145C133.392 290.529 133.996 291.106 134.422 291.875L132.918 292.844C132.561 292.308 132.121 291.917 131.599 291.669C131.091 291.408 130.542 291.278 129.951 291.278C129.237 291.278 128.598 291.436 128.035 291.752C127.472 292.068 127.025 292.514 126.696 293.091C126.366 293.654 126.201 294.327 126.201 295.11C126.201 295.893 126.366 296.573 126.696 297.15C127.025 297.727 127.472 298.173 128.035 298.489C128.598 298.805 129.237 298.963 129.951 298.963C130.542 298.963 131.091 298.84 131.599 298.592C132.121 298.331 132.561 297.933 132.918 297.397L134.422 298.345C133.996 299.101 133.392 299.684 132.609 300.096C131.84 300.495 130.961 300.694 129.972 300.694ZM141.685 300.694C140.517 300.694 139.487 300.454 138.594 299.973C137.715 299.492 137.028 298.833 136.534 297.995C136.053 297.157 135.812 296.195 135.812 295.11C135.812 294.025 136.046 293.063 136.513 292.226C136.994 291.388 137.646 290.735 138.47 290.268C139.308 289.787 140.249 289.547 141.293 289.547C142.351 289.547 143.285 289.781 144.095 290.248C144.906 290.715 145.538 291.374 145.991 292.226C146.458 293.063 146.691 294.046 146.691 295.172C146.691 295.254 146.685 295.351 146.671 295.46C146.671 295.57 146.664 295.673 146.65 295.77H137.358V294.348H145.62L144.816 294.842C144.83 294.142 144.686 293.517 144.384 292.967C144.082 292.418 143.663 291.992 143.127 291.69C142.605 291.374 141.994 291.216 141.293 291.216C140.606 291.216 139.995 291.374 139.459 291.69C138.924 291.992 138.505 292.425 138.203 292.988C137.9 293.537 137.749 294.169 137.749 294.884V295.213C137.749 295.941 137.914 296.594 138.244 297.171C138.587 297.734 139.061 298.173 139.665 298.489C140.27 298.805 140.963 298.963 141.746 298.963C142.392 298.963 142.976 298.853 143.498 298.634C144.034 298.414 144.501 298.084 144.899 297.645L145.991 298.922C145.496 299.499 144.878 299.938 144.137 300.241C143.409 300.543 142.591 300.694 141.685 300.694ZM149.438 300.57V289.65H151.334V292.617L151.148 291.875C151.45 291.12 151.959 290.543 152.673 290.145C153.387 289.746 154.266 289.547 155.31 289.547V291.463C155.228 291.449 155.145 291.443 155.063 291.443C154.994 291.443 154.926 291.443 154.857 291.443C153.799 291.443 152.961 291.759 152.343 292.39C151.725 293.022 151.416 293.936 151.416 295.131V300.57H149.438ZM161.941 300.694C160.842 300.694 159.99 300.399 159.386 299.808C158.782 299.217 158.479 298.373 158.479 297.274V287.26H160.457V297.191C160.457 297.782 160.602 298.235 160.89 298.551C161.192 298.867 161.618 299.025 162.168 299.025C162.786 299.025 163.301 298.853 163.713 298.51L164.331 299.932C164.029 300.193 163.665 300.385 163.239 300.508C162.827 300.632 162.394 300.694 161.941 300.694ZM156.625 291.278V289.65H163.589V291.278H156.625ZM171.037 300.694C169.938 300.694 168.963 300.454 168.112 299.973C167.26 299.492 166.587 298.833 166.092 297.995C165.598 297.143 165.351 296.182 165.351 295.11C165.351 294.025 165.598 293.063 166.092 292.226C166.587 291.388 167.26 290.735 168.112 290.268C168.963 289.787 169.938 289.547 171.037 289.547C172.122 289.547 173.091 289.787 173.943 290.268C174.808 290.735 175.481 291.388 175.962 292.226C176.456 293.05 176.704 294.011 176.704 295.11C176.704 296.195 176.456 297.157 175.962 297.995C175.481 298.833 174.808 299.492 173.943 299.973C173.091 300.454 172.122 300.694 171.037 300.694ZM171.037 298.963C171.738 298.963 172.363 298.805 172.912 298.489C173.476 298.173 173.915 297.727 174.231 297.15C174.547 296.559 174.705 295.879 174.705 295.11C174.705 294.327 174.547 293.654 174.231 293.091C173.915 292.514 173.476 292.068 172.912 291.752C172.363 291.436 171.738 291.278 171.037 291.278C170.337 291.278 169.712 291.436 169.162 291.752C168.613 292.068 168.173 292.514 167.844 293.091C167.514 293.654 167.349 294.327 167.349 295.11C167.349 295.879 167.514 296.559 167.844 297.15C168.173 297.727 168.613 298.173 169.162 298.489C169.712 298.805 170.337 298.963 171.037 298.963ZM182.571 300.694C181.664 300.694 180.799 300.57 179.975 300.323C179.164 300.076 178.526 299.774 178.059 299.416L178.883 297.851C179.35 298.166 179.927 298.434 180.613 298.654C181.3 298.874 182.001 298.984 182.715 298.984C183.635 298.984 184.295 298.853 184.693 298.592C185.105 298.331 185.311 297.967 185.311 297.5C185.311 297.157 185.188 296.889 184.94 296.697C184.693 296.504 184.363 296.36 183.951 296.264C183.553 296.168 183.107 296.085 182.612 296.017C182.118 295.934 181.623 295.838 181.129 295.728C180.634 295.605 180.181 295.44 179.769 295.234C179.357 295.014 179.027 294.719 178.78 294.348C178.532 293.963 178.409 293.455 178.409 292.823C178.409 292.164 178.594 291.587 178.965 291.092C179.336 290.598 179.858 290.22 180.531 289.959C181.218 289.684 182.028 289.547 182.962 289.547C183.677 289.547 184.398 289.636 185.126 289.815C185.868 289.98 186.472 290.22 186.939 290.536L186.094 292.102C185.6 291.772 185.085 291.546 184.549 291.422C184.013 291.298 183.477 291.237 182.942 291.237C182.076 291.237 181.431 291.381 181.005 291.669C180.579 291.944 180.366 292.301 180.366 292.741C180.366 293.112 180.49 293.4 180.737 293.606C180.998 293.798 181.328 293.949 181.726 294.059C182.138 294.169 182.591 294.265 183.086 294.348C183.58 294.417 184.075 294.513 184.57 294.636C185.064 294.746 185.51 294.904 185.909 295.11C186.321 295.316 186.651 295.605 186.898 295.976C187.159 296.346 187.289 296.841 187.289 297.459C187.289 298.118 187.097 298.688 186.712 299.169C186.328 299.65 185.785 300.028 185.085 300.302C184.384 300.563 183.546 300.694 182.571 300.694ZM200.157 300.694C198.99 300.694 197.959 300.454 197.067 299.973C196.188 299.492 195.501 298.833 195.006 297.995C194.525 297.157 194.285 296.195 194.285 295.11C194.285 294.025 194.519 293.063 194.986 292.226C195.466 291.388 196.119 290.735 196.943 290.268C197.781 289.787 198.722 289.547 199.766 289.547C200.823 289.547 201.758 289.781 202.568 290.248C203.378 290.715 204.01 291.374 204.464 292.226C204.931 293.063 205.164 294.046 205.164 295.172C205.164 295.254 205.157 295.351 205.143 295.46C205.143 295.57 205.137 295.673 205.123 295.77H195.83V294.348H204.093L203.289 294.842C203.303 294.142 203.159 293.517 202.856 292.967C202.554 292.418 202.135 291.992 201.6 291.69C201.078 291.374 200.466 291.216 199.766 291.216C199.079 291.216 198.468 291.374 197.932 291.69C197.396 291.992 196.977 292.425 196.675 292.988C196.373 293.537 196.222 294.169 196.222 294.884V295.213C196.222 295.941 196.387 296.594 196.716 297.171C197.06 297.734 197.534 298.173 198.138 298.489C198.742 298.805 199.436 298.963 200.219 298.963C200.865 298.963 201.448 298.853 201.97 298.634C202.506 298.414 202.973 298.084 203.372 297.645L204.464 298.922C203.969 299.499 203.351 299.938 202.609 300.241C201.881 300.543 201.064 300.694 200.157 300.694ZM218.307 300.694C217.139 300.694 216.109 300.454 215.216 299.973C214.337 299.492 213.65 298.833 213.156 297.995C212.675 297.157 212.435 296.195 212.435 295.11C212.435 294.025 212.668 293.063 213.135 292.226C213.616 291.388 214.268 290.735 215.092 290.268C215.93 289.787 216.871 289.547 217.915 289.547C218.973 289.547 219.907 289.781 220.717 290.248C221.528 290.715 222.16 291.374 222.613 292.226C223.08 293.063 223.314 294.046 223.314 295.172C223.314 295.254 223.307 295.351 223.293 295.46C223.293 295.57 223.286 295.673 223.272 295.77H213.98V294.348H222.242L221.439 294.842C221.452 294.142 221.308 293.517 221.006 292.967C220.704 292.418 220.285 291.992 219.749 291.69C219.227 291.374 218.616 291.216 217.915 291.216C217.228 291.216 216.617 291.374 216.081 291.69C215.546 291.992 215.127 292.425 214.825 292.988C214.522 293.537 214.371 294.169 214.371 294.884V295.213C214.371 295.941 214.536 296.594 214.866 297.171C215.209 297.734 215.683 298.173 216.287 298.489C216.892 298.805 217.586 298.963 218.369 298.963C219.014 298.963 219.598 298.853 220.12 298.634C220.656 298.414 221.123 298.084 221.521 297.645L222.613 298.922C222.119 299.499 221.5 299.938 220.759 300.241C220.031 300.543 219.213 300.694 218.307 300.694ZM226.06 300.57V289.65H227.956V292.617L227.77 291.875C228.073 291.12 228.581 290.543 229.295 290.145C230.009 289.746 230.888 289.547 231.932 289.547V291.463C231.85 291.449 231.768 291.443 231.685 291.443C231.616 291.443 231.548 291.443 231.479 291.443C230.421 291.443 229.584 291.759 228.965 292.39C228.347 293.022 228.038 293.936 228.038 295.131V300.57H226.06ZM234.37 300.57V289.65H236.266V292.617L236.08 291.875C236.383 291.12 236.891 290.543 237.605 290.145C238.319 289.746 239.199 289.547 240.243 289.547V291.463C240.16 291.449 240.078 291.443 239.995 291.443C239.927 291.443 239.858 291.443 239.789 291.443C238.732 291.443 237.894 291.759 237.276 292.39C236.657 293.022 236.348 293.936 236.348 295.131V300.57H234.37ZM247.257 300.694C246.158 300.694 245.183 300.454 244.331 299.973C243.48 299.492 242.806 298.833 242.312 297.995C241.817 297.143 241.57 296.182 241.57 295.11C241.57 294.025 241.817 293.063 242.312 292.226C242.806 291.388 243.48 290.735 244.331 290.268C245.183 289.787 246.158 289.547 247.257 289.547C248.342 289.547 249.311 289.787 250.162 290.268C251.028 290.735 251.701 291.388 252.181 292.226C252.676 293.05 252.923 294.011 252.923 295.11C252.923 296.195 252.676 297.157 252.181 297.995C251.701 298.833 251.028 299.492 250.162 299.973C249.311 300.454 248.342 300.694 247.257 300.694ZM247.257 298.963C247.958 298.963 248.583 298.805 249.132 298.489C249.695 298.173 250.135 297.727 250.451 297.15C250.767 296.559 250.925 295.879 250.925 295.11C250.925 294.327 250.767 293.654 250.451 293.091C250.135 292.514 249.695 292.068 249.132 291.752C248.583 291.436 247.958 291.278 247.257 291.278C246.556 291.278 245.931 291.436 245.382 291.752C244.833 292.068 244.393 292.514 244.063 293.091C243.734 293.654 243.569 294.327 243.569 295.11C243.569 295.879 243.734 296.559 244.063 297.15C244.393 297.727 244.833 298.173 245.382 298.489C245.931 298.805 246.556 298.963 247.257 298.963ZM258.791 300.694C257.884 300.694 257.019 300.57 256.194 300.323C255.384 300.076 254.745 299.774 254.278 299.416L255.102 297.851C255.569 298.166 256.146 298.434 256.833 298.654C257.52 298.874 258.22 298.984 258.935 298.984C259.855 298.984 260.514 298.853 260.913 298.592C261.325 298.331 261.531 297.967 261.531 297.5C261.531 297.157 261.407 296.889 261.16 296.697C260.913 296.504 260.583 296.36 260.171 296.264C259.773 296.168 259.326 296.085 258.832 296.017C258.337 295.934 257.843 295.838 257.348 295.728C256.854 295.605 256.4 295.44 255.988 295.234C255.576 295.014 255.247 294.719 254.999 294.348C254.752 293.963 254.628 293.455 254.628 292.823C254.628 292.164 254.814 291.587 255.185 291.092C255.556 290.598 256.078 290.22 256.751 289.959C257.438 289.684 258.248 289.547 259.182 289.547C259.896 289.547 260.617 289.636 261.345 289.815C262.087 289.98 262.692 290.22 263.159 290.536L262.314 292.102C261.819 291.772 261.304 291.546 260.769 291.422C260.233 291.298 259.697 291.237 259.161 291.237C258.296 291.237 257.65 291.381 257.225 291.669C256.799 291.944 256.586 292.301 256.586 292.741C256.586 293.112 256.71 293.4 256.957 293.606C257.218 293.798 257.547 293.949 257.946 294.059C258.358 294.169 258.811 294.265 259.306 294.348C259.8 294.417 260.295 294.513 260.789 294.636C261.284 294.746 261.73 294.904 262.128 295.11C262.541 295.316 262.87 295.605 263.117 295.976C263.378 296.346 263.509 296.841 263.509 297.459C263.509 298.118 263.317 298.688 262.932 299.169C262.547 299.65 262.005 300.028 261.304 300.302C260.604 300.563 259.766 300.694 258.791 300.694ZM277.304 300.694C276.398 300.694 275.566 300.488 274.811 300.076C274.069 299.65 273.472 299.025 273.018 298.201C272.579 297.377 272.359 296.346 272.359 295.11C272.359 293.874 272.572 292.844 272.998 292.02C273.437 291.195 274.028 290.577 274.77 290.165C275.525 289.753 276.37 289.547 277.304 289.547C278.376 289.547 279.323 289.781 280.147 290.248C280.972 290.715 281.624 291.367 282.105 292.205C282.586 293.029 282.826 293.998 282.826 295.11C282.826 296.223 282.586 297.198 282.105 298.036C281.624 298.874 280.972 299.526 280.147 299.993C279.323 300.46 278.376 300.694 277.304 300.694ZM271.514 304.568V289.65H273.41V292.596L273.286 295.131L273.492 297.665V304.568H271.514ZM277.139 298.963C277.84 298.963 278.465 298.805 279.014 298.489C279.577 298.173 280.017 297.727 280.333 297.15C280.663 296.559 280.827 295.879 280.827 295.11C280.827 294.327 280.663 293.654 280.333 293.091C280.017 292.514 279.577 292.068 279.014 291.752C278.465 291.436 277.84 291.278 277.139 291.278C276.452 291.278 275.827 291.436 275.264 291.752C274.715 292.068 274.275 292.514 273.946 293.091C273.63 293.654 273.472 294.327 273.472 295.11C273.472 295.879 273.63 296.559 273.946 297.15C274.275 297.727 274.715 298.173 275.264 298.489C275.827 298.805 276.452 298.963 277.139 298.963ZM292.237 300.57V298.263L292.134 297.83V293.895C292.134 293.057 291.887 292.411 291.392 291.958C290.912 291.491 290.184 291.257 289.208 291.257C288.563 291.257 287.931 291.367 287.313 291.587C286.695 291.793 286.173 292.074 285.747 292.432L284.923 290.948C285.486 290.495 286.159 290.151 286.942 289.918C287.739 289.671 288.57 289.547 289.435 289.547C290.932 289.547 292.086 289.911 292.897 290.639C293.707 291.367 294.112 292.48 294.112 293.977V300.57H292.237ZM288.652 300.694C287.842 300.694 287.127 300.557 286.509 300.282C285.905 300.007 285.438 299.629 285.108 299.149C284.778 298.654 284.614 298.098 284.614 297.48C284.614 296.889 284.751 296.353 285.026 295.873C285.314 295.392 285.774 295.007 286.406 294.719C287.052 294.43 287.917 294.286 289.002 294.286H292.464V295.708H289.085C288.096 295.708 287.43 295.873 287.086 296.202C286.743 296.532 286.571 296.93 286.571 297.397C286.571 297.933 286.784 298.366 287.21 298.695C287.636 299.011 288.226 299.169 288.982 299.169C289.723 299.169 290.369 299.004 290.919 298.675C291.482 298.345 291.887 297.864 292.134 297.232L292.526 298.592C292.265 299.238 291.805 299.753 291.145 300.138C290.486 300.508 289.655 300.694 288.652 300.694ZM297.773 300.57V289.65H299.668V292.617L299.483 291.875C299.785 291.12 300.293 290.543 301.008 290.145C301.722 289.746 302.601 289.547 303.645 289.547V291.463C303.562 291.449 303.48 291.443 303.398 291.443C303.329 291.443 303.26 291.443 303.192 291.443C302.134 291.443 301.296 291.759 300.678 292.39C300.06 293.022 299.751 293.936 299.751 295.131V300.57H297.773ZM312.057 300.57V298.263L311.954 297.83V293.895C311.954 293.057 311.706 292.411 311.212 291.958C310.731 291.491 310.003 291.257 309.028 291.257C308.382 291.257 307.75 291.367 307.132 291.587C306.514 291.793 305.992 292.074 305.566 292.432L304.742 290.948C305.305 290.495 305.978 290.151 306.761 289.918C307.558 289.671 308.389 289.547 309.255 289.547C310.752 289.547 311.906 289.911 312.716 290.639C313.527 291.367 313.932 292.48 313.932 293.977V300.57H312.057ZM308.472 300.694C307.661 300.694 306.947 300.557 306.329 300.282C305.724 300.007 305.257 299.629 304.928 299.149C304.598 298.654 304.433 298.098 304.433 297.48C304.433 296.889 304.571 296.353 304.845 295.873C305.134 295.392 305.594 295.007 306.226 294.719C306.871 294.43 307.737 294.286 308.822 294.286H312.283V295.708H308.904C307.915 295.708 307.249 295.873 306.906 296.202C306.562 296.532 306.391 296.93 306.391 297.397C306.391 297.933 306.603 298.366 307.029 298.695C307.455 299.011 308.046 299.169 308.801 299.169C309.543 299.169 310.189 299.004 310.738 298.675C311.301 298.345 311.706 297.864 311.954 297.232L312.345 298.592C312.084 299.238 311.624 299.753 310.965 300.138C310.305 300.508 309.474 300.694 308.472 300.694ZM39.9653 325.694C38.8664 325.694 38.0148 325.399 37.4104 324.808C36.806 324.217 36.5038 323.373 36.5038 322.274V312.26H38.4818V322.191C38.4818 322.782 38.626 323.235 38.9145 323.551C39.2167 323.867 39.6425 324.025 40.1919 324.025C40.8101 324.025 41.3252 323.853 41.7373 323.51L42.3554 324.932C42.0532 325.193 41.6892 325.385 41.2634 325.508C40.8513 325.632 40.4186 325.694 39.9653 325.694ZM34.6494 316.278V314.65H41.6136V316.278H34.6494ZM49.0618 325.694C47.9629 325.694 46.9876 325.454 46.1359 324.973C45.2843 324.492 44.6112 323.833 44.1167 322.995C43.6222 322.143 43.375 321.182 43.375 320.11C43.375 319.025 43.6222 318.063 44.1167 317.226C44.6112 316.388 45.2843 315.735 46.1359 315.268C46.9876 314.787 47.9629 314.547 49.0618 314.547C50.1469 314.547 51.1153 314.787 51.967 315.268C52.8323 315.735 53.5054 316.388 53.9862 317.226C54.4807 318.05 54.7279 319.011 54.7279 320.11C54.7279 321.195 54.4807 322.157 53.9862 322.995C53.5054 323.833 52.8323 324.492 51.967 324.973C51.1153 325.454 50.1469 325.694 49.0618 325.694ZM49.0618 323.963C49.7623 323.963 50.3873 323.805 50.9367 323.489C51.4999 323.173 51.9395 322.727 52.2554 322.15C52.5713 321.559 52.7293 320.879 52.7293 320.11C52.7293 319.327 52.5713 318.654 52.2554 318.091C51.9395 317.514 51.4999 317.068 50.9367 316.752C50.3873 316.436 49.7623 316.278 49.0618 316.278C48.3612 316.278 47.7362 316.436 47.1868 316.752C46.6373 317.068 46.1978 317.514 45.8681 318.091C45.5384 318.654 45.3736 319.327 45.3736 320.11C45.3736 320.879 45.5384 321.559 45.8681 322.15C46.1978 322.727 46.6373 323.173 47.1868 323.489C47.7362 323.805 48.3612 323.963 49.0618 323.963ZM71.1241 314.547C72.0032 314.547 72.7793 314.719 73.4524 315.062C74.1254 315.406 74.6474 315.928 75.0183 316.628C75.4029 317.329 75.5952 318.215 75.5952 319.286V325.57H73.6172V319.513C73.6172 318.455 73.3699 317.658 72.8754 317.123C72.3809 316.587 71.6873 316.319 70.7944 316.319C70.1351 316.319 69.5582 316.456 69.0637 316.731C68.5692 317.006 68.1845 317.411 67.9098 317.947C67.6488 318.482 67.5183 319.149 67.5183 319.945V325.57H65.5403V319.513C65.5403 318.455 65.2931 317.658 64.7986 317.123C64.3178 316.587 63.6241 316.319 62.7175 316.319C62.0719 316.319 61.5019 316.456 61.0074 316.731C60.5129 317.006 60.1283 317.411 59.8536 317.947C59.5788 318.482 59.4415 319.149 59.4415 319.945V325.57H57.4635V314.65H59.359V317.555L59.05 316.814C59.3934 316.099 59.9222 315.543 60.6365 315.145C61.3508 314.746 62.1818 314.547 63.1296 314.547C64.1736 314.547 65.0733 314.808 65.8288 315.33C66.5843 315.838 67.0788 316.614 67.3123 317.658L66.5087 317.329C66.8384 316.491 67.4153 315.818 68.2395 315.309C69.0637 314.801 70.0252 314.547 71.1241 314.547ZM86.0136 325.57V323.263L85.9105 322.83V318.895C85.9105 318.057 85.6633 317.411 85.1688 316.958C84.688 316.491 83.96 316.257 82.9847 316.257C82.3391 316.257 81.7073 316.367 81.0891 316.587C80.471 316.793 79.949 317.074 79.5232 317.432L78.699 315.948C79.2622 315.495 79.9353 315.151 80.7183 314.918C81.515 314.671 82.346 314.547 83.2114 314.547C84.7086 314.547 85.8625 314.911 86.6729 315.639C87.4833 316.367 87.8885 317.48 87.8885 318.977V325.57H86.0136ZM82.4284 325.694C81.618 325.694 80.9037 325.557 80.2856 325.282C79.6812 325.007 79.2141 324.629 78.8845 324.149C78.5548 323.654 78.39 323.098 78.39 322.48C78.39 321.889 78.5273 321.353 78.8021 320.873C79.0905 320.392 79.5507 320.007 80.1825 319.719C80.8281 319.43 81.6935 319.286 82.7787 319.286H86.2402V320.708H82.8611C81.8721 320.708 81.2059 320.873 80.8625 321.202C80.5191 321.532 80.3474 321.93 80.3474 322.397C80.3474 322.933 80.5603 323.366 80.9861 323.695C81.4119 324.011 82.0026 324.169 82.7581 324.169C83.4998 324.169 84.1454 324.004 84.6949 323.675C85.2581 323.345 85.6633 322.864 85.9105 322.232L86.302 323.592C86.041 324.238 85.5809 324.753 84.9215 325.138C84.2622 325.508 83.4312 325.694 82.4284 325.694ZM91.549 325.57V314.65H93.4446V317.617L93.2592 316.875C93.5614 316.12 94.0696 315.543 94.7839 315.145C95.4982 314.746 96.3773 314.547 97.4212 314.547V316.463C97.3388 316.449 97.2564 316.443 97.174 316.443C97.1053 316.443 97.0366 316.443 96.9679 316.443C95.9102 316.443 95.0723 316.759 94.4542 317.39C93.8361 318.022 93.527 318.936 93.527 320.131V325.57H91.549ZM119.194 314.547C120.073 314.547 120.849 314.719 121.522 315.062C122.195 315.406 122.717 315.928 123.088 316.628C123.473 317.329 123.665 318.215 123.665 319.286V325.57H121.687V319.513C121.687 318.455 121.44 317.658 120.945 317.123C120.451 316.587 119.757 316.319 118.864 316.319C118.205 316.319 117.628 316.456 117.134 316.731C116.639 317.006 116.254 317.411 115.98 317.947C115.719 318.482 115.588 319.149 115.588 319.945V325.57H113.61V319.513C113.61 318.455 113.363 317.658 112.868 317.123C112.388 316.587 111.694 316.319 110.787 316.319C110.142 316.319 109.572 316.456 109.077 316.731C108.583 317.006 108.198 317.411 107.923 317.947C107.649 318.482 107.511 319.149 107.511 319.945V325.57H105.533V314.65H107.429V317.555L107.12 316.814C107.463 316.099 107.992 315.543 108.706 315.145C109.421 314.746 110.252 314.547 111.2 314.547C112.243 314.547 113.143 314.808 113.899 315.33C114.654 315.838 115.149 316.614 115.382 317.658L114.579 317.329C114.908 316.491 115.485 315.818 116.309 315.309C117.134 314.801 118.095 314.547 119.194 314.547ZM132.167 325.694C131 325.694 129.969 325.454 129.077 324.973C128.197 324.492 127.511 323.833 127.016 322.995C126.535 322.157 126.295 321.195 126.295 320.11C126.295 319.025 126.529 318.063 126.996 317.226C127.476 316.388 128.129 315.735 128.953 315.268C129.791 314.787 130.732 314.547 131.776 314.547C132.833 314.547 133.768 314.781 134.578 315.248C135.388 315.715 136.02 316.374 136.474 317.226C136.941 318.063 137.174 319.046 137.174 320.172C137.174 320.254 137.167 320.351 137.153 320.46C137.153 320.57 137.147 320.673 137.133 320.77H127.84V319.348H136.103L135.299 319.842C135.313 319.142 135.169 318.517 134.866 317.967C134.564 317.418 134.145 316.992 133.61 316.69C133.088 316.374 132.476 316.216 131.776 316.216C131.089 316.216 130.478 316.374 129.942 316.69C129.406 316.992 128.987 317.425 128.685 317.988C128.383 318.537 128.232 319.169 128.232 319.884V320.213C128.232 320.941 128.397 321.594 128.726 322.171C129.07 322.734 129.544 323.173 130.148 323.489C130.752 323.805 131.446 323.963 132.229 323.963C132.875 323.963 133.458 323.853 133.98 323.634C134.516 323.414 134.983 323.084 135.382 322.645L136.474 323.922C135.979 324.499 135.361 324.938 134.619 325.241C133.891 325.543 133.074 325.694 132.167 325.694ZM139.921 325.57V310.282H141.899V325.57H139.921ZM151.506 314.547C152.399 314.547 153.182 314.719 153.855 315.062C154.542 315.406 155.078 315.928 155.462 316.628C155.847 317.329 156.039 318.215 156.039 319.286V325.57H154.061V319.513C154.061 318.455 153.8 317.658 153.278 317.123C152.77 316.587 152.049 316.319 151.115 316.319C150.414 316.319 149.803 316.456 149.281 316.731C148.759 317.006 148.354 317.411 148.066 317.947C147.791 318.482 147.653 319.149 147.653 319.945V325.57H145.675V310.282H147.653V317.596L147.262 316.814C147.619 316.099 148.169 315.543 148.91 315.145C149.652 314.746 150.517 314.547 151.506 314.547ZM164.377 325.694C163.278 325.694 162.303 325.454 161.451 324.973C160.6 324.492 159.927 323.833 159.432 322.995C158.938 322.143 158.69 321.182 158.69 320.11C158.69 319.025 158.938 318.063 159.432 317.226C159.927 316.388 160.6 315.735 161.451 315.268C162.303 314.787 163.278 314.547 164.377 314.547C165.462 314.547 166.431 314.787 167.282 315.268C168.148 315.735 168.821 316.388 169.302 317.226C169.796 318.05 170.043 319.011 170.043 320.11C170.043 321.195 169.796 322.157 169.302 322.995C168.821 323.833 168.148 324.492 167.282 324.973C166.431 325.454 165.462 325.694 164.377 325.694ZM164.377 323.963C165.078 323.963 165.703 323.805 166.252 323.489C166.815 323.173 167.255 322.727 167.571 322.15C167.887 321.559 168.045 320.879 168.045 320.11C168.045 319.327 167.887 318.654 167.571 318.091C167.255 317.514 166.815 317.068 166.252 316.752C165.703 316.436 165.078 316.278 164.377 316.278C163.677 316.278 163.052 316.436 162.502 316.752C161.953 317.068 161.513 317.514 161.184 318.091C160.854 318.654 160.689 319.327 160.689 320.11C160.689 320.879 160.854 321.559 161.184 322.15C161.513 322.727 161.953 323.173 162.502 323.489C163.052 323.805 163.677 323.963 164.377 323.963ZM172.779 325.57V314.65H174.674V317.617L174.489 316.875C174.791 316.12 175.299 315.543 176.014 315.145C176.728 314.746 177.607 314.547 178.651 314.547V316.463C178.569 316.449 178.486 316.443 178.404 316.443C178.335 316.443 178.266 316.443 178.198 316.443C177.14 316.443 176.302 316.759 175.684 317.39C175.066 318.022 174.757 318.936 174.757 320.131V325.57H172.779ZM185.851 325.694C184.683 325.694 183.653 325.454 182.76 324.973C181.881 324.492 181.194 323.833 180.7 322.995C180.219 322.157 179.979 321.195 179.979 320.11C179.979 319.025 180.212 318.063 180.679 317.226C181.16 316.388 181.813 315.735 182.637 315.268C183.475 314.787 184.416 314.547 185.46 314.547C186.517 314.547 187.451 314.781 188.262 315.248C189.072 315.715 189.704 316.374 190.157 317.226C190.624 318.063 190.858 319.046 190.858 320.172C190.858 320.254 190.851 320.351 190.837 320.46C190.837 320.57 190.83 320.673 190.817 320.77H181.524V319.348H189.786L188.983 319.842C188.997 319.142 188.852 318.517 188.55 317.967C188.248 317.418 187.829 316.992 187.293 316.69C186.771 316.374 186.16 316.216 185.46 316.216C184.773 316.216 184.161 316.374 183.626 316.69C183.09 316.992 182.671 317.425 182.369 317.988C182.067 318.537 181.916 319.169 181.916 319.884V320.213C181.916 320.941 182.08 321.594 182.41 322.171C182.753 322.734 183.227 323.173 183.832 323.489C184.436 323.805 185.13 323.963 185.913 323.963C186.558 323.963 187.142 323.853 187.664 323.634C188.2 323.414 188.667 323.084 189.065 322.645L190.157 323.922C189.663 324.499 189.045 324.938 188.303 325.241C187.575 325.543 186.758 325.694 185.851 325.694ZM196.736 325.694C195.83 325.694 194.964 325.57 194.14 325.323C193.33 325.076 192.691 324.774 192.224 324.416L193.048 322.851C193.515 323.166 194.092 323.434 194.779 323.654C195.466 323.874 196.166 323.984 196.881 323.984C197.801 323.984 198.46 323.853 198.859 323.592C199.271 323.331 199.477 322.967 199.477 322.5C199.477 322.157 199.353 321.889 199.106 321.697C198.859 321.504 198.529 321.36 198.117 321.264C197.718 321.168 197.272 321.085 196.778 321.017C196.283 320.934 195.789 320.838 195.294 320.728C194.8 320.605 194.346 320.44 193.934 320.234C193.522 320.014 193.192 319.719 192.945 319.348C192.698 318.963 192.574 318.455 192.574 317.823C192.574 317.164 192.76 316.587 193.131 316.092C193.501 315.598 194.023 315.22 194.696 314.959C195.383 314.684 196.194 314.547 197.128 314.547C197.842 314.547 198.563 314.636 199.291 314.815C200.033 314.98 200.637 315.22 201.104 315.536L200.26 317.102C199.765 316.772 199.25 316.546 198.714 316.422C198.179 316.298 197.643 316.237 197.107 316.237C196.242 316.237 195.596 316.381 195.17 316.669C194.745 316.944 194.532 317.301 194.532 317.741C194.532 318.112 194.655 318.4 194.903 318.606C195.164 318.798 195.493 318.949 195.892 319.059C196.304 319.169 196.757 319.265 197.251 319.348C197.746 319.417 198.24 319.513 198.735 319.636C199.229 319.746 199.676 319.904 200.074 320.11C200.486 320.316 200.816 320.605 201.063 320.976C201.324 321.346 201.455 321.841 201.455 322.459C201.455 323.118 201.262 323.688 200.878 324.169C200.493 324.65 199.951 325.028 199.25 325.302C198.549 325.563 197.712 325.694 196.736 325.694ZM213.972 325.694C212.915 325.694 211.967 325.46 211.129 324.993C210.305 324.526 209.652 323.874 209.172 323.036C208.691 322.198 208.45 321.223 208.45 320.11C208.45 318.998 208.691 318.029 209.172 317.205C209.652 316.367 210.305 315.715 211.129 315.248C211.967 314.781 212.915 314.547 213.972 314.547C214.893 314.547 215.724 314.753 216.466 315.165C217.207 315.577 217.798 316.195 218.237 317.02C218.691 317.844 218.917 318.874 218.917 320.11C218.917 321.346 218.698 322.377 218.258 323.201C217.832 324.025 217.248 324.65 216.507 325.076C215.765 325.488 214.92 325.694 213.972 325.694ZM214.137 323.963C214.824 323.963 215.442 323.805 215.992 323.489C216.555 323.173 216.994 322.727 217.31 322.15C217.64 321.559 217.805 320.879 217.805 320.11C217.805 319.327 217.64 318.654 217.31 318.091C216.994 317.514 216.555 317.068 215.992 316.752C215.442 316.436 214.824 316.278 214.137 316.278C213.437 316.278 212.812 316.436 212.262 316.752C211.713 317.068 211.273 317.514 210.944 318.091C210.614 318.654 210.449 319.327 210.449 320.11C210.449 320.879 210.614 321.559 210.944 322.15C211.273 322.727 211.713 323.173 212.262 323.489C212.812 323.805 213.437 323.963 214.137 323.963ZM217.867 325.57V322.624L217.99 320.09L217.784 317.555V310.282H219.762V325.57H217.867ZM228.367 325.694C227.2 325.694 226.17 325.454 225.277 324.973C224.398 324.492 223.711 323.833 223.216 322.995C222.736 322.157 222.495 321.195 222.495 320.11C222.495 319.025 222.729 318.063 223.196 317.226C223.676 316.388 224.329 315.735 225.153 315.268C225.991 314.787 226.932 314.547 227.976 314.547C229.034 314.547 229.968 314.781 230.778 315.248C231.589 315.715 232.22 316.374 232.674 317.226C233.141 318.063 233.374 319.046 233.374 320.172C233.374 320.254 233.367 320.351 233.354 320.46C233.354 320.57 233.347 320.673 233.333 320.77H224.04V319.348H232.303L231.499 319.842C231.513 319.142 231.369 318.517 231.067 317.967C230.764 317.418 230.345 316.992 229.81 316.69C229.288 316.374 228.676 316.216 227.976 316.216C227.289 316.216 226.678 316.374 226.142 316.69C225.606 316.992 225.187 317.425 224.885 317.988C224.583 318.537 224.432 319.169 224.432 319.884V320.213C224.432 320.941 224.597 321.594 224.926 322.171C225.27 322.734 225.744 323.173 226.348 323.489C226.953 323.805 227.646 323.963 228.429 323.963C229.075 323.963 229.659 323.853 230.181 323.634C230.716 323.414 231.183 323.084 231.582 322.645L232.674 323.922C232.179 324.499 231.561 324.938 230.819 325.241C230.091 325.543 229.274 325.694 228.367 325.694ZM240.88 325.694C239.768 325.694 238.772 325.454 237.893 324.973C237.027 324.492 236.348 323.833 235.853 322.995C235.359 322.157 235.111 321.195 235.111 320.11C235.111 319.025 235.359 318.063 235.853 317.226C236.348 316.388 237.027 315.735 237.893 315.268C238.772 314.787 239.768 314.547 240.88 314.547C241.869 314.547 242.749 314.746 243.518 315.145C244.301 315.529 244.905 316.106 245.331 316.875L243.827 317.844C243.47 317.308 243.03 316.917 242.508 316.669C242 316.408 241.451 316.278 240.86 316.278C240.146 316.278 239.507 316.436 238.944 316.752C238.38 317.068 237.934 317.514 237.604 318.091C237.275 318.654 237.11 319.327 237.11 320.11C237.11 320.893 237.275 321.573 237.604 322.15C237.934 322.727 238.38 323.173 238.944 323.489C239.507 323.805 240.146 323.963 240.86 323.963C241.451 323.963 242 323.84 242.508 323.592C243.03 323.331 243.47 322.933 243.827 322.397L245.331 323.345C244.905 324.101 244.301 324.684 243.518 325.096C242.749 325.495 241.869 325.694 240.88 325.694ZM247.751 325.57V314.65H249.729V325.57H247.751ZM248.74 312.548C248.355 312.548 248.033 312.425 247.772 312.178C247.524 311.93 247.401 311.628 247.401 311.271C247.401 310.9 247.524 310.591 247.772 310.344C248.033 310.097 248.355 309.973 248.74 309.973C249.125 309.973 249.441 310.097 249.688 310.344C249.949 310.577 250.079 310.873 250.079 311.23C250.079 311.601 249.956 311.917 249.708 312.178C249.461 312.425 249.138 312.548 248.74 312.548ZM256.638 325.694C255.731 325.694 254.866 325.57 254.041 325.323C253.231 325.076 252.592 324.774 252.125 324.416L252.949 322.851C253.416 323.166 253.993 323.434 254.68 323.654C255.367 323.874 256.068 323.984 256.782 323.984C257.702 323.984 258.361 323.853 258.76 323.592C259.172 323.331 259.378 322.967 259.378 322.5C259.378 322.157 259.254 321.889 259.007 321.697C258.76 321.504 258.43 321.36 258.018 321.264C257.62 321.168 257.173 321.085 256.679 321.017C256.184 320.934 255.69 320.838 255.195 320.728C254.701 320.605 254.247 320.44 253.835 320.234C253.423 320.014 253.094 319.719 252.846 319.348C252.599 318.963 252.475 318.455 252.475 317.823C252.475 317.164 252.661 316.587 253.032 316.092C253.403 315.598 253.925 315.22 254.598 314.959C255.285 314.684 256.095 314.547 257.029 314.547C257.743 314.547 258.464 314.636 259.192 314.815C259.934 314.98 260.539 315.22 261.006 315.536L260.161 317.102C259.666 316.772 259.151 316.546 258.616 316.422C258.08 316.298 257.544 316.237 257.008 316.237C256.143 316.237 255.497 316.381 255.072 316.669C254.646 316.944 254.433 317.301 254.433 317.741C254.433 318.112 254.557 318.4 254.804 318.606C255.065 318.798 255.394 318.949 255.793 319.059C256.205 319.169 256.658 319.265 257.153 319.348C257.647 319.417 258.142 319.513 258.636 319.636C259.131 319.746 259.577 319.904 259.975 320.11C260.388 320.316 260.717 320.605 260.964 320.976C261.225 321.346 261.356 321.841 261.356 322.459C261.356 323.118 261.164 323.688 260.779 324.169C260.394 324.65 259.852 325.028 259.151 325.302C258.451 325.563 257.613 325.694 256.638 325.694ZM268.505 325.694C267.406 325.694 266.431 325.454 265.579 324.973C264.728 324.492 264.055 323.833 263.56 322.995C263.066 322.143 262.818 321.182 262.818 320.11C262.818 319.025 263.066 318.063 263.56 317.226C264.055 316.388 264.728 315.735 265.579 315.268C266.431 314.787 267.406 314.547 268.505 314.547C269.59 314.547 270.559 314.787 271.41 315.268C272.276 315.735 272.949 316.388 273.43 317.226C273.924 318.05 274.171 319.011 274.171 320.11C274.171 321.195 273.924 322.157 273.43 322.995C272.949 323.833 272.276 324.492 271.41 324.973C270.559 325.454 269.59 325.694 268.505 325.694ZM268.505 323.963C269.206 323.963 269.831 323.805 270.38 323.489C270.943 323.173 271.383 322.727 271.699 322.15C272.015 321.559 272.173 320.879 272.173 320.11C272.173 319.327 272.015 318.654 271.699 318.091C271.383 317.514 270.943 317.068 270.38 316.752C269.831 316.436 269.206 316.278 268.505 316.278C267.805 316.278 267.18 316.436 266.63 316.752C266.081 317.068 265.641 317.514 265.311 318.091C264.982 318.654 264.817 319.327 264.817 320.11C264.817 320.879 264.982 321.559 265.311 322.15C265.641 322.727 266.081 323.173 266.63 323.489C267.18 323.805 267.805 323.963 268.505 323.963ZM269.927 313.002C269.597 313.002 269.302 312.933 269.041 312.796C268.794 312.658 268.567 312.5 268.361 312.322C268.155 312.129 267.956 311.965 267.763 311.827C267.571 311.69 267.379 311.621 267.186 311.621C266.884 311.621 266.637 311.738 266.445 311.972C266.266 312.191 266.163 312.5 266.136 312.899H265.023C265.05 312.129 265.243 311.518 265.6 311.065C265.957 310.612 266.438 310.385 267.042 310.385C267.372 310.385 267.667 310.461 267.928 310.612C268.189 310.749 268.423 310.914 268.629 311.106C268.835 311.285 269.027 311.443 269.206 311.58C269.398 311.717 269.59 311.786 269.783 311.786C270.085 311.786 270.332 311.676 270.524 311.456C270.717 311.237 270.82 310.934 270.833 310.55H271.946C271.932 311.278 271.74 311.868 271.369 312.322C271.012 312.775 270.531 313.002 269.927 313.002ZM281.769 325.694C280.602 325.694 279.572 325.454 278.679 324.973C277.8 324.492 277.113 323.833 276.618 322.995C276.138 322.157 275.897 321.195 275.897 320.11C275.897 319.025 276.131 318.063 276.598 317.226C277.079 316.388 277.731 315.735 278.555 315.268C279.393 314.787 280.334 314.547 281.378 314.547C282.436 314.547 283.37 314.781 284.18 315.248C284.991 315.715 285.622 316.374 286.076 317.226C286.543 318.063 286.776 319.046 286.776 320.172C286.776 320.254 286.769 320.351 286.756 320.46C286.756 320.57 286.749 320.673 286.735 320.77H277.443V319.348H285.705L284.901 319.842C284.915 319.142 284.771 318.517 284.469 317.967C284.166 317.418 283.747 316.992 283.212 316.69C282.69 316.374 282.079 316.216 281.378 316.216C280.691 316.216 280.08 316.374 279.544 316.69C279.008 316.992 278.59 317.425 278.287 317.988C277.985 318.537 277.834 319.169 277.834 319.884V320.213C277.834 320.941 277.999 321.594 278.329 322.171C278.672 322.734 279.146 323.173 279.75 323.489C280.355 323.805 281.048 323.963 281.831 323.963C282.477 323.963 283.061 323.853 283.583 323.634C284.118 323.414 284.585 323.084 284.984 322.645L286.076 323.922C285.581 324.499 284.963 324.938 284.221 325.241C283.493 325.543 282.676 325.694 281.769 325.694ZM292.655 325.694C291.748 325.694 290.883 325.57 290.059 325.323C289.248 325.076 288.609 324.774 288.142 324.416L288.967 322.851C289.434 323.166 290.011 323.434 290.697 323.654C291.384 323.874 292.085 323.984 292.799 323.984C293.719 323.984 294.379 323.853 294.777 323.592C295.189 323.331 295.395 322.967 295.395 322.5C295.395 322.157 295.271 321.889 295.024 321.697C294.777 321.504 294.447 321.36 294.035 321.264C293.637 321.168 293.19 321.085 292.696 321.017C292.201 320.934 291.707 320.838 291.212 320.728C290.718 320.605 290.265 320.44 289.853 320.234C289.44 320.014 289.111 319.719 288.864 319.348C288.616 318.963 288.493 318.455 288.493 317.823C288.493 317.164 288.678 316.587 289.049 316.092C289.42 315.598 289.942 315.22 290.615 314.959C291.302 314.684 292.112 314.547 293.046 314.547C293.761 314.547 294.482 314.636 295.21 314.815C295.951 314.98 296.556 315.22 297.023 315.536L296.178 317.102C295.684 316.772 295.168 316.546 294.633 316.422C294.097 316.298 293.561 316.237 293.026 316.237C292.16 316.237 291.515 316.381 291.089 316.669C290.663 316.944 290.45 317.301 290.45 317.741C290.45 318.112 290.574 318.4 290.821 318.606C291.082 318.798 291.412 318.949 291.81 319.059C292.222 319.169 292.675 319.265 293.17 319.348C293.664 319.417 294.159 319.513 294.653 319.636C295.148 319.746 295.594 319.904 295.993 320.11C296.405 320.316 296.734 320.605 296.982 320.976C297.243 321.346 297.373 321.841 297.373 322.459C297.373 323.118 297.181 323.688 296.796 324.169C296.412 324.65 295.869 325.028 295.168 325.302C294.468 325.563 293.63 325.694 292.655 325.694ZM300.319 325.694C299.934 325.694 299.605 325.563 299.33 325.302C299.055 325.028 298.918 324.684 298.918 324.272C298.918 323.86 299.055 323.524 299.33 323.263C299.605 323.002 299.934 322.871 300.319 322.871C300.69 322.871 301.006 323.002 301.267 323.263C301.542 323.524 301.679 323.86 301.679 324.272C301.679 324.684 301.542 325.028 301.267 325.302C301.006 325.563 300.69 325.694 300.319 325.694Z" fill="black"/>
<mask id="mask0_1064_3680" style="mask-type:luminance" maskUnits="userSpaceOnUse" x="34" y="36" width="128" height="117">
<path d="M161.4 36.0586H34.3403V152.184H161.4V36.0586Z" fill="white"/>
</mask>
<g mask="url(#mask0_1064_3680)">
<path d="M91.8509 56.1173C91.8509 56.1173 93.0748 56.1821 93.2354 55.9244C93.3326 55.7639 93.284 54.5562 93.686 53.8331C94.041 53.1895 94.4754 53.1409 94.8127 52.6902C95.714 51.4825 94.4592 49.1334 94.2339 48.6503C93.3635 46.8477 93.2678 43.4043 96.826 36.2422C99.9321 42.5354 99.8688 46.1083 99.1441 48.2483C98.9512 48.7785 97.7921 51.9494 98.854 52.8021C99.1117 53.0112 99.3047 52.8993 99.611 53.1895C100.464 53.9612 100.496 55.8611 100.61 55.9568C100.721 56.054 101.816 55.8449 101.816 56.2307V61.219C107.146 59.8685 112.379 59.6903 117.804 60.5754C124.485 61.6535 131.392 65.0011 138.042 61.7831C139.04 61.3 141.003 59.5784 142.051 60.3339C143.419 61.3162 140.666 64.3104 139.844 64.9849C139.507 65.2751 138.363 65.8392 138.299 66.0645C138.186 66.4018 138.235 67.689 138.299 68.091L157.861 115.939C158.166 116.389 161.241 115.086 159.422 118.369C155.8 124.887 141.101 126.56 134.467 126.207C129.589 125.949 115.937 123.085 114.825 117.274C114.488 115.488 116.065 116.389 116.483 115.746L136.416 68.3974L136.495 66.82C134.291 67.1588 132.182 67.4636 129.91 67.3517C126.208 67.175 122.408 65.9835 118.706 65.7743C114.069 65.5004 109.094 65.9997 104.635 67.3031C104.215 67.4312 101.56 68.2854 101.462 68.4298C101.269 68.7199 101.607 70.3282 101.318 70.988C101.14 71.3915 100.448 71.3753 100.206 71.6331C99.7067 72.1795 100.206 74.2075 100.206 74.9483C100.48 88.3373 100.786 101.695 101.076 115.07C101.188 119.769 101.14 124.485 101.253 129.167C103.894 129.248 103.797 132.773 104.714 134.72C105.713 136.845 107.29 138.39 109.48 139.242C111.348 139.967 113.361 139.821 114.729 141.528C115.05 141.93 115.389 142.944 115.454 142.992C115.582 143.089 117.997 143.153 118.464 143.234C119.463 143.41 120.717 144.312 121.298 145.134C121.491 145.406 121.893 146.453 121.957 146.484C122.102 146.565 122.601 146.517 122.924 146.646C125.065 147.515 126.064 149.511 125.95 151.764H68.0067C67.9419 150.106 68.6503 148.175 70.0509 147.241C70.4853 146.951 71.6297 146.646 71.8226 146.469C71.967 146.324 72.3219 145.406 72.5944 145.053C73.2556 144.167 74.3985 143.394 75.4928 143.217C76.2012 143.106 77.7152 143.315 78.2145 143.008C78.3264 142.944 78.6166 142.026 78.8581 141.689C80.1453 139.902 82.5445 139.951 84.4119 139.178C86.7316 138.229 88.1955 136.603 89.1779 134.301C89.9997 132.37 89.8863 129.764 92.1882 129.039C92.2692 125.08 92.2368 121.105 92.3502 117.146C92.7199 102.903 93.0262 88.6599 93.3959 74.4004C93.3959 73.8216 93.8142 72.1309 93.5579 71.7126C93.5255 71.6802 93.01 71.5197 92.7847 71.3429C91.658 70.4254 92.4946 69.122 92.0925 68.527C91.8996 68.2368 88.2765 67.3193 87.6491 67.1912C84.2838 66.4504 80.4516 66.0645 77.0068 66.2574C70.8079 66.5947 64.6576 69.3797 58.3467 67.8348V69.3311C64.6738 85.3122 71.693 101.036 77.9892 117.049C80.403 116.615 79.8728 118.32 78.9862 119.753C75.1879 125.917 60.955 127.591 54.3864 127.22C49.5233 126.948 36.0488 124.065 34.8721 118.336C34.47 116.389 36.4671 117.372 36.7882 116.952L56.3172 69.7656C56.3982 69.3473 56.4954 67.4003 56.3496 67.1588C56.2863 67.0616 54.7399 66.1926 54.3702 65.8863C53.516 65.1793 51.1183 62.6035 52.3407 61.5902C53.3231 60.7536 55.3835 62.4915 56.4468 62.9584C63.8682 66.144 72.2409 61.4135 79.7918 60.6564C83.7683 60.2544 87.9216 60.5754 91.8023 61.5254C91.9467 60.8332 91.6094 56.2793 91.8023 56.1026L91.8509 56.1173ZM137.945 116.036L136.625 71.8893L118.142 116.036H137.945ZM156.347 116.036L138.379 72.4048L139.523 116.036H156.347ZM76.4265 117.082L58.0242 73.2899L56.8003 117.082H76.4265ZM55.2229 117.082L56.3658 73.9821L38.5599 117.082H55.2229Z" fill="#329BD5"/>
</g>
<defs>
<filter id="filter0_d_1064_3680" x="5.91278e-05" y="0" width="348.555" height="343.402" filterUnits="userSpaceOnUse" color-interpolation-filters="sRGB">
<feFlood flood-opacity="0" result="BackgroundImageFix"/>
<feColorMatrix in="SourceAlpha" type="matrix" values="0 0 0 0 0 0 0 0 0 0 0 0 0 0 0 0 0 0 127 0" result="hardAlpha"/>
<feOffset dx="-5.15106"/>
<feComposite in2="hardAlpha" operator="out"/>
<feColorMatrix type="matrix" values="0 0 0 0 0 0 0 0 0 0 0 0 0 0 0 0 0 0 1 0"/>
<feBlend mode="normal" in2="BackgroundImageFix" result="effect1_dropShadow_1064_3680"/>
<feBlend mode="normal" in="SourceGraphic" in2="effect1_dropShadow_1064_3680" result="shape"/>
</filter>
</defs>
</svg>
