<svg width="349" height="344" viewBox="0 0 349 344" fill="none" xmlns="http://www.w3.org/2000/svg">
<g filter="url(#filter0_d_1064_3544)">
<rect x="5.15112" width="343.404" height="343.404" fill="white"/>
</g>
<path d="M49.4297 226.147C46.7695 226.147 44.3176 225.731 42.074 224.897C39.8625 224.032 37.9234 222.814 36.2567 221.243C34.6221 219.673 33.3401 217.83 32.4106 215.715C31.5132 213.599 31.0644 211.276 31.0644 208.744C31.0644 206.211 31.5132 203.888 32.4106 201.772C33.3401 199.657 34.6381 197.814 36.3048 196.244C37.9714 194.673 39.9266 193.471 42.1701 192.638C44.4137 191.772 46.8816 191.34 49.5739 191.34C52.5547 191.34 55.2309 191.837 57.6027 192.83C60.0066 193.824 62.0258 195.266 63.6604 197.157L58.6604 201.772C57.4425 200.49 56.1123 199.545 54.6701 198.936C53.2278 198.295 51.6572 197.974 49.9585 197.974C48.3239 197.974 46.8336 198.231 45.4874 198.744C44.1413 199.256 42.9714 199.994 41.9778 200.955C41.0163 201.917 40.2631 203.054 39.7182 204.369C39.2054 205.683 38.949 207.141 38.949 208.744C38.949 210.314 39.2054 211.756 39.7182 213.07C40.2631 214.384 41.0163 215.538 41.9778 216.532C42.9714 217.493 44.1252 218.231 45.4393 218.743C46.7855 219.256 48.2598 219.513 49.8624 219.513C51.4008 219.513 52.8912 219.272 54.3335 218.792C55.8079 218.279 57.2341 217.429 58.6123 216.243L63.0354 221.868C61.2085 223.247 59.0771 224.304 56.6412 225.041C54.2374 225.779 51.8335 226.147 49.4297 226.147ZM55.92 220.859V208.215H63.0354V221.868L55.92 220.859ZM85.6066 225.57V220.522L85.1258 219.417V210.378C85.1258 208.776 84.629 207.526 83.6354 206.628C82.6739 205.731 81.1835 205.282 79.1643 205.282C77.7861 205.282 76.424 205.506 75.0778 205.955C73.7637 206.372 72.6419 206.949 71.7125 207.686L69.0202 202.445C70.4304 201.452 72.1291 200.683 74.1163 200.138C76.1034 199.593 78.1227 199.32 80.1739 199.32C84.1162 199.32 87.1771 200.25 89.3566 202.109C91.536 203.968 92.6258 206.869 92.6258 210.811V225.57H85.6066ZM77.722 225.955C75.7028 225.955 73.9721 225.618 72.5298 224.945C71.0875 224.24 69.9817 223.295 69.2125 222.109C68.4432 220.923 68.0586 219.593 68.0586 218.118C68.0586 216.58 68.4272 215.234 69.1644 214.08C69.9336 212.926 71.1355 212.029 72.7701 211.388C74.4047 210.715 76.5361 210.378 79.1643 210.378H86.0393V214.753H79.9816C78.2188 214.753 77.0009 215.042 76.3278 215.618C75.6868 216.195 75.3663 216.917 75.3663 217.782C75.3663 218.743 75.7349 219.513 76.472 220.09C77.2413 220.634 78.2829 220.907 79.597 220.907C80.847 220.907 81.9688 220.618 82.9624 220.042C83.956 219.433 84.6771 218.551 85.1258 217.397L86.2797 220.859C85.7348 222.525 84.7412 223.791 83.2989 224.657C81.8566 225.522 79.9977 225.955 77.722 225.955ZM99.4136 225.57V199.705H106.577V207.013L105.567 204.897C106.337 203.07 107.571 201.692 109.269 200.763C110.968 199.801 113.035 199.32 115.471 199.32V206.244C115.151 206.211 114.862 206.195 114.606 206.195C114.349 206.163 114.077 206.147 113.788 206.147C111.737 206.147 110.071 206.74 108.789 207.926C107.539 209.08 106.914 210.891 106.914 213.359V225.57H99.4136ZM119.978 225.57V199.705H127.141V207.013L126.131 204.897C126.901 203.07 128.135 201.692 129.833 200.763C131.532 199.801 133.599 199.32 136.035 199.32V206.244C135.715 206.211 135.426 206.195 135.17 206.195C134.913 206.163 134.641 206.147 134.353 206.147C132.301 206.147 130.635 206.74 129.353 207.926C128.103 209.08 127.478 210.891 127.478 213.359V225.57H119.978ZM154.67 225.57V220.522L154.189 219.417V210.378C154.189 208.776 153.692 207.526 152.699 206.628C151.737 205.731 150.247 205.282 148.227 205.282C146.849 205.282 145.487 205.506 144.141 205.955C142.827 206.372 141.705 206.949 140.776 207.686L138.083 202.445C139.494 201.452 141.192 200.683 143.179 200.138C145.167 199.593 147.186 199.32 149.237 199.32C153.179 199.32 156.24 200.25 158.42 202.109C160.599 203.968 161.689 206.869 161.689 210.811V225.57H154.67ZM146.785 225.955C144.766 225.955 143.035 225.618 141.593 224.945C140.151 224.24 139.045 223.295 138.276 222.109C137.506 220.923 137.122 219.593 137.122 218.118C137.122 216.58 137.49 215.234 138.228 214.08C138.997 212.926 140.199 212.029 141.833 211.388C143.468 210.715 145.599 210.378 148.227 210.378H155.102V214.753H149.045C147.282 214.753 146.064 215.042 145.391 215.618C144.75 216.195 144.429 216.917 144.429 217.782C144.429 218.743 144.798 219.513 145.535 220.09C146.304 220.634 147.346 220.907 148.66 220.907C149.91 220.907 151.032 220.618 152.026 220.042C153.019 219.433 153.74 218.551 154.189 217.397L155.343 220.859C154.798 222.525 153.804 223.791 152.362 224.657C150.92 225.522 149.061 225.955 146.785 225.955ZM31.3529 260.57V246.147H33.0424L42.5822 257.995H41.6962V246.147H43.7567V260.57H42.0671L32.5273 248.723H33.4133V260.57H31.3529ZM52.38 260.694C51.446 260.694 50.6218 260.522 49.9075 260.179C49.207 259.835 48.6575 259.313 48.2592 258.613C47.8746 257.899 47.6823 257.006 47.6823 255.934V249.65H49.6603V255.708C49.6603 256.779 49.9144 257.583 50.4226 258.118C50.9446 258.654 51.6726 258.922 52.6067 258.922C53.2935 258.922 53.891 258.785 54.3992 258.51C54.9075 258.221 55.299 257.809 55.5737 257.274C55.8484 256.724 55.9858 256.065 55.9858 255.296V249.65H57.9638V260.57H56.0888V257.624L56.3979 258.407C56.0407 259.135 55.505 259.698 54.7907 260.096C54.0764 260.495 53.2729 260.694 52.38 260.694ZM67.5604 249.547C68.4532 249.547 69.2362 249.719 69.9093 250.062C70.5961 250.406 71.1318 250.928 71.5164 251.628C71.901 252.329 72.0933 253.215 72.0933 254.286V260.57H70.1153V254.513C70.1153 253.455 69.8543 252.658 69.3323 252.123C68.8241 251.587 68.103 251.319 67.1689 251.319C66.4683 251.319 65.8571 251.456 65.3351 251.731C64.8131 252.006 64.4079 252.411 64.1195 252.947C63.8447 253.482 63.7074 254.149 63.7074 254.945V260.57H61.7294V249.65H63.625V252.596L63.3159 251.814C63.673 251.099 64.2225 250.543 64.9642 250.145C65.706 249.746 66.5714 249.547 67.5604 249.547ZM80.5135 260.694C79.4009 260.694 78.405 260.454 77.5259 259.973C76.6605 259.492 75.9806 258.833 75.4861 257.995C74.9916 257.157 74.7443 256.195 74.7443 255.11C74.7443 254.025 74.9916 253.063 75.4861 252.226C75.9806 251.388 76.6605 250.735 77.5259 250.268C78.405 249.787 79.4009 249.547 80.5135 249.547C81.5025 249.547 82.3816 249.746 83.1509 250.145C83.9338 250.529 84.5382 251.106 84.964 251.875L83.4599 252.844C83.1028 252.308 82.6632 251.917 82.1413 251.669C81.633 251.408 81.0836 251.278 80.4929 251.278C79.7786 251.278 79.1399 251.436 78.5767 251.752C78.0135 252.068 77.5671 252.514 77.2374 253.091C76.9078 253.654 76.7429 254.327 76.7429 255.11C76.7429 255.893 76.9078 256.573 77.2374 257.15C77.5671 257.727 78.0135 258.173 78.5767 258.489C79.1399 258.805 79.7786 258.963 80.4929 258.963C81.0836 258.963 81.633 258.84 82.1413 258.592C82.6632 258.331 83.1028 257.933 83.4599 257.397L84.964 258.345C84.5382 259.101 83.9338 259.684 83.1509 260.096C82.3816 260.495 81.5025 260.694 80.5135 260.694ZM94.3037 260.57V258.263L94.2007 257.83V253.895C94.2007 253.057 93.9535 252.411 93.459 251.958C92.9782 251.491 92.2502 251.257 91.2749 251.257C90.6293 251.257 89.9974 251.367 89.3793 251.587C88.7612 251.793 88.2392 252.074 87.8134 252.432L86.9892 250.948C87.5524 250.495 88.2255 250.151 89.0084 249.918C89.8051 249.671 90.6362 249.547 91.5015 249.547C92.9988 249.547 94.1526 249.911 94.9631 250.639C95.7735 251.367 96.1787 252.48 96.1787 253.977V260.57H94.3037ZM90.7186 260.694C89.9082 260.694 89.1939 260.557 88.5757 260.282C87.9714 260.007 87.5043 259.629 87.1747 259.149C86.845 258.654 86.6802 258.098 86.6802 257.48C86.6802 256.889 86.8175 256.353 87.0922 255.873C87.3807 255.392 87.8409 255.007 88.4727 254.719C89.1183 254.43 89.9837 254.286 91.0689 254.286H94.5304V255.708H91.1513C90.1623 255.708 89.4961 255.873 89.1527 256.202C88.8093 256.532 88.6376 256.93 88.6376 257.397C88.6376 257.933 88.8505 258.366 89.2763 258.695C89.7021 259.011 90.2928 259.169 91.0483 259.169C91.79 259.169 92.4356 259.004 92.9851 258.675C93.5482 258.345 93.9535 257.864 94.2007 257.232L94.5922 258.592C94.3312 259.238 93.871 259.753 93.2117 260.138C92.5524 260.508 91.7213 260.694 90.7186 260.694ZM109.885 260.694C108.827 260.694 107.879 260.46 107.042 259.993C106.217 259.526 105.565 258.874 105.084 258.036C104.603 257.198 104.363 256.223 104.363 255.11C104.363 253.998 104.603 253.029 105.084 252.205C105.565 251.367 106.217 250.715 107.042 250.248C107.879 249.781 108.827 249.547 109.885 249.547C110.805 249.547 111.636 249.753 112.378 250.165C113.12 250.577 113.71 251.195 114.15 252.02C114.603 252.844 114.83 253.874 114.83 255.11C114.83 256.346 114.61 257.377 114.171 258.201C113.745 259.025 113.161 259.65 112.419 260.076C111.677 260.488 110.833 260.694 109.885 260.694ZM110.05 258.963C110.737 258.963 111.355 258.805 111.904 258.489C112.467 258.173 112.907 257.727 113.223 257.15C113.552 256.559 113.717 255.879 113.717 255.11C113.717 254.327 113.552 253.654 113.223 253.091C112.907 252.514 112.467 252.068 111.904 251.752C111.355 251.436 110.737 251.278 110.05 251.278C109.349 251.278 108.724 251.436 108.175 251.752C107.625 252.068 107.186 252.514 106.856 253.091C106.526 253.654 106.362 254.327 106.362 255.11C106.362 255.879 106.526 256.559 106.856 257.15C107.186 257.727 107.625 258.173 108.175 258.489C108.724 258.805 109.349 258.963 110.05 258.963ZM113.779 260.57V257.624L113.903 255.09L113.697 252.555V245.282H115.675V260.57H113.779ZM124.28 260.694C123.112 260.694 122.082 260.454 121.189 259.973C120.31 259.492 119.623 258.833 119.129 257.995C118.648 257.157 118.408 256.195 118.408 255.11C118.408 254.025 118.641 253.063 119.108 252.226C119.589 251.388 120.241 250.735 121.066 250.268C121.904 249.787 122.844 249.547 123.888 249.547C124.946 249.547 125.88 249.781 126.691 250.248C127.501 250.715 128.133 251.374 128.586 252.226C129.053 253.063 129.287 254.046 129.287 255.172C129.287 255.254 129.28 255.351 129.266 255.46C129.266 255.57 129.259 255.673 129.245 255.77H119.953V254.348H128.215L127.412 254.842C127.425 254.142 127.281 253.517 126.979 252.967C126.677 252.418 126.258 251.992 125.722 251.69C125.2 251.374 124.589 251.216 123.888 251.216C123.202 251.216 122.59 251.374 122.055 251.69C121.519 251.992 121.1 252.425 120.798 252.988C120.496 253.537 120.344 254.169 120.344 254.884V255.213C120.344 255.941 120.509 256.594 120.839 257.171C121.182 257.734 121.656 258.173 122.261 258.489C122.865 258.805 123.559 258.963 124.342 258.963C124.987 258.963 125.571 258.853 126.093 258.634C126.629 258.414 127.096 258.084 127.494 257.645L128.586 258.922C128.092 259.499 127.474 259.938 126.732 260.241C126.004 260.543 125.186 260.694 124.28 260.694ZM135.165 260.694C134.259 260.694 133.393 260.57 132.569 260.323C131.759 260.076 131.12 259.774 130.653 259.416L131.477 257.851C131.944 258.166 132.521 258.434 133.208 258.654C133.895 258.874 134.595 258.984 135.309 258.984C136.23 258.984 136.889 258.853 137.287 258.592C137.7 258.331 137.906 257.967 137.906 257.5C137.906 257.157 137.782 256.889 137.535 256.697C137.287 256.504 136.958 256.36 136.546 256.264C136.147 256.168 135.701 256.085 135.206 256.017C134.712 255.934 134.217 255.838 133.723 255.728C133.228 255.605 132.775 255.44 132.363 255.234C131.951 255.014 131.621 254.719 131.374 254.348C131.127 253.963 131.003 253.455 131.003 252.823C131.003 252.164 131.189 251.587 131.559 251.092C131.93 250.598 132.452 250.22 133.125 249.959C133.812 249.684 134.623 249.547 135.557 249.547C136.271 249.547 136.992 249.636 137.72 249.815C138.462 249.98 139.066 250.22 139.533 250.536L138.689 252.102C138.194 251.772 137.679 251.546 137.143 251.422C136.607 251.298 136.072 251.237 135.536 251.237C134.671 251.237 134.025 251.381 133.599 251.669C133.173 251.944 132.961 252.301 132.961 252.741C132.961 253.112 133.084 253.4 133.331 253.606C133.592 253.798 133.922 253.949 134.32 254.059C134.733 254.169 135.186 254.265 135.68 254.348C136.175 254.417 136.669 254.513 137.164 254.636C137.658 254.746 138.105 254.904 138.503 255.11C138.915 255.316 139.245 255.605 139.492 255.976C139.753 256.346 139.884 256.841 139.884 257.459C139.884 258.118 139.691 258.688 139.307 259.169C138.922 259.65 138.379 260.028 137.679 260.302C136.978 260.563 136.14 260.694 135.165 260.694ZM142.356 260.57V249.65H144.334V260.57H142.356ZM143.345 247.548C142.96 247.548 142.637 247.425 142.376 247.178C142.129 246.93 142.005 246.628 142.005 246.271C142.005 245.9 142.129 245.591 142.376 245.344C142.637 245.097 142.96 244.973 143.345 244.973C143.729 244.973 144.045 245.097 144.292 245.344C144.553 245.577 144.684 245.873 144.684 246.23C144.684 246.601 144.56 246.917 144.313 247.178C144.066 247.425 143.743 247.548 143.345 247.548ZM151.242 260.694C150.336 260.694 149.47 260.57 148.646 260.323C147.836 260.076 147.197 259.774 146.73 259.416L147.554 257.851C148.021 258.166 148.598 258.434 149.285 258.654C149.972 258.874 150.672 258.984 151.386 258.984C152.307 258.984 152.966 258.853 153.364 258.592C153.776 258.331 153.983 257.967 153.983 257.5C153.983 257.157 153.859 256.889 153.612 256.697C153.364 256.504 153.035 256.36 152.623 256.264C152.224 256.168 151.778 256.085 151.283 256.017C150.789 255.934 150.294 255.838 149.8 255.728C149.305 255.605 148.852 255.44 148.44 255.234C148.028 255.014 147.698 254.719 147.451 254.348C147.204 253.963 147.08 253.455 147.08 252.823C147.08 252.164 147.266 251.587 147.636 251.092C148.007 250.598 148.529 250.22 149.202 249.959C149.889 249.684 150.7 249.547 151.634 249.547C152.348 249.547 153.069 249.636 153.797 249.815C154.539 249.98 155.143 250.22 155.61 250.536L154.765 252.102C154.271 251.772 153.756 251.546 153.22 251.422C152.684 251.298 152.149 251.237 151.613 251.237C150.748 251.237 150.102 251.381 149.676 251.669C149.25 251.944 149.037 252.301 149.037 252.741C149.037 253.112 149.161 253.4 149.408 253.606C149.669 253.798 149.999 253.949 150.397 254.059C150.809 254.169 151.263 254.265 151.757 254.348C152.252 254.417 152.746 254.513 153.241 254.636C153.735 254.746 154.182 254.904 154.58 255.11C154.992 255.316 155.322 255.605 155.569 255.976C155.83 256.346 155.961 256.841 155.961 257.459C155.961 258.118 155.768 258.688 155.384 259.169C154.999 259.65 154.456 260.028 153.756 260.302C153.055 260.563 152.217 260.694 151.242 260.694ZM162.183 260.694C161.084 260.694 160.232 260.399 159.628 259.808C159.023 259.217 158.721 258.373 158.721 257.274V247.26H160.699V257.191C160.699 257.782 160.843 258.235 161.132 258.551C161.434 258.867 161.86 259.025 162.409 259.025C163.027 259.025 163.542 258.853 163.954 258.51L164.573 259.932C164.27 260.193 163.906 260.385 163.481 260.508C163.069 260.632 162.636 260.694 162.183 260.694ZM156.867 251.278V249.65H163.831V251.278H156.867ZM166.964 260.57V249.65H168.942V260.57H166.964ZM167.953 247.548C167.568 247.548 167.246 247.425 166.985 247.178C166.737 246.93 166.614 246.628 166.614 246.271C166.614 245.9 166.737 245.591 166.985 245.344C167.246 245.097 167.568 244.973 167.953 244.973C168.338 244.973 168.654 245.097 168.901 245.344C169.162 245.577 169.292 245.873 169.292 246.23C169.292 246.601 169.169 246.917 168.921 247.178C168.674 247.425 168.351 247.548 167.953 247.548ZM172.719 260.57V249.65H174.614V252.617L174.429 251.875C174.731 251.12 175.239 250.543 175.954 250.145C176.668 249.746 177.547 249.547 178.591 249.547V251.463C178.508 251.449 178.426 251.443 178.344 251.443C178.275 251.443 178.206 251.443 178.138 251.443C177.08 251.443 176.242 251.759 175.624 252.39C175.006 253.022 174.697 253.936 174.697 255.131V260.57H172.719ZM191.215 260.694C190.158 260.694 189.21 260.46 188.372 259.993C187.548 259.526 186.895 258.874 186.415 258.036C185.934 257.198 185.693 256.223 185.693 255.11C185.693 253.998 185.934 253.029 186.415 252.205C186.895 251.367 187.548 250.715 188.372 250.248C189.21 249.781 190.158 249.547 191.215 249.547C192.136 249.547 192.967 249.753 193.708 250.165C194.45 250.577 195.041 251.195 195.48 252.02C195.934 252.844 196.16 253.874 196.16 255.11C196.16 256.346 195.941 257.377 195.501 258.201C195.075 259.025 194.491 259.65 193.75 260.076C193.008 260.488 192.163 260.694 191.215 260.694ZM191.38 258.963C192.067 258.963 192.685 258.805 193.235 258.489C193.798 258.173 194.237 257.727 194.553 257.15C194.883 256.559 195.048 255.879 195.048 255.11C195.048 254.327 194.883 253.654 194.553 253.091C194.237 252.514 193.798 252.068 193.235 251.752C192.685 251.436 192.067 251.278 191.38 251.278C190.68 251.278 190.055 251.436 189.505 251.752C188.956 252.068 188.516 252.514 188.187 253.091C187.857 253.654 187.692 254.327 187.692 255.11C187.692 255.879 187.857 256.559 188.187 257.15C188.516 257.727 188.956 258.173 189.505 258.489C190.055 258.805 190.68 258.963 191.38 258.963ZM195.11 260.57V257.624L195.233 255.09L195.027 252.555V245.282H197.005V260.57H195.11ZM205.425 260.694C204.326 260.694 203.351 260.454 202.499 259.973C201.647 259.492 200.974 258.833 200.48 257.995C199.985 257.143 199.738 256.182 199.738 255.11C199.738 254.025 199.985 253.063 200.48 252.226C200.974 251.388 201.647 250.735 202.499 250.268C203.351 249.787 204.326 249.547 205.425 249.547C206.51 249.547 207.478 249.787 208.33 250.268C209.195 250.735 209.869 251.388 210.349 252.226C210.844 253.05 211.091 254.011 211.091 255.11C211.091 256.195 210.844 257.157 210.349 257.995C209.869 258.833 209.195 259.492 208.33 259.973C207.478 260.454 206.51 260.694 205.425 260.694ZM205.425 258.963C206.125 258.963 206.75 258.805 207.3 258.489C207.863 258.173 208.303 257.727 208.619 257.15C208.934 256.559 209.092 255.879 209.092 255.11C209.092 254.327 208.934 253.654 208.619 253.091C208.303 252.514 207.863 252.068 207.3 251.752C206.75 251.436 206.125 251.278 205.425 251.278C204.724 251.278 204.099 251.436 203.55 251.752C203 252.068 202.561 252.514 202.231 253.091C201.902 253.654 201.737 254.327 201.737 255.11C201.737 255.879 201.902 256.559 202.231 257.15C202.561 257.727 203 258.173 203.55 258.489C204.099 258.805 204.724 258.963 205.425 258.963ZM216.958 260.694C216.052 260.694 215.186 260.57 214.362 260.323C213.552 260.076 212.913 259.774 212.446 259.416L213.27 257.851C213.737 258.166 214.314 258.434 215.001 258.654C215.688 258.874 216.388 258.984 217.103 258.984C218.023 258.984 218.682 258.853 219.081 258.592C219.493 258.331 219.699 257.967 219.699 257.5C219.699 257.157 219.575 256.889 219.328 256.697C219.081 256.504 218.751 256.36 218.339 256.264C217.941 256.168 217.494 256.085 217 256.017C216.505 255.934 216.011 255.838 215.516 255.728C215.022 255.605 214.568 255.44 214.156 255.234C213.744 255.014 213.415 254.719 213.167 254.348C212.92 253.963 212.796 253.455 212.796 252.823C212.796 252.164 212.982 251.587 213.353 251.092C213.724 250.598 214.246 250.22 214.919 249.959C215.605 249.684 216.416 249.547 217.35 249.547C218.064 249.547 218.785 249.636 219.513 249.815C220.255 249.98 220.86 250.22 221.327 250.536L220.482 252.102C219.987 251.772 219.472 251.546 218.936 251.422C218.401 251.298 217.865 251.237 217.329 251.237C216.464 251.237 215.818 251.381 215.393 251.669C214.967 251.944 214.754 252.301 214.754 252.741C214.754 253.112 214.877 253.4 215.125 253.606C215.386 253.798 215.715 253.949 216.114 254.059C216.526 254.169 216.979 254.265 217.474 254.348C217.968 254.417 218.463 254.513 218.957 254.636C219.452 254.746 219.898 254.904 220.296 255.11C220.708 255.316 221.038 255.605 221.285 255.976C221.546 256.346 221.677 256.841 221.677 257.459C221.677 258.118 221.485 258.688 221.1 259.169C220.715 259.65 220.173 260.028 219.472 260.302C218.772 260.563 217.934 260.694 216.958 260.694ZM234.359 260.694C233.26 260.694 232.285 260.454 231.434 259.973C230.582 259.492 229.909 258.833 229.414 257.995C228.92 257.143 228.673 256.182 228.673 255.11C228.673 254.025 228.92 253.063 229.414 252.226C229.909 251.388 230.582 250.735 231.434 250.268C232.285 249.787 233.26 249.547 234.359 249.547C235.445 249.547 236.413 249.787 237.265 250.268C238.13 250.735 238.803 251.388 239.284 252.226C239.778 253.05 240.026 254.011 240.026 255.11C240.026 256.195 239.778 257.157 239.284 257.995C238.803 258.833 238.13 259.492 237.265 259.973C236.413 260.454 235.445 260.694 234.359 260.694ZM234.359 258.963C235.06 258.963 235.685 258.805 236.234 258.489C236.798 258.173 237.237 257.727 237.553 257.15C237.869 256.559 238.027 255.879 238.027 255.11C238.027 254.327 237.869 253.654 237.553 253.091C237.237 252.514 236.798 252.068 236.234 251.752C235.685 251.436 235.06 251.278 234.359 251.278C233.659 251.278 233.034 251.436 232.484 251.752C231.935 252.068 231.495 252.514 231.166 253.091C230.836 253.654 230.671 254.327 230.671 255.11C230.671 255.879 230.836 256.559 231.166 257.15C231.495 257.727 231.935 258.173 232.484 258.489C233.034 258.805 233.659 258.963 234.359 258.963ZM248.551 260.694C247.617 260.694 246.772 260.488 246.017 260.076C245.275 259.65 244.684 259.025 244.245 258.201C243.819 257.377 243.606 256.346 243.606 255.11C243.606 253.874 243.826 252.844 244.265 252.02C244.719 251.195 245.316 250.577 246.058 250.165C246.813 249.753 247.644 249.547 248.551 249.547C249.622 249.547 250.57 249.781 251.394 250.248C252.218 250.715 252.871 251.367 253.352 252.205C253.832 253.029 254.073 253.998 254.073 255.11C254.073 256.223 253.832 257.198 253.352 258.036C252.871 258.874 252.218 259.526 251.394 259.993C250.57 260.46 249.622 260.694 248.551 260.694ZM242.761 260.57V245.282H244.739V252.555L244.533 255.09L244.657 257.624V260.57H242.761ZM248.386 258.963C249.087 258.963 249.712 258.805 250.261 258.489C250.824 258.173 251.264 257.727 251.58 257.15C251.909 256.559 252.074 255.879 252.074 255.11C252.074 254.327 251.909 253.654 251.58 253.091C251.264 252.514 250.824 252.068 250.261 251.752C249.712 251.436 249.087 251.278 248.386 251.278C247.699 251.278 247.074 251.436 246.511 251.752C245.962 252.068 245.522 252.514 245.192 253.091C244.876 253.654 244.719 254.327 244.719 255.11C244.719 255.879 244.876 256.559 245.192 257.15C245.522 257.727 245.962 258.173 246.511 258.489C247.074 258.805 247.699 258.963 248.386 258.963ZM255.405 264.691C254.951 264.691 254.519 264.636 254.107 264.526C253.681 264.416 253.324 264.252 253.035 264.032L253.674 262.507C254.086 262.851 254.622 263.022 255.281 263.022C255.803 263.022 256.201 262.857 256.476 262.528C256.765 262.212 256.909 261.738 256.909 261.106V249.65H258.887V261.065C258.887 262.177 258.585 263.057 257.98 263.702C257.39 264.361 256.531 264.691 255.405 264.691ZM257.898 247.548C257.513 247.548 257.19 247.425 256.929 247.178C256.682 246.93 256.559 246.628 256.559 246.271C256.559 245.9 256.682 245.591 256.929 245.344C257.19 245.097 257.513 244.973 257.898 244.973C258.282 244.973 258.598 245.097 258.846 245.344C259.107 245.577 259.237 245.873 259.237 246.23C259.237 246.601 259.113 246.917 258.866 247.178C258.619 247.425 258.296 247.548 257.898 247.548ZM267.524 260.694C266.356 260.694 265.326 260.454 264.433 259.973C263.554 259.492 262.867 258.833 262.373 257.995C261.892 257.157 261.651 256.195 261.651 255.11C261.651 254.025 261.885 253.063 262.352 252.226C262.833 251.388 263.485 250.735 264.309 250.268C265.147 249.787 266.088 249.547 267.132 249.547C268.19 249.547 269.124 249.781 269.934 250.248C270.745 250.715 271.377 251.374 271.83 252.226C272.297 253.063 272.531 254.046 272.531 255.172C272.531 255.254 272.524 255.351 272.51 255.46C272.51 255.57 272.503 255.673 272.489 255.77H263.197V254.348H271.459L270.656 254.842C270.669 254.142 270.525 253.517 270.223 252.967C269.921 252.418 269.502 251.992 268.966 251.69C268.444 251.374 267.833 251.216 267.132 251.216C266.445 251.216 265.834 251.374 265.298 251.69C264.763 251.992 264.344 252.425 264.042 252.988C263.739 253.537 263.588 254.169 263.588 254.884V255.213C263.588 255.941 263.753 256.594 264.083 257.171C264.426 257.734 264.9 258.173 265.504 258.489C266.109 258.805 266.803 258.963 267.586 258.963C268.231 258.963 268.815 258.853 269.337 258.634C269.873 258.414 270.34 258.084 270.738 257.645L271.83 258.922C271.335 259.499 270.717 259.938 269.976 260.241C269.248 260.543 268.43 260.694 267.524 260.694ZM279.027 260.694C277.928 260.694 277.077 260.399 276.472 259.808C275.868 259.217 275.566 258.373 275.566 257.274V247.26H277.544V257.191C277.544 257.782 277.688 258.235 277.976 258.551C278.279 258.867 278.704 259.025 279.254 259.025C279.872 259.025 280.387 258.853 280.799 258.51L281.417 259.932C281.115 260.193 280.751 260.385 280.325 260.508C279.913 260.632 279.48 260.694 279.027 260.694ZM273.711 251.278V249.65H280.675V251.278H273.711ZM283.809 260.57V249.65H285.787V260.57H283.809ZM284.798 247.548C284.413 247.548 284.09 247.425 283.829 247.178C283.582 246.93 283.458 246.628 283.458 246.271C283.458 245.9 283.582 245.591 283.829 245.344C284.09 245.097 284.413 244.973 284.798 244.973C285.182 244.973 285.498 245.097 285.745 245.344C286.006 245.577 286.137 245.873 286.137 246.23C286.137 246.601 286.013 246.917 285.766 247.178C285.519 247.425 285.196 247.548 284.798 247.548ZM292.427 260.57L287.647 249.65H289.708L293.952 259.54H292.963L297.29 249.65H299.227L294.447 260.57H292.427ZM305.448 260.694C304.349 260.694 303.374 260.454 302.522 259.973C301.671 259.492 300.998 258.833 300.503 257.995C300.009 257.143 299.761 256.182 299.761 255.11C299.761 254.025 300.009 253.063 300.503 252.226C300.998 251.388 301.671 250.735 302.522 250.268C303.374 249.787 304.349 249.547 305.448 249.547C306.533 249.547 307.502 249.787 308.353 250.268C309.219 250.735 309.892 251.388 310.373 252.226C310.867 253.05 311.114 254.011 311.114 255.11C311.114 256.195 310.867 257.157 310.373 257.995C309.892 258.833 309.219 259.492 308.353 259.973C307.502 260.454 306.533 260.694 305.448 260.694ZM305.448 258.963C306.149 258.963 306.774 258.805 307.323 258.489C307.886 258.173 308.326 257.727 308.642 257.15C308.958 256.559 309.116 255.879 309.116 255.11C309.116 254.327 308.958 253.654 308.642 253.091C308.326 252.514 307.886 252.068 307.323 251.752C306.774 251.436 306.149 251.278 305.448 251.278C304.748 251.278 304.123 251.436 303.573 251.752C303.024 252.068 302.584 252.514 302.254 253.091C301.925 253.654 301.76 254.327 301.76 255.11C301.76 255.879 301.925 256.559 302.254 257.15C302.584 257.727 303.024 258.173 303.573 258.489C304.123 258.805 304.748 258.963 305.448 258.963ZM316.982 260.694C316.075 260.694 315.21 260.57 314.386 260.323C313.575 260.076 312.936 259.774 312.469 259.416L313.293 257.851C313.761 258.166 314.337 258.434 315.024 258.654C315.711 258.874 316.412 258.984 317.126 258.984C318.046 258.984 318.706 258.853 319.104 258.592C319.516 258.331 319.722 257.967 319.722 257.5C319.722 257.157 319.598 256.889 319.351 256.697C319.104 256.504 318.774 256.36 318.362 256.264C317.964 256.168 317.517 256.085 317.023 256.017C316.528 255.934 316.034 255.838 315.539 255.728C315.045 255.605 314.592 255.44 314.179 255.234C313.767 255.014 313.438 254.719 313.19 254.348C312.943 253.963 312.82 253.455 312.82 252.823C312.82 252.164 313.005 251.587 313.376 251.092C313.747 250.598 314.269 250.22 314.942 249.959C315.629 249.684 316.439 249.547 317.373 249.547C318.087 249.547 318.809 249.636 319.537 249.815C320.278 249.98 320.883 250.22 321.35 250.536L320.505 252.102C320.01 251.772 319.495 251.546 318.96 251.422C318.424 251.298 317.888 251.237 317.353 251.237C316.487 251.237 315.842 251.381 315.416 251.669C314.99 251.944 314.777 252.301 314.777 252.741C314.777 253.112 314.901 253.4 315.148 253.606C315.409 253.798 315.739 253.949 316.137 254.059C316.549 254.169 317.002 254.265 317.497 254.348C317.991 254.417 318.486 254.513 318.98 254.636C319.475 254.746 319.921 254.904 320.32 255.11C320.732 255.316 321.061 255.605 321.309 255.976C321.57 256.346 321.7 256.841 321.7 257.459C321.7 258.118 321.508 258.688 321.123 259.169C320.739 259.65 320.196 260.028 319.495 260.302C318.795 260.563 317.957 260.694 316.982 260.694ZM323.389 263.62L324.419 259.458L324.687 260.653C324.289 260.653 323.952 260.529 323.678 260.282C323.417 260.035 323.286 259.698 323.286 259.272C323.286 258.86 323.417 258.524 323.678 258.263C323.952 258.002 324.282 257.871 324.667 257.871C325.065 257.871 325.388 258.009 325.635 258.283C325.882 258.544 326.006 258.874 326.006 259.272C326.006 259.41 325.992 259.547 325.965 259.684C325.951 259.808 325.917 259.959 325.862 260.138C325.82 260.302 325.752 260.508 325.656 260.756L324.687 263.62H323.389ZM44.7251 274.547C45.6042 274.547 46.3803 274.719 47.0533 275.062C47.7264 275.406 48.2484 275.928 48.6193 276.628C49.0039 277.329 49.1962 278.215 49.1962 279.286V285.57H47.2182V279.513C47.2182 278.455 46.9709 277.658 46.4764 277.123C45.9819 276.587 45.2882 276.319 44.3954 276.319C43.7361 276.319 43.1591 276.456 42.6646 276.731C42.1701 277.006 41.7855 277.411 41.5108 277.947C41.2498 278.482 41.1193 279.149 41.1193 279.945V285.57H39.1413V279.513C39.1413 278.455 38.8941 277.658 38.3996 277.123C37.9188 276.587 37.2251 276.319 36.3185 276.319C35.6729 276.319 35.1029 276.456 34.6084 276.731C34.1139 277.006 33.7293 277.411 33.4545 277.947C33.1798 278.482 33.0424 279.149 33.0424 279.945V285.57H31.0644V274.65H32.96V277.555L32.651 276.814C32.9944 276.099 33.5232 275.543 34.2375 275.145C34.9518 274.746 35.7828 274.547 36.7306 274.547C37.7746 274.547 38.6743 274.808 39.4298 275.33C40.1853 275.838 40.6798 276.614 40.9133 277.658L40.1097 277.329C40.4394 276.491 41.0163 275.818 41.8405 275.309C42.6646 274.801 43.6262 274.547 44.7251 274.547ZM57.6983 285.694C56.5308 285.694 55.5006 285.454 54.6077 284.973C53.7286 284.492 53.0418 283.833 52.5473 282.995C52.0665 282.157 51.8261 281.195 51.8261 280.11C51.8261 279.025 52.0596 278.063 52.5267 277.226C53.0074 276.388 53.6599 275.735 54.4841 275.268C55.322 274.787 56.2629 274.547 57.3069 274.547C58.3645 274.547 59.2986 274.781 60.109 275.248C60.9195 275.715 61.5513 276.374 62.0046 277.226C62.4717 278.063 62.7052 279.046 62.7052 280.172C62.7052 280.254 62.6983 280.351 62.6846 280.46C62.6846 280.57 62.6777 280.673 62.664 280.77H53.3714V279.348H61.6338L60.8302 279.842C60.8439 279.142 60.6997 278.517 60.3975 277.967C60.0953 277.418 59.6763 276.992 59.1406 276.69C58.6187 276.374 58.0074 276.216 57.3069 276.216C56.62 276.216 56.0088 276.374 55.4731 276.69C54.9374 276.992 54.5184 277.425 54.2162 277.988C53.914 278.537 53.7629 279.169 53.7629 279.884V280.213C53.7629 280.941 53.9278 281.594 54.2574 282.171C54.6008 282.734 55.0747 283.173 55.6791 283.489C56.2835 283.805 56.9772 283.963 57.7602 283.963C58.4058 283.963 58.9895 283.853 59.5115 283.634C60.0472 283.414 60.5143 283.084 60.9126 282.645L62.0046 283.922C61.5101 284.499 60.892 284.938 60.1502 285.241C59.4222 285.543 58.6049 285.694 57.6983 285.694ZM68.5837 285.694C67.6771 285.694 66.8117 285.57 65.9875 285.323C65.1771 285.076 64.5384 284.774 64.0713 284.416L64.8955 282.851C65.3625 283.166 65.9394 283.434 66.6263 283.654C67.3131 283.874 68.0136 283.984 68.7279 283.984C69.6482 283.984 70.3076 283.853 70.7059 283.592C71.118 283.331 71.324 282.967 71.324 282.5C71.324 282.157 71.2004 281.889 70.9532 281.697C70.7059 281.504 70.3762 281.36 69.9641 281.264C69.5658 281.168 69.1194 281.085 68.6249 281.017C68.1304 280.934 67.6359 280.838 67.1414 280.728C66.6469 280.605 66.1936 280.44 65.7815 280.234C65.3694 280.014 65.0397 279.719 64.7925 279.348C64.5452 278.963 64.4216 278.455 64.4216 277.823C64.4216 277.164 64.607 276.587 64.9779 276.092C65.3488 275.598 65.8708 275.22 66.5438 274.959C67.2306 274.684 68.0411 274.547 68.9751 274.547C69.6894 274.547 70.4106 274.636 71.1386 274.815C71.8803 274.98 72.4847 275.22 72.9518 275.536L72.107 277.102C71.6125 276.772 71.0974 276.546 70.5617 276.422C70.026 276.298 69.4902 276.237 68.9545 276.237C68.0892 276.237 67.4436 276.381 67.0177 276.669C66.5919 276.944 66.379 277.301 66.379 277.741C66.379 278.112 66.5026 278.4 66.7499 278.606C67.0109 278.798 67.3405 278.949 67.7389 279.059C68.151 279.169 68.6043 279.265 69.0988 279.348C69.5933 279.417 70.0878 279.513 70.5823 279.636C71.0768 279.746 71.5232 279.904 71.9216 280.11C72.3336 280.316 72.6633 280.605 72.9106 280.976C73.1715 281.346 73.302 281.841 73.302 282.459C73.302 283.118 73.1097 283.688 72.7251 284.169C72.3405 284.65 71.7979 285.028 71.0974 285.302C70.3968 285.563 69.5589 285.694 68.5837 285.694ZM89.4347 274.547C90.3138 274.547 91.0899 274.719 91.763 275.062C92.436 275.406 92.958 275.928 93.3289 276.628C93.7135 277.329 93.9058 278.215 93.9058 279.286V285.57H91.9278V279.513C91.9278 278.455 91.6806 277.658 91.186 277.123C90.6915 276.587 89.9979 276.319 89.105 276.319C88.4457 276.319 87.8688 276.456 87.3743 276.731C86.8798 277.006 86.4951 277.411 86.2204 277.947C85.9594 278.482 85.8289 279.149 85.8289 279.945V285.57H83.8509V279.513C83.8509 278.455 83.6037 277.658 83.1092 277.123C82.6284 276.587 81.9347 276.319 81.0282 276.319C80.3826 276.319 79.8125 276.456 79.318 276.731C78.8235 277.006 78.4389 277.411 78.1642 277.947C77.8894 278.482 77.7521 279.149 77.7521 279.945V285.57H75.7741V274.65H77.6697V277.555L77.3606 276.814C77.704 276.099 78.2328 275.543 78.9471 275.145C79.6614 274.746 80.4924 274.547 81.4402 274.547C82.4842 274.547 83.3839 274.808 84.1394 275.33C84.8949 275.838 85.3894 276.614 85.6229 277.658L84.8193 277.329C85.149 276.491 85.7259 275.818 86.5501 275.309C87.3743 274.801 88.3358 274.547 89.4347 274.547ZM102.223 285.694C101.124 285.694 100.148 285.454 99.2967 284.973C98.4451 284.492 97.772 283.833 97.2775 282.995C96.783 282.143 96.5358 281.182 96.5358 280.11C96.5358 279.025 96.783 278.063 97.2775 277.226C97.772 276.388 98.4451 275.735 99.2967 275.268C100.148 274.787 101.124 274.547 102.223 274.547C103.308 274.547 104.276 274.787 105.128 275.268C105.993 275.735 106.666 276.388 107.147 277.226C107.641 278.05 107.889 279.011 107.889 280.11C107.889 281.195 107.641 282.157 107.147 282.995C106.666 283.833 105.993 284.492 105.128 284.973C104.276 285.454 103.308 285.694 102.223 285.694ZM102.223 283.963C102.923 283.963 103.548 283.805 104.098 283.489C104.661 283.173 105.1 282.727 105.416 282.15C105.732 281.559 105.89 280.879 105.89 280.11C105.89 279.327 105.732 278.654 105.416 278.091C105.1 277.514 104.661 277.068 104.098 276.752C103.548 276.436 102.923 276.278 102.223 276.278C101.522 276.278 100.897 276.436 100.348 276.752C99.7981 277.068 99.3585 277.514 99.0289 278.091C98.6992 278.654 98.5344 279.327 98.5344 280.11C98.5344 280.879 98.6992 281.559 99.0289 282.15C99.3585 282.727 99.7981 283.173 100.348 283.489C100.897 283.805 101.522 283.963 102.223 283.963ZM119.289 285.694C118.383 285.694 117.517 285.57 116.693 285.323C115.883 285.076 115.244 284.774 114.777 284.416L115.601 282.851C116.068 283.166 116.645 283.434 117.332 283.654C118.019 283.874 118.719 283.984 119.434 283.984C120.354 283.984 121.013 283.853 121.412 283.592C121.824 283.331 122.03 282.967 122.03 282.5C122.03 282.157 121.906 281.889 121.659 281.697C121.412 281.504 121.082 281.36 120.67 281.264C120.272 281.168 119.825 281.085 119.331 281.017C118.836 280.934 118.342 280.838 117.847 280.728C117.353 280.605 116.899 280.44 116.487 280.234C116.075 280.014 115.746 279.719 115.498 279.348C115.251 278.963 115.127 278.455 115.127 277.823C115.127 277.164 115.313 276.587 115.684 276.092C116.055 275.598 116.577 275.22 117.25 274.959C117.936 274.684 118.747 274.547 119.681 274.547C120.395 274.547 121.116 274.636 121.844 274.815C122.586 274.98 123.191 275.22 123.658 275.536L122.813 277.102C122.318 276.772 121.803 276.546 121.267 276.422C120.732 276.298 120.196 276.237 119.66 276.237C118.795 276.237 118.149 276.381 117.724 276.669C117.298 276.944 117.085 277.301 117.085 277.741C117.085 278.112 117.208 278.4 117.456 278.606C117.717 278.798 118.046 278.949 118.445 279.059C118.857 279.169 119.31 279.265 119.805 279.348C120.299 279.417 120.794 279.513 121.288 279.636C121.783 279.746 122.229 279.904 122.627 280.11C123.039 280.316 123.369 280.605 123.616 280.976C123.877 281.346 124.008 281.841 124.008 282.459C124.008 283.118 123.816 283.688 123.431 284.169C123.046 284.65 122.504 285.028 121.803 285.302C121.103 285.563 120.265 285.694 119.289 285.694ZM131.342 285.694C130.175 285.694 129.145 285.454 128.252 284.973C127.373 284.492 126.686 283.833 126.191 282.995C125.711 282.157 125.47 281.195 125.47 280.11C125.47 279.025 125.704 278.063 126.171 277.226C126.652 276.388 127.304 275.735 128.128 275.268C128.966 274.787 129.907 274.547 130.951 274.547C132.009 274.547 132.943 274.781 133.753 275.248C134.564 275.715 135.195 276.374 135.649 277.226C136.116 278.063 136.349 279.046 136.349 280.172C136.349 280.254 136.342 280.351 136.329 280.46C136.329 280.57 136.322 280.673 136.308 280.77H127.016V279.348H135.278L134.474 279.842C134.488 279.142 134.344 278.517 134.042 277.967C133.739 277.418 133.32 276.992 132.785 276.69C132.263 276.374 131.652 276.216 130.951 276.216C130.264 276.216 129.653 276.374 129.117 276.69C128.581 276.992 128.163 277.425 127.86 277.988C127.558 278.537 127.407 279.169 127.407 279.884V280.213C127.407 280.941 127.572 281.594 127.902 282.171C128.245 282.734 128.719 283.173 129.323 283.489C129.928 283.805 130.621 283.963 131.404 283.963C132.05 283.963 132.634 283.853 133.156 283.634C133.691 283.414 134.158 283.084 134.557 282.645L135.649 283.922C135.154 284.499 134.536 284.938 133.794 285.241C133.066 285.543 132.249 285.694 131.342 285.694ZM144.927 274.547C145.82 274.547 146.603 274.719 147.276 275.062C147.963 275.406 148.498 275.928 148.883 276.628C149.268 277.329 149.46 278.215 149.46 279.286V285.57H147.482V279.513C147.482 278.455 147.221 277.658 146.699 277.123C146.191 276.587 145.47 276.319 144.535 276.319C143.835 276.319 143.224 276.456 142.702 276.731C142.18 277.006 141.774 277.411 141.486 277.947C141.211 278.482 141.074 279.149 141.074 279.945V285.57H139.096V274.65H140.992V277.596L140.682 276.814C141.04 276.099 141.589 275.543 142.331 275.145C143.073 274.746 143.938 274.547 144.927 274.547ZM157.633 285.694C156.575 285.694 155.627 285.46 154.789 284.993C153.965 284.526 153.313 283.874 152.832 283.036C152.351 282.198 152.111 281.223 152.111 280.11C152.111 278.998 152.351 278.029 152.832 277.205C153.313 276.367 153.965 275.715 154.789 275.248C155.627 274.781 156.575 274.547 157.633 274.547C158.553 274.547 159.384 274.753 160.126 275.165C160.868 275.577 161.458 276.195 161.898 277.02C162.351 277.844 162.578 278.874 162.578 280.11C162.578 281.346 162.358 282.377 161.919 283.201C161.493 284.025 160.909 284.65 160.167 285.076C159.425 285.488 158.581 285.694 157.633 285.694ZM157.798 283.963C158.484 283.963 159.103 283.805 159.652 283.489C160.215 283.173 160.655 282.727 160.971 282.15C161.3 281.559 161.465 280.879 161.465 280.11C161.465 279.327 161.3 278.654 160.971 278.091C160.655 277.514 160.215 277.068 159.652 276.752C159.103 276.436 158.484 276.278 157.798 276.278C157.097 276.278 156.472 276.436 155.923 276.752C155.373 277.068 154.934 277.514 154.604 278.091C154.274 278.654 154.11 279.327 154.11 280.11C154.11 280.879 154.274 281.559 154.604 282.15C154.934 282.727 155.373 283.173 155.923 283.489C156.472 283.805 157.097 283.963 157.798 283.963ZM161.527 285.57V282.624L161.651 280.09L161.445 277.555V270.282H163.423V285.57H161.527ZM171.842 285.694C170.743 285.694 169.768 285.454 168.917 284.973C168.065 284.492 167.392 283.833 166.897 282.995C166.403 282.143 166.156 281.182 166.156 280.11C166.156 279.025 166.403 278.063 166.897 277.226C167.392 276.388 168.065 275.735 168.917 275.268C169.768 274.787 170.743 274.547 171.842 274.547C172.928 274.547 173.896 274.787 174.748 275.268C175.613 275.735 176.286 276.388 176.767 277.226C177.261 278.05 177.509 279.011 177.509 280.11C177.509 281.195 177.261 282.157 176.767 282.995C176.286 283.833 175.613 284.492 174.748 284.973C173.896 285.454 172.928 285.694 171.842 285.694ZM171.842 283.963C172.543 283.963 173.168 283.805 173.717 283.489C174.281 283.173 174.72 282.727 175.036 282.15C175.352 281.559 175.51 280.879 175.51 280.11C175.51 279.327 175.352 278.654 175.036 278.091C174.72 277.514 174.281 277.068 173.717 276.752C173.168 276.436 172.543 276.278 171.842 276.278C171.142 276.278 170.517 276.436 169.967 276.752C169.418 277.068 168.978 277.514 168.649 278.091C168.319 278.654 168.154 279.327 168.154 280.11C168.154 280.879 168.319 281.559 168.649 282.15C168.978 282.727 169.418 283.173 169.967 283.489C170.517 283.805 171.142 283.963 171.842 283.963ZM190.29 285.694C189.232 285.694 188.284 285.46 187.446 284.993C186.622 284.526 185.97 283.874 185.489 283.036C185.008 282.198 184.768 281.223 184.768 280.11C184.768 278.998 185.008 278.029 185.489 277.205C185.97 276.367 186.622 275.715 187.446 275.248C188.284 274.781 189.232 274.547 190.29 274.547C191.21 274.547 192.041 274.753 192.783 275.165C193.525 275.577 194.115 276.195 194.555 277.02C195.008 277.844 195.235 278.874 195.235 280.11C195.235 281.346 195.015 282.377 194.575 283.201C194.15 284.025 193.566 284.65 192.824 285.076C192.082 285.488 191.238 285.694 190.29 285.694ZM190.455 283.963C191.141 283.963 191.76 283.805 192.309 283.489C192.872 283.173 193.312 282.727 193.628 282.15C193.957 281.559 194.122 280.879 194.122 280.11C194.122 279.327 193.957 278.654 193.628 278.091C193.312 277.514 192.872 277.068 192.309 276.752C191.76 276.436 191.141 276.278 190.455 276.278C189.754 276.278 189.129 276.436 188.58 276.752C188.03 277.068 187.591 277.514 187.261 278.091C186.931 278.654 186.766 279.327 186.766 280.11C186.766 280.879 186.931 281.559 187.261 282.15C187.591 282.727 188.03 283.173 188.58 283.489C189.129 283.805 189.754 283.963 190.455 283.963ZM194.184 285.57V282.624L194.308 280.09L194.102 277.555V270.282H196.08V285.57H194.184ZM204.685 285.694C203.517 285.694 202.487 285.454 201.594 284.973C200.715 284.492 200.028 283.833 199.534 282.995C199.053 282.157 198.813 281.195 198.813 280.11C198.813 279.025 199.046 278.063 199.513 277.226C199.994 276.388 200.646 275.735 201.47 275.268C202.308 274.787 203.249 274.547 204.293 274.547C205.351 274.547 206.285 274.781 207.095 275.248C207.906 275.715 208.538 276.374 208.991 277.226C209.458 278.063 209.692 279.046 209.692 280.172C209.692 280.254 209.685 280.351 209.671 280.46C209.671 280.57 209.664 280.673 209.65 280.77H200.358V279.348H208.62L207.817 279.842C207.83 279.142 207.686 278.517 207.384 277.967C207.082 277.418 206.663 276.992 206.127 276.69C205.605 276.374 204.994 276.216 204.293 276.216C203.606 276.216 202.995 276.374 202.459 276.69C201.924 276.992 201.505 277.425 201.203 277.988C200.9 278.537 200.749 279.169 200.749 279.884V280.213C200.749 280.941 200.914 281.594 201.244 282.171C201.587 282.734 202.061 283.173 202.666 283.489C203.27 283.805 203.964 283.963 204.747 283.963C205.392 283.963 205.976 283.853 206.498 283.634C207.034 283.414 207.501 283.084 207.899 282.645L208.991 283.922C208.497 284.499 207.878 284.938 207.137 285.241C206.409 285.543 205.591 285.694 204.685 285.694ZM215.57 285.694C214.663 285.694 213.798 285.57 212.974 285.323C212.164 285.076 211.525 284.774 211.058 284.416L211.882 282.851C212.349 283.166 212.926 283.434 213.613 283.654C214.299 283.874 215 283.984 215.714 283.984C216.635 283.984 217.294 283.853 217.692 283.592C218.104 283.331 218.31 282.967 218.31 282.5C218.31 282.157 218.187 281.889 217.94 281.697C217.692 281.504 217.363 281.36 216.951 281.264C216.552 281.168 216.106 281.085 215.611 281.017C215.117 280.934 214.622 280.838 214.128 280.728C213.633 280.605 213.18 280.44 212.768 280.234C212.356 280.014 212.026 279.719 211.779 279.348C211.532 278.963 211.408 278.455 211.408 277.823C211.408 277.164 211.593 276.587 211.964 276.092C212.335 275.598 212.857 275.22 213.53 274.959C214.217 274.684 215.028 274.547 215.962 274.547C216.676 274.547 217.397 274.636 218.125 274.815C218.867 274.98 219.471 275.22 219.938 275.536L219.093 277.102C218.599 276.772 218.084 276.546 217.548 276.422C217.012 276.298 216.477 276.237 215.941 276.237C215.076 276.237 214.43 276.381 214.004 276.669C213.578 276.944 213.365 277.301 213.365 277.741C213.365 278.112 213.489 278.4 213.736 278.606C213.997 278.798 214.327 278.949 214.725 279.059C215.137 279.169 215.591 279.265 216.085 279.348C216.58 279.417 217.074 279.513 217.569 279.636C218.063 279.746 218.51 279.904 218.908 280.11C219.32 280.316 219.65 280.605 219.897 280.976C220.158 281.346 220.288 281.841 220.288 282.459C220.288 283.118 220.096 283.688 219.712 284.169C219.327 284.65 218.784 285.028 218.084 285.302C217.383 285.563 216.545 285.694 215.57 285.694ZM229.539 285.57V283.263L229.436 282.83V278.895C229.436 278.057 229.189 277.411 228.695 276.958C228.214 276.491 227.486 276.257 226.51 276.257C225.865 276.257 225.233 276.367 224.615 276.587C223.997 276.793 223.475 277.074 223.049 277.432L222.225 275.948C222.788 275.495 223.461 275.151 224.244 274.918C225.041 274.671 225.872 274.547 226.737 274.547C228.234 274.547 229.388 274.911 230.199 275.639C231.009 276.367 231.414 277.48 231.414 278.977V285.57H229.539ZM225.954 285.694C225.144 285.694 224.429 285.557 223.811 285.282C223.207 285.007 222.74 284.629 222.41 284.149C222.081 283.654 221.916 283.098 221.916 282.48C221.916 281.889 222.053 281.353 222.328 280.873C222.616 280.392 223.076 280.007 223.708 279.719C224.354 279.43 225.219 279.286 226.304 279.286H229.766V280.708H226.387C225.398 280.708 224.732 280.873 224.388 281.202C224.045 281.532 223.873 281.93 223.873 282.397C223.873 282.933 224.086 283.366 224.512 283.695C224.938 284.011 225.528 284.169 226.284 284.169C227.026 284.169 227.671 284.004 228.221 283.675C228.784 283.345 229.189 282.864 229.436 282.232L229.828 283.592C229.567 284.238 229.107 284.753 228.447 285.138C227.788 285.508 226.957 285.694 225.954 285.694ZM235.363 285.57V273.682C235.363 272.61 235.672 271.759 236.29 271.127C236.922 270.481 237.815 270.158 238.969 270.158C239.395 270.158 239.8 270.213 240.185 270.323C240.583 270.419 240.919 270.577 241.194 270.797L240.597 272.301C240.391 272.136 240.157 272.013 239.896 271.93C239.635 271.834 239.36 271.786 239.072 271.786C238.495 271.786 238.055 271.951 237.753 272.281C237.451 272.596 237.3 273.07 237.3 273.702V275.165L237.341 276.072V285.57H235.363ZM233.509 276.278V274.65H240.473V276.278H233.509ZM242.348 285.57V274.65H244.326V285.57H242.348ZM243.337 272.548C242.952 272.548 242.63 272.425 242.369 272.178C242.121 271.93 241.998 271.628 241.998 271.271C241.998 270.9 242.121 270.591 242.369 270.344C242.63 270.097 242.952 269.973 243.337 269.973C243.722 269.973 244.038 270.097 244.285 270.344C244.546 270.577 244.676 270.873 244.676 271.23C244.676 271.601 244.553 271.917 244.305 272.178C244.058 272.425 243.735 272.548 243.337 272.548ZM254.872 285.57V283.263L254.769 282.83V278.895C254.769 278.057 254.522 277.411 254.027 276.958C253.547 276.491 252.818 276.257 251.843 276.257C251.198 276.257 250.566 276.367 249.948 276.587C249.33 276.793 248.808 277.074 248.382 277.432L247.558 275.948C248.121 275.495 248.794 275.151 249.577 274.918C250.373 274.671 251.204 274.547 252.07 274.547C253.567 274.547 254.721 274.911 255.531 275.639C256.342 276.367 256.747 277.48 256.747 278.977V285.57H254.872ZM251.287 285.694C250.476 285.694 249.762 285.557 249.144 285.282C248.54 285.007 248.073 284.629 247.743 284.149C247.413 283.654 247.248 283.098 247.248 282.48C247.248 281.889 247.386 281.353 247.661 280.873C247.949 280.392 248.409 280.007 249.041 279.719C249.687 279.43 250.552 279.286 251.637 279.286H255.099V280.708H251.72C250.731 280.708 250.064 280.873 249.721 281.202C249.378 281.532 249.206 281.93 249.206 282.397C249.206 282.933 249.419 283.366 249.845 283.695C250.27 284.011 250.861 284.169 251.617 284.169C252.358 284.169 253.004 284.004 253.553 283.675C254.117 283.345 254.522 282.864 254.769 282.232L255.161 283.592C254.9 284.238 254.439 284.753 253.78 285.138C253.121 285.508 252.29 285.694 251.287 285.694ZM264.92 285.694C263.862 285.694 262.914 285.46 262.076 284.993C261.252 284.526 260.6 283.874 260.119 283.036C259.638 282.198 259.398 281.223 259.398 280.11C259.398 278.998 259.638 278.029 260.119 277.205C260.6 276.367 261.252 275.715 262.076 275.248C262.914 274.781 263.862 274.547 264.92 274.547C265.84 274.547 266.671 274.753 267.413 275.165C268.155 275.577 268.745 276.195 269.185 277.02C269.638 277.844 269.865 278.874 269.865 280.11C269.865 281.346 269.645 282.377 269.206 283.201C268.78 284.025 268.196 284.65 267.454 285.076C266.712 285.488 265.868 285.694 264.92 285.694ZM265.085 283.963C265.771 283.963 266.39 283.805 266.939 283.489C267.502 283.173 267.942 282.727 268.258 282.15C268.587 281.559 268.752 280.879 268.752 280.11C268.752 279.327 268.587 278.654 268.258 278.091C267.942 277.514 267.502 277.068 266.939 276.752C266.39 276.436 265.771 276.278 265.085 276.278C264.384 276.278 263.759 276.436 263.21 276.752C262.66 277.068 262.221 277.514 261.891 278.091C261.561 278.654 261.397 279.327 261.397 280.11C261.397 280.879 261.561 281.559 261.891 282.15C262.221 282.727 262.66 283.173 263.21 283.489C263.759 283.805 264.384 283.963 265.085 283.963ZM268.814 285.57V282.624L268.938 280.09L268.732 277.555V270.282H270.71V285.57H268.814ZM279.129 285.694C278.03 285.694 277.055 285.454 276.204 284.973C275.352 284.492 274.679 283.833 274.184 282.995C273.69 282.143 273.443 281.182 273.443 280.11C273.443 279.025 273.69 278.063 274.184 277.226C274.679 276.388 275.352 275.735 276.204 275.268C277.055 274.787 278.03 274.547 279.129 274.547C280.215 274.547 281.183 274.787 282.035 275.268C282.9 275.735 283.573 276.388 284.054 277.226C284.548 278.05 284.796 279.011 284.796 280.11C284.796 281.195 284.548 282.157 284.054 282.995C283.573 283.833 282.9 284.492 282.035 284.973C281.183 285.454 280.215 285.694 279.129 285.694ZM279.129 283.963C279.83 283.963 280.455 283.805 281.004 283.489C281.568 283.173 282.007 282.727 282.323 282.15C282.639 281.559 282.797 280.879 282.797 280.11C282.797 279.327 282.639 278.654 282.323 278.091C282.007 277.514 281.568 277.068 281.004 276.752C280.455 276.436 279.83 276.278 279.129 276.278C278.429 276.278 277.804 276.436 277.254 276.752C276.705 277.068 276.265 277.514 275.936 278.091C275.606 278.654 275.441 279.327 275.441 280.11C275.441 280.879 275.606 281.559 275.936 282.15C276.265 282.727 276.705 283.173 277.254 283.489C277.804 283.805 278.429 283.963 279.129 283.963ZM287.531 285.57V274.65H289.427V277.617L289.241 276.875C289.543 276.12 290.052 275.543 290.766 275.145C291.48 274.746 292.359 274.547 293.403 274.547V276.463C293.321 276.449 293.238 276.443 293.156 276.443C293.087 276.443 293.019 276.443 292.95 276.443C291.892 276.443 291.054 276.759 290.436 277.39C289.818 278.022 289.509 278.936 289.509 280.131V285.57H287.531ZM300.603 285.694C299.436 285.694 298.405 285.454 297.513 284.973C296.633 284.492 295.947 283.833 295.452 282.995C294.971 282.157 294.731 281.195 294.731 280.11C294.731 279.025 294.964 278.063 295.432 277.226C295.912 276.388 296.565 275.735 297.389 275.268C298.227 274.787 299.168 274.547 300.212 274.547C301.269 274.547 302.203 274.781 303.014 275.248C303.824 275.715 304.456 276.374 304.909 277.226C305.377 278.063 305.61 279.046 305.61 280.172C305.61 280.254 305.603 280.351 305.589 280.46C305.589 280.57 305.583 280.673 305.569 280.77H296.276V279.348H304.539L303.735 279.842C303.749 279.142 303.605 278.517 303.302 277.967C303 277.418 302.581 276.992 302.045 276.69C301.524 276.374 300.912 276.216 300.212 276.216C299.525 276.216 298.914 276.374 298.378 276.69C297.842 276.992 297.423 277.425 297.121 277.988C296.819 278.537 296.668 279.169 296.668 279.884V280.213C296.668 280.941 296.833 281.594 297.162 282.171C297.506 282.734 297.98 283.173 298.584 283.489C299.188 283.805 299.882 283.963 300.665 283.963C301.311 283.963 301.894 283.853 302.416 283.634C302.952 283.414 303.419 283.084 303.817 282.645L304.909 283.922C304.415 284.499 303.797 284.938 303.055 285.241C302.327 285.543 301.51 285.694 300.603 285.694ZM311.489 285.694C310.582 285.694 309.717 285.57 308.892 285.323C308.082 285.076 307.443 284.774 306.976 284.416L307.8 282.851C308.267 283.166 308.844 283.434 309.531 283.654C310.218 283.874 310.918 283.984 311.633 283.984C312.553 283.984 313.212 283.853 313.611 283.592C314.023 283.331 314.229 282.967 314.229 282.5C314.229 282.157 314.105 281.889 313.858 281.697C313.611 281.504 313.281 281.36 312.869 281.264C312.471 281.168 312.024 281.085 311.53 281.017C311.035 280.934 310.541 280.838 310.046 280.728C309.552 280.605 309.098 280.44 308.686 280.234C308.274 280.014 307.945 279.719 307.697 279.348C307.45 278.963 307.326 278.455 307.326 277.823C307.326 277.164 307.512 276.587 307.883 276.092C308.254 275.598 308.776 275.22 309.449 274.959C310.136 274.684 310.946 274.547 311.88 274.547C312.594 274.547 313.315 274.636 314.043 274.815C314.785 274.98 315.39 275.22 315.857 275.536L315.012 277.102C314.517 276.772 314.002 276.546 313.467 276.422C312.931 276.298 312.395 276.237 311.859 276.237C310.994 276.237 310.348 276.381 309.923 276.669C309.497 276.944 309.284 277.301 309.284 277.741C309.284 278.112 309.407 278.4 309.655 278.606C309.916 278.798 310.245 278.949 310.644 279.059C311.056 279.169 311.509 279.265 312.004 279.348C312.498 279.417 312.993 279.513 313.487 279.636C313.982 279.746 314.428 279.904 314.826 280.11C315.238 280.316 315.568 280.605 315.815 280.976C316.076 281.346 316.207 281.841 316.207 282.459C316.207 283.118 316.015 283.688 315.63 284.169C315.245 284.65 314.703 285.028 314.002 285.302C313.302 285.563 312.464 285.694 311.489 285.694ZM319.153 285.694C318.768 285.694 318.439 285.563 318.164 285.302C317.889 285.028 317.752 284.684 317.752 284.272C317.752 283.86 317.889 283.524 318.164 283.263C318.439 283.002 318.768 282.871 319.153 282.871C319.524 282.871 319.84 283.002 320.101 283.263C320.375 283.524 320.513 283.86 320.513 284.272C320.513 284.684 320.375 285.028 320.101 285.302C319.84 285.563 319.524 285.694 319.153 285.694Z" fill="black"/>
<mask id="mask0_1064_3544" style="mask-type:luminance" maskUnits="userSpaceOnUse" x="34" y="25" width="147" height="139">
<path d="M180.643 25.7578H34.3403V163.12H180.643V25.7578Z" fill="white"/>
</mask>
<g mask="url(#mask0_1064_3544)">
<path d="M91.9377 41.8075L91.9489 41.7425L91.96 41.6758L91.9377 41.8075Z" fill="#329BD5"/>
<mask id="mask1_1064_3544" style="mask-type:luminance" maskUnits="userSpaceOnUse" x="74" y="26" width="107" height="106">
<path d="M74.574 26.0586H180.308V131.826H74.574V26.0586Z" fill="white"/>
</mask>
<g mask="url(#mask1_1064_3544)">
<path d="M180.27 131.488L172.607 116.556C170.889 115.327 169.729 114.161 169.127 113.056C168.462 109.611 167.744 107.398 166.971 106.418C167.306 104.461 167.381 103.493 167.195 103.513C164.717 102.939 162.669 101.84 161.053 100.218C158.812 96.6649 157.68 94.1091 157.659 92.5533C155.764 91.2262 154.554 90.2531 154.03 89.6324L153.694 87.1448L151.792 85.2605L151.238 82.8253C149.896 82.1712 148.976 80.4774 148.476 77.7437C146.598 76.7404 145.536 75.707 145.29 74.645C141.6 73.7845 139.768 73.248 139.79 73.0337C139.987 72.4161 139.665 71.5811 138.821 70.527C138.481 69.8603 136.614 68.2014 133.22 65.5534L133.374 63.6389C131.339 62.8833 130.327 62.4531 130.339 62.3515L130.805 60.4783C125.913 59.2019 123.482 58.5003 123.512 58.3764L121.025 53.3759C118.764 53.3346 116.491 52.6472 114.203 51.3105C113.581 51.0581 112.794 49.6104 111.846 46.9688C108.138 45.4908 105.772 44.4288 104.752 43.7811L104.426 41.3666L98.2143 39.1727L91.2643 33.6022C88.4291 33.1815 86.7559 32.8418 86.2447 32.583C85.7954 32.4671 85.3144 31.9179 84.8033 30.9368C84.562 31.1559 81.2663 29.5604 74.9148 26.1537C74.7577 26.0966 74.7148 26.1569 74.7831 26.3315C74.772 26.5188 75.7181 27.665 77.6231 29.77L91.9231 43.9399C92.4771 44.178 92.6311 43.5208 92.3867 41.9666L94.9711 44.5368L95.9791 45.6305L97.6762 50.2088L104.156 53.606C104.329 53.4663 104.856 54.6919 105.737 57.2779L108.35 57.6271C108.614 58.7082 109.203 59.6448 110.116 60.4354L113.083 61.6578C114.018 62.8547 114.684 64.7533 115.083 67.3536C117.948 67.5664 119.776 67.8759 120.564 68.2839C121.555 71.4811 123.065 74.2195 125.095 76.4975C126.789 76.7928 129.069 78.6041 131.937 81.9299L135.869 82.2569L138.592 85.824C140.138 85.7319 140.908 85.7843 140.899 85.9828C142.688 90.6817 143.973 93.3519 144.755 93.9884L145.097 97.4968L147.212 97.211C147.207 98.6921 147.318 99.5224 147.544 99.7018L150.701 100.403L152.087 102.891C155.234 103.353 156.711 104.331 156.519 105.823C158.297 105.872 159.431 106.06 159.92 106.385C159.356 106.976 161.368 108.977 165.955 112.392L168.846 117.497C170.491 118.474 174.299 123.138 180.27 131.488Z" fill="#329BD5"/>
</g>
<mask id="mask2_1064_3544" style="mask-type:luminance" maskUnits="userSpaceOnUse" x="34" y="29" width="129" height="131">
<path d="M34.7822 29.0078H162.356V159.461H34.7822V29.0078Z" fill="white"/>
</mask>
<g mask="url(#mask2_1064_3544)">
<path d="M162.078 158.989L161.978 158.461C161.998 157.818 159.433 151.911 154.28 140.74L153.747 136.863C148.8 132.458 145.414 126.848 143.587 120.033L140.412 120.58L138.891 110.722C138.62 112.073 137.096 111.111 134.319 107.833C134.032 107.485 133.751 107.126 133.476 106.753L130.131 99.9001C128.196 99.4921 126.097 98.2856 123.837 96.2822C122.483 94.6899 122.007 92.4579 122.407 89.5862C119.463 88.6559 118.136 86.8589 118.424 84.1935C118.025 84.0046 117.135 84.4665 115.753 85.5778C114.058 82.1869 113.056 80.4455 112.745 80.355C107.822 78.023 104.813 76.372 103.714 75.4004C103.358 74.8829 103.295 72.4414 103.528 68.0774L101.788 68.3568C100.682 66.6439 99.8183 65.5199 99.1992 64.985C96.4671 64.3182 93.5636 62.445 90.4887 59.3669L85.8739 57.654L82.683 54.9156L77.284 52.8709L73.7423 49.6419C71.877 49.4626 69.9435 49.0895 67.9417 48.5244L67.2432 44.8557L62.4156 44.7715C60.3201 42.5475 58.3136 41.6696 56.3959 42.1395L47.3282 34.6498C39.3701 30.8112 35.2189 29.0412 34.8728 29.3412C45.4518 36.7436 51.6652 42.0649 53.5146 45.3018C54.1433 45.6526 55.2815 45.9177 56.9309 46.0939C60.7361 51.1215 63.4173 53.6487 64.9762 53.6773L66.8177 57.1396L70.988 59.886C72.9835 64.1071 74.7805 66.4724 76.3807 66.9788L75.5409 69.2775L78.8508 70.5523C85.0119 75.4766 89.0822 78.2103 91.0586 78.7516C93.0556 81.7123 94.94 83.3013 96.7084 83.5156C97.0307 83.8284 97.6419 85.6524 98.542 88.9877C99.1865 89.691 100.291 90.4037 101.853 91.126C101.274 92.3849 102.174 94.3645 104.552 97.0648C106.651 99.9048 110.056 101.673 114.766 102.373L114.706 107.352L121.259 110.454C121.351 111.416 122.849 112.695 125.751 114.295L126.561 118.691L130.642 121.137L131.751 125.003C133.011 125.897 134.406 127.576 135.938 130.04L143.263 134.869C143.279 135.255 142.41 135.472 140.655 135.522C140.483 135.845 140.58 136.242 140.948 136.712C141.85 137.93 145.244 140.328 151.129 143.91C151.402 144.092 151.491 144.988 151.396 146.593L161.719 158.932C162.006 159.196 162.125 159.215 162.078 158.989Z" fill="#329BD5"/>
</g>
<path d="M131.406 158.044L131.261 157.363C131.187 156.207 128.553 151.813 123.359 144.179C122.817 141.212 121.987 139.34 120.866 138.566L120.658 136.627C117.934 135.094 116.58 134.198 116.598 133.938C114.986 131.428 114.104 129.839 113.95 129.169C113.556 128.134 113.413 127.288 113.52 126.633C112.338 126.312 111.359 124.624 110.581 121.57L108.092 119.151L106.171 115.011C105.35 114.353 103.347 113.65 100.164 112.899L97.9749 109.119L94.0062 106.103L94.738 105.611L92.1409 103.876C91.8297 102.63 91.5122 101.893 91.19 101.668L85.7259 99.739C85.4798 99.6803 85.3655 99.0135 85.3846 97.7388C83.9003 97.0276 82.9367 96.2037 82.4953 95.2655C79.3045 94.54 77.6932 94.0129 77.6615 93.6859L76.736 90.9412C76.2438 90.5554 74.777 90.0522 72.3355 89.4283C71.5401 88.7838 70.4622 87.6678 69.1033 86.0803C65.9093 85.0802 63.7424 84.169 62.5994 83.3466C62.0105 83.0609 61.4723 82.264 60.9865 80.9575L56.0939 79.27L44.4354 73.1915C44.1497 73.1042 44.0338 73.1217 44.0862 73.2407C49.036 77.8746 52.811 80.7606 55.4097 81.8973L58.5783 86.7708C58.564 86.9201 59.7658 87.3344 62.1835 88.0138C61.7136 88.6695 62.836 89.8776 65.549 91.6365L67.2238 95.3258C67.2968 95.4623 68.281 95.7719 70.1765 96.2513C70.894 97.526 72.245 98.5023 74.2325 99.1786L79.0521 105.486L79.1251 106.748L83.0859 107.618C82.8589 108.561 84.929 111.364 89.2945 116.028C91.371 117.76 93.5458 119.06 95.8191 119.927C96.689 121.721 98.3352 123.734 100.759 125.967L103.199 130.543C104.995 131.065 106.255 131.649 106.984 132.295C107.803 132.909 109.059 134.341 110.753 136.594C110.794 136.74 111.71 137.081 113.5 137.618L116.264 141.396L119.495 143.295L120.887 145.966C122.209 146.232 125.716 150.257 131.406 158.044Z" fill="#329BD5"/>
<mask id="mask3_1064_3544" style="mask-type:luminance" maskUnits="userSpaceOnUse" x="37" y="97" width="69" height="66">
<path d="M37.1855 97.6914H105.866V162.758H37.1855V97.6914Z" fill="white"/>
</mask>
<g mask="url(#mask3_1064_3544)">
<path d="M105.585 162.756L98.1337 151.822C97.8004 151.207 97.5416 149.969 97.3591 148.108C96.2589 147.527 95.4001 146.883 94.781 146.176L93.8015 144.954L92.7046 141.725C92.1235 141.701 90.9266 140.668 89.1153 138.628C88.8819 138.506 88.2993 136.861 87.3643 133.694C87.3436 133.469 86.788 133.035 85.7006 132.397L85.083 130.36C83.2257 129.721 82.1668 128.951 81.9033 128.049C79.9285 127.492 78.8903 127.147 78.7919 127.019C78.4791 126.555 77.9156 125.333 77.1012 123.35C76.7329 123.028 75.8788 122.628 74.539 122.151L72.4927 117.268C72.0546 117.059 71.0386 116.945 69.4479 116.929L67.6827 113.752C67.4922 113.72 66.9667 113.901 66.1047 114.298C65.8221 113.965 64.7188 113.67 62.798 113.412L62.3725 111.944L60.5199 111.426C59.9262 110.671 58.6261 109.874 56.6179 109.037L54.4526 106.651C52.4063 106.264 50.0394 104.823 47.3518 102.329C47.2962 102.403 46.6533 102.17 45.4246 101.628C44.8324 101.395 42.3766 100.235 38.0586 98.1471C37.5745 97.9265 37.3935 97.9916 37.5157 98.3456C42.8163 103.222 46.0913 105.556 47.3422 105.35L48.6979 108.278L53.3572 110.901L54.1335 113.017L59.4135 117.433L62.1947 118.956L64.7506 123.445C65.0824 123.699 65.7824 123.855 66.8508 123.912L67.6128 125.407L72.3054 131.338C73.1611 132.037 74.5866 132.675 76.5805 133.25L83.4448 142.3L85.3132 144.289C86.4832 145.405 88.058 146.23 90.036 146.765C90.2836 147.221 91.1806 148.294 92.7284 149.985C94.3778 150.752 95.2588 151.212 95.3747 151.366C95.6573 151.958 96.1224 152.636 96.7733 153.401L105.585 162.756Z" fill="#329BD5"/>
</g>
</g>
<defs>
<filter id="filter0_d_1064_3544" x="5.91278e-05" y="0" width="348.555" height="343.402" filterUnits="userSpaceOnUse" color-interpolation-filters="sRGB">
<feFlood flood-opacity="0" result="BackgroundImageFix"/>
<feColorMatrix in="SourceAlpha" type="matrix" values="0 0 0 0 0 0 0 0 0 0 0 0 0 0 0 0 0 0 127 0" result="hardAlpha"/>
<feOffset dx="-5.15106"/>
<feComposite in2="hardAlpha" operator="out"/>
<feColorMatrix type="matrix" values="0 0 0 0 0 0 0 0 0 0 0 0 0 0 0 0 0 0 1 0"/>
<feBlend mode="normal" in2="BackgroundImageFix" result="effect1_dropShadow_1064_3544"/>
<feBlend mode="normal" in="SourceGraphic" in2="effect1_dropShadow_1064_3544" result="shape"/>
</filter>
</defs>
</svg>
