<svg width="349" height="344" viewBox="0 0 349 344" fill="none" xmlns="http://www.w3.org/2000/svg">
<g filter="url(#filter0_d_1064_3599)">
<rect x="5.15112" width="343.404" height="343.404" fill="white"/>
</g>
<path d="M35.1921 205.474H51.3939V211.532H35.1921V205.474ZM35.769 219.32H54.0862V225.57H28.0287V191.917H53.4612V198.167H35.769V219.32ZM56.2035 225.57L67.7899 210.378L67.6457 214.513L56.54 199.705H64.9534L71.9726 209.368L68.7995 209.465L76.0591 199.705H84.0398L72.886 214.368V210.33L84.4244 225.57H75.9149L68.5591 215.282L71.6841 215.715L64.3765 225.57H56.2035ZM99.7669 225.955C96.9784 225.955 94.4945 225.394 92.315 224.272C90.1355 223.118 88.4208 221.532 87.1708 219.513C85.9528 217.493 85.3439 215.202 85.3439 212.638C85.3439 210.042 85.9528 207.75 87.1708 205.763C88.4208 203.744 90.1355 202.173 92.315 201.051C94.4945 199.897 96.9784 199.32 99.7669 199.32C102.491 199.32 104.863 199.897 106.882 201.051C108.901 202.173 110.392 203.792 111.353 205.907L105.536 209.032C104.863 207.814 104.014 206.917 102.988 206.34C101.994 205.763 100.905 205.474 99.7188 205.474C98.4367 205.474 97.2829 205.763 96.2573 206.34C95.2316 206.917 94.4143 207.734 93.8054 208.792C93.2284 209.849 92.94 211.131 92.94 212.638C92.94 214.144 93.2284 215.426 93.8054 216.484C94.4143 217.542 95.2316 218.359 96.2573 218.936C97.2829 219.513 98.4367 219.801 99.7188 219.801C100.905 219.801 101.994 219.529 102.988 218.984C104.014 218.407 104.863 217.493 105.536 216.243L111.353 219.417C110.392 221.5 108.901 223.118 106.882 224.272C104.863 225.394 102.491 225.955 99.7669 225.955ZM128.179 225.955C125.231 225.955 122.635 225.378 120.391 224.224C118.179 223.07 116.465 221.5 115.247 219.513C114.029 217.493 113.42 215.202 113.42 212.638C113.42 210.042 114.013 207.75 115.199 205.763C116.417 203.744 118.067 202.173 120.151 201.051C122.234 199.897 124.59 199.32 127.218 199.32C129.75 199.32 132.026 199.865 134.045 200.955C136.096 202.013 137.715 203.551 138.9 205.57C140.086 207.558 140.679 209.945 140.679 212.734C140.679 213.022 140.663 213.359 140.631 213.743C140.599 214.096 140.567 214.433 140.535 214.753H119.526V210.378H136.593L133.708 211.676C133.708 210.33 133.436 209.16 132.891 208.167C132.346 207.173 131.593 206.404 130.631 205.859C129.67 205.282 128.548 204.994 127.266 204.994C125.984 204.994 124.846 205.282 123.852 205.859C122.891 206.404 122.138 207.189 121.593 208.215C121.048 209.208 120.776 210.394 120.776 211.772V212.926C120.776 214.336 121.08 215.586 121.689 216.676C122.33 217.734 123.211 218.551 124.333 219.128C125.487 219.673 126.833 219.945 128.372 219.945C129.75 219.945 130.952 219.737 131.977 219.32C133.035 218.904 133.997 218.279 134.862 217.445L138.852 221.772C137.666 223.118 136.176 224.16 134.381 224.897C132.586 225.602 130.519 225.955 128.179 225.955ZM145.672 225.57V189.897H153.172V225.57H145.672ZM172.969 225.955C170.021 225.955 167.425 225.378 165.181 224.224C162.97 223.07 161.255 221.5 160.037 219.513C158.819 217.493 158.21 215.202 158.21 212.638C158.21 210.042 158.803 207.75 159.989 205.763C161.207 203.744 162.857 202.173 164.941 201.051C167.024 199.897 169.38 199.32 172.008 199.32C174.54 199.32 176.816 199.865 178.835 200.955C180.886 202.013 182.505 203.551 183.691 205.57C184.876 207.558 185.469 209.945 185.469 212.734C185.469 213.022 185.453 213.359 185.421 213.743C185.389 214.096 185.357 214.433 185.325 214.753H164.316V210.378H181.383L178.498 211.676C178.498 210.33 178.226 209.16 177.681 208.167C177.136 207.173 176.383 206.404 175.421 205.859C174.46 205.282 173.338 204.994 172.056 204.994C170.774 204.994 169.636 205.282 168.643 205.859C167.681 206.404 166.928 207.189 166.383 208.215C165.838 209.208 165.566 210.394 165.566 211.772V212.926C165.566 214.336 165.87 215.586 166.479 216.676C167.12 217.734 168.002 218.551 169.123 219.128C170.277 219.673 171.623 219.945 173.162 219.945C174.54 219.945 175.742 219.737 176.768 219.32C177.825 218.904 178.787 218.279 179.652 217.445L183.642 221.772C182.457 223.118 180.966 224.16 179.171 224.897C177.376 225.602 175.309 225.955 172.969 225.955ZM162.2 196.388L168.546 189.465H175.181L181.527 196.388H176.046L169.412 190.619H174.316L167.681 196.388H162.2ZM206.184 199.32C208.235 199.32 210.062 199.737 211.664 200.57C213.299 201.372 214.581 202.622 215.511 204.32C216.44 205.987 216.905 208.135 216.905 210.763V225.57H209.405V211.917C209.405 209.833 208.94 208.295 208.011 207.301C207.113 206.308 205.831 205.811 204.164 205.811C202.979 205.811 201.905 206.067 200.943 206.58C200.014 207.061 199.277 207.814 198.732 208.84C198.219 209.865 197.963 211.179 197.963 212.782V225.57H190.463V199.705H197.626V206.869L196.28 204.705C197.209 202.974 198.539 201.644 200.27 200.715C202.001 199.785 203.972 199.32 206.184 199.32ZM236.391 225.955C233.602 225.955 231.118 225.394 228.939 224.272C226.759 223.118 225.045 221.532 223.795 219.513C222.577 217.493 221.968 215.202 221.968 212.638C221.968 210.042 222.577 207.75 223.795 205.763C225.045 203.744 226.759 202.173 228.939 201.051C231.118 199.897 233.602 199.32 236.391 199.32C239.115 199.32 241.487 199.897 243.506 201.051C245.525 202.173 247.016 203.792 247.977 205.907L242.16 209.032C241.487 207.814 240.638 206.917 239.612 206.34C238.618 205.763 237.529 205.474 236.343 205.474C235.061 205.474 233.907 205.763 232.881 206.34C231.856 206.917 231.038 207.734 230.429 208.792C229.852 209.849 229.564 211.131 229.564 212.638C229.564 214.144 229.852 215.426 230.429 216.484C231.038 217.542 231.856 218.359 232.881 218.936C233.907 219.513 235.061 219.801 236.343 219.801C237.529 219.801 238.618 219.529 239.612 218.984C240.638 218.407 241.487 217.493 242.16 216.243L247.977 219.417C247.016 221.5 245.525 223.118 243.506 224.272C241.487 225.394 239.115 225.955 236.391 225.955ZM252.155 225.57V199.705H259.655V225.57H252.155ZM255.905 196.099C254.526 196.099 253.405 195.699 252.539 194.897C251.674 194.096 251.241 193.103 251.241 191.917C251.241 190.731 251.674 189.737 252.539 188.936C253.405 188.135 254.526 187.734 255.905 187.734C257.283 187.734 258.405 188.119 259.27 188.888C260.135 189.625 260.568 190.587 260.568 191.772C260.568 193.022 260.135 194.064 259.27 194.897C258.437 195.699 257.315 196.099 255.905 196.099ZM282.48 225.57V220.522L282 219.417V210.378C282 208.776 281.503 207.526 280.509 206.628C279.548 205.731 278.057 205.282 276.038 205.282C274.66 205.282 273.298 205.506 271.952 205.955C270.638 206.372 269.516 206.949 268.586 207.686L265.894 202.445C267.304 201.452 269.003 200.683 270.99 200.138C272.977 199.593 274.997 199.32 277.048 199.32C280.99 199.32 284.051 200.25 286.23 202.109C288.41 203.968 289.5 206.869 289.5 210.811V225.57H282.48ZM274.596 225.955C272.577 225.955 270.846 225.618 269.404 224.945C267.961 224.24 266.856 223.295 266.086 222.109C265.317 220.923 264.932 219.593 264.932 218.118C264.932 216.58 265.301 215.234 266.038 214.08C266.807 212.926 268.009 212.029 269.644 211.388C271.279 210.715 273.41 210.378 276.038 210.378H282.913V214.753H276.855C275.093 214.753 273.875 215.042 273.202 215.618C272.561 216.195 272.24 216.917 272.24 217.782C272.24 218.743 272.609 219.513 273.346 220.09C274.115 220.634 275.157 220.907 276.471 220.907C277.721 220.907 278.843 220.618 279.836 220.042C280.83 219.433 281.551 218.551 282 217.397L283.154 220.859C282.609 222.525 281.615 223.791 280.173 224.657C278.73 225.522 276.872 225.955 274.596 225.955ZM28.0562 252.967H35.4943V254.739H28.0562V252.967ZM28.2622 260.57H26.2018V246.147H36.3803V247.94H28.2622V260.57ZM45.3686 260.57V258.263L45.2655 257.83V253.895C45.2655 253.057 45.0183 252.411 44.5238 251.958C44.043 251.491 43.315 251.257 42.3397 251.257C41.6941 251.257 41.0623 251.367 40.4441 251.587C39.826 251.793 39.304 252.074 38.8782 252.432L38.0541 250.948C38.6172 250.495 39.2903 250.151 40.0733 249.918C40.87 249.671 41.701 249.547 42.5664 249.547C44.0636 249.547 45.2175 249.911 46.0279 250.639C46.8383 251.367 47.2436 252.48 47.2436 253.977V260.57H45.3686ZM41.7834 260.694C40.973 260.694 40.2587 260.557 39.6406 260.282C39.0362 260.007 38.5692 259.629 38.2395 259.149C37.9098 258.654 37.745 258.098 37.745 257.48C37.745 256.889 37.8824 256.353 38.1571 255.873C38.4455 255.392 38.9057 255.007 39.5376 254.719C40.1832 254.43 41.0485 254.286 42.1337 254.286H45.5952V255.708H42.2161C41.2271 255.708 40.5609 255.873 40.2175 256.202C39.8741 256.532 39.7024 256.93 39.7024 257.397C39.7024 257.933 39.9153 258.366 40.3411 258.695C40.7669 259.011 41.3576 259.169 42.1131 259.169C42.8548 259.169 43.5004 259.004 44.0499 258.675C44.6131 258.345 45.0183 257.864 45.2655 257.232L45.657 258.592C45.396 259.238 44.9359 259.753 44.2765 260.138C43.6172 260.508 42.7862 260.694 41.7834 260.694ZM49.8532 260.57V259.293L56.8587 250.598L57.2501 251.278H49.9768V249.65H58.8367V250.948L51.8312 259.623L51.3779 258.943H59.0015V260.57H49.8532ZM66.3505 260.694C65.1829 260.694 64.1527 260.454 63.2598 259.973C62.3807 259.492 61.6939 258.833 61.1994 257.995C60.7186 257.157 60.4782 256.195 60.4782 255.11C60.4782 254.025 60.7118 253.063 61.1788 252.226C61.6596 251.388 62.312 250.735 63.1362 250.268C63.9741 249.787 64.915 249.547 65.959 249.547C67.0167 249.547 67.9507 249.781 68.7612 250.248C69.5716 250.715 70.2035 251.374 70.6567 252.226C71.1238 253.063 71.3573 254.046 71.3573 255.172C71.3573 255.254 71.3504 255.351 71.3367 255.46C71.3367 255.57 71.3298 255.673 71.3161 255.77H62.0236V254.348H70.2859L69.4823 254.842C69.496 254.142 69.3518 253.517 69.0496 252.967C68.7474 252.418 68.3285 251.992 67.7928 251.69C67.2708 251.374 66.6595 251.216 65.959 251.216C65.2722 251.216 64.6609 251.374 64.1252 251.69C63.5895 251.992 63.1705 252.425 62.8683 252.988C62.5661 253.537 62.415 254.169 62.415 254.884V255.213C62.415 255.941 62.5799 256.594 62.9095 257.171C63.253 257.734 63.7268 258.173 64.3312 258.489C64.9356 258.805 65.6293 258.963 66.4123 258.963C67.0579 258.963 67.6417 258.853 68.1636 258.634C68.6993 258.414 69.1664 258.084 69.5647 257.645L70.6567 258.922C70.1622 259.499 69.5441 259.938 68.8024 260.241C68.0743 260.543 67.257 260.694 66.3505 260.694ZM74.1039 260.57V249.65H75.9995V252.617L75.8141 251.875C76.1163 251.12 76.6245 250.543 77.3388 250.145C78.0531 249.746 78.9322 249.547 79.9761 249.547V251.463C79.8937 251.449 79.8113 251.443 79.7289 251.443C79.6602 251.443 79.5915 251.443 79.5229 251.443C78.4652 251.443 77.6273 251.759 77.0091 252.39C76.391 253.022 76.0819 253.936 76.0819 255.131V260.57H74.1039ZM91.2201 260.694C90.3135 260.694 89.4481 260.57 88.624 260.323C87.8135 260.076 87.1748 259.774 86.7078 259.416L87.532 257.851C87.999 258.166 88.5759 258.434 89.2627 258.654C89.9495 258.874 90.6501 258.984 91.3643 258.984C92.2847 258.984 92.944 258.853 93.3424 258.592C93.7544 258.331 93.9605 257.967 93.9605 257.5C93.9605 257.157 93.8369 256.889 93.5896 256.697C93.3424 256.504 93.0127 256.36 92.6006 256.264C92.2023 256.168 91.7558 256.085 91.2613 256.017C90.7668 255.934 90.2723 255.838 89.7778 255.728C89.2833 255.605 88.83 255.44 88.4179 255.234C88.0059 255.014 87.6762 254.719 87.4289 254.348C87.1817 253.963 87.0581 253.455 87.0581 252.823C87.0581 252.164 87.2435 251.587 87.6144 251.092C87.9852 250.598 88.5072 250.22 89.1803 249.959C89.8671 249.684 90.6775 249.547 91.6116 249.547C92.3259 249.547 93.047 249.636 93.775 249.815C94.5168 249.98 95.1212 250.22 95.5882 250.536L94.7434 252.102C94.2489 251.772 93.7338 251.546 93.1981 251.422C92.6624 251.298 92.1267 251.237 91.591 251.237C90.7256 251.237 90.08 251.381 89.6542 251.669C89.2284 251.944 89.0155 252.301 89.0155 252.741C89.0155 253.112 89.1391 253.4 89.3863 253.606C89.6473 253.798 89.977 253.949 90.3753 254.059C90.7874 254.169 91.2407 254.265 91.7352 254.348C92.2297 254.417 92.7242 254.513 93.2187 254.636C93.7132 254.746 94.1597 254.904 94.558 255.11C94.9701 255.316 95.2998 255.605 95.547 255.976C95.808 256.346 95.9385 256.841 95.9385 257.459C95.9385 258.118 95.7462 258.688 95.3616 259.169C94.977 259.65 94.4344 260.028 93.7338 260.302C93.0333 260.563 92.1954 260.694 91.2201 260.694ZM103.088 260.694C101.989 260.694 101.014 260.454 100.162 259.973C99.3102 259.492 98.6372 258.833 98.1427 257.995C97.6482 257.143 97.4009 256.182 97.4009 255.11C97.4009 254.025 97.6482 253.063 98.1427 252.226C98.6372 251.388 99.3102 250.735 100.162 250.268C101.014 249.787 101.989 249.547 103.088 249.547C104.173 249.547 105.141 249.787 105.993 250.268C106.858 250.735 107.531 251.388 108.012 252.226C108.507 253.05 108.754 254.011 108.754 255.11C108.754 256.195 108.507 257.157 108.012 257.995C107.531 258.833 106.858 259.492 105.993 259.973C105.141 260.454 104.173 260.694 103.088 260.694ZM103.088 258.963C103.788 258.963 104.413 258.805 104.963 258.489C105.526 258.173 105.965 257.727 106.281 257.15C106.597 256.559 106.755 255.879 106.755 255.11C106.755 254.327 106.597 253.654 106.281 253.091C105.965 252.514 105.526 252.068 104.963 251.752C104.413 251.436 103.788 251.278 103.088 251.278C102.387 251.278 101.762 251.436 101.213 251.752C100.663 252.068 100.224 252.514 99.894 253.091C99.5644 253.654 99.3995 254.327 99.3995 255.11C99.3995 255.879 99.5644 256.559 99.894 257.15C100.224 257.727 100.663 258.173 101.213 258.489C101.762 258.805 102.387 258.963 103.088 258.963ZM111.489 260.57V245.282H113.467V260.57H111.489ZM121.839 260.694C120.905 260.694 120.081 260.522 119.366 260.179C118.666 259.835 118.116 259.313 117.718 258.613C117.333 257.899 117.141 257.006 117.141 255.934V249.65H119.119V255.708C119.119 256.779 119.373 257.583 119.881 258.118C120.403 258.654 121.131 258.922 122.065 258.922C122.752 258.922 123.35 258.785 123.858 258.51C124.366 258.221 124.758 257.809 125.033 257.274C125.307 256.724 125.445 256.065 125.445 255.296V249.65H127.423V260.57H125.548V257.624L125.857 258.407C125.5 259.135 124.964 259.698 124.25 260.096C123.535 260.495 122.732 260.694 121.839 260.694ZM135.948 260.694C134.835 260.694 133.839 260.454 132.96 259.973C132.095 259.492 131.415 258.833 130.92 257.995C130.426 257.157 130.179 256.195 130.179 255.11C130.179 254.025 130.426 253.063 130.92 252.226C131.415 251.388 132.095 250.735 132.96 250.268C133.839 249.787 134.835 249.547 135.948 249.547C136.937 249.547 137.816 249.746 138.585 250.145C139.368 250.529 139.972 251.106 140.398 251.875L138.894 252.844C138.537 252.308 138.097 251.917 137.576 251.669C137.067 251.408 136.518 251.278 135.927 251.278C135.213 251.278 134.574 251.436 134.011 251.752C133.448 252.068 133.001 252.514 132.672 253.091C132.342 253.654 132.177 254.327 132.177 255.11C132.177 255.893 132.342 256.573 132.672 257.15C133.001 257.727 133.448 258.173 134.011 258.489C134.574 258.805 135.213 258.963 135.927 258.963C136.518 258.963 137.067 258.84 137.576 258.592C138.097 258.331 138.537 257.933 138.894 257.397L140.398 258.345C139.972 259.101 139.368 259.684 138.585 260.096C137.816 260.495 136.937 260.694 135.948 260.694ZM134.979 265.186C134.622 265.186 134.293 265.144 133.99 265.062C133.688 264.993 133.407 264.883 133.146 264.732L133.578 263.723C133.798 263.846 134.018 263.936 134.238 263.991C134.471 264.046 134.718 264.073 134.979 264.073C135.378 264.073 135.666 263.997 135.845 263.846C136.037 263.709 136.133 263.51 136.133 263.249C136.133 263.002 136.037 262.802 135.845 262.651C135.666 262.514 135.371 262.445 134.959 262.445H134.402L134.918 260.426H136.051L135.742 261.601C136.332 261.655 136.779 261.841 137.081 262.157C137.383 262.473 137.534 262.857 137.534 263.311C137.534 263.888 137.301 264.341 136.834 264.671C136.367 265.014 135.749 265.186 134.979 265.186ZM147.475 260.694C146.376 260.694 145.401 260.454 144.55 259.973C143.698 259.492 143.025 258.833 142.53 257.995C142.036 257.143 141.789 256.182 141.789 255.11C141.789 254.025 142.036 253.063 142.53 252.226C143.025 251.388 143.698 250.735 144.55 250.268C145.401 249.787 146.376 249.547 147.475 249.547C148.561 249.547 149.529 249.787 150.381 250.268C151.246 250.735 151.919 251.388 152.4 252.226C152.894 253.05 153.142 254.011 153.142 255.11C153.142 256.195 152.894 257.157 152.4 257.995C151.919 258.833 151.246 259.492 150.381 259.973C149.529 260.454 148.561 260.694 147.475 260.694ZM147.475 258.963C148.176 258.963 148.801 258.805 149.35 258.489C149.914 258.173 150.353 257.727 150.669 257.15C150.985 256.559 151.143 255.879 151.143 255.11C151.143 254.327 150.985 253.654 150.669 253.091C150.353 252.514 149.914 252.068 149.35 251.752C148.801 251.436 148.176 251.278 147.475 251.278C146.775 251.278 146.15 251.436 145.6 251.752C145.051 252.068 144.611 252.514 144.282 253.091C143.952 253.654 143.787 254.327 143.787 255.11C143.787 255.879 143.952 256.559 144.282 257.15C144.611 257.727 145.051 258.173 145.6 258.489C146.15 258.805 146.775 258.963 147.475 258.963ZM148.897 248.002C148.567 248.002 148.272 247.933 148.011 247.796C147.764 247.658 147.537 247.5 147.331 247.322C147.125 247.129 146.926 246.965 146.734 246.827C146.541 246.69 146.349 246.621 146.157 246.621C145.855 246.621 145.607 246.738 145.415 246.972C145.236 247.191 145.133 247.5 145.106 247.899H143.993C144.021 247.129 144.213 246.518 144.57 246.065C144.927 245.612 145.408 245.385 146.012 245.385C146.342 245.385 146.637 245.461 146.898 245.612C147.159 245.749 147.393 245.914 147.599 246.106C147.805 246.285 147.997 246.443 148.176 246.58C148.368 246.717 148.561 246.786 148.753 246.786C149.055 246.786 149.302 246.676 149.495 246.456C149.687 246.237 149.79 245.934 149.804 245.55H150.916C150.903 246.278 150.71 246.868 150.339 247.322C149.982 247.775 149.501 248.002 148.897 248.002ZM160.74 260.694C159.572 260.694 158.542 260.454 157.649 259.973C156.77 259.492 156.083 258.833 155.589 257.995C155.108 257.157 154.867 256.195 154.867 255.11C154.867 254.025 155.101 253.063 155.568 252.226C156.049 251.388 156.701 250.735 157.525 250.268C158.363 249.787 159.304 249.547 160.348 249.547C161.406 249.547 162.34 249.781 163.15 250.248C163.961 250.715 164.593 251.374 165.046 252.226C165.513 253.063 165.747 254.046 165.747 255.172C165.747 255.254 165.74 255.351 165.726 255.46C165.726 255.57 165.719 255.673 165.705 255.77H156.413V254.348H164.675L163.872 254.842C163.885 254.142 163.741 253.517 163.439 252.967C163.137 252.418 162.718 251.992 162.182 251.69C161.66 251.374 161.049 251.216 160.348 251.216C159.661 251.216 159.05 251.374 158.514 251.69C157.979 251.992 157.56 252.425 157.258 252.988C156.955 253.537 156.804 254.169 156.804 254.884V255.213C156.804 255.941 156.969 256.594 157.299 257.171C157.642 257.734 158.116 258.173 158.72 258.489C159.325 258.805 160.019 258.963 160.801 258.963C161.447 258.963 162.031 258.853 162.553 258.634C163.089 258.414 163.556 258.084 163.954 257.645L165.046 258.922C164.551 259.499 163.933 259.938 163.192 260.241C162.464 260.543 161.646 260.694 160.74 260.694ZM171.625 260.694C170.718 260.694 169.853 260.57 169.029 260.323C168.218 260.076 167.58 259.774 167.113 259.416L167.937 257.851C168.404 258.166 168.981 258.434 169.668 258.654C170.354 258.874 171.055 258.984 171.769 258.984C172.69 258.984 173.349 258.853 173.747 258.592C174.159 258.331 174.365 257.967 174.365 257.5C174.365 257.157 174.242 256.889 173.994 256.697C173.747 256.504 173.418 256.36 173.005 256.264C172.607 256.168 172.161 256.085 171.666 256.017C171.172 255.934 170.677 255.838 170.183 255.728C169.688 255.605 169.235 255.44 168.823 255.234C168.411 255.014 168.081 254.719 167.834 254.348C167.587 253.963 167.463 253.455 167.463 252.823C167.463 252.164 167.648 251.587 168.019 251.092C168.39 250.598 168.912 250.22 169.585 249.959C170.272 249.684 171.082 249.547 172.016 249.547C172.731 249.547 173.452 249.636 174.18 249.815C174.922 249.98 175.526 250.22 175.993 250.536L175.148 252.102C174.654 251.772 174.139 251.546 173.603 251.422C173.067 251.298 172.532 251.237 171.996 251.237C171.13 251.237 170.485 251.381 170.059 251.669C169.633 251.944 169.42 252.301 169.42 252.741C169.42 253.112 169.544 253.4 169.791 253.606C170.052 253.798 170.382 253.949 170.78 254.059C171.192 254.169 171.646 254.265 172.14 254.348C172.635 254.417 173.129 254.513 173.624 254.636C174.118 254.746 174.565 254.904 174.963 255.11C175.375 255.316 175.705 255.605 175.952 255.976C176.213 256.346 176.343 256.841 176.343 257.459C176.343 258.118 176.151 258.688 175.766 259.169C175.382 259.65 174.839 260.028 174.139 260.302C173.438 260.563 172.6 260.694 171.625 260.694ZM188.861 260.694C187.803 260.694 186.856 260.46 186.018 259.993C185.194 259.526 184.541 258.874 184.06 258.036C183.58 257.198 183.339 256.223 183.339 255.11C183.339 253.998 183.58 253.029 184.06 252.205C184.541 251.367 185.194 250.715 186.018 250.248C186.856 249.781 187.803 249.547 188.861 249.547C189.781 249.547 190.612 249.753 191.354 250.165C192.096 250.577 192.687 251.195 193.126 252.02C193.579 252.844 193.806 253.874 193.806 255.11C193.806 256.346 193.586 257.377 193.147 258.201C192.721 259.025 192.137 259.65 191.395 260.076C190.654 260.488 189.809 260.694 188.861 260.694ZM189.026 258.963C189.713 258.963 190.331 258.805 190.88 258.489C191.444 258.173 191.883 257.727 192.199 257.15C192.529 256.559 192.693 255.879 192.693 255.11C192.693 254.327 192.529 253.654 192.199 253.091C191.883 252.514 191.444 252.068 190.88 251.752C190.331 251.436 189.713 251.278 189.026 251.278C188.325 251.278 187.7 251.436 187.151 251.752C186.602 252.068 186.162 252.514 185.832 253.091C185.503 253.654 185.338 254.327 185.338 255.11C185.338 255.879 185.503 256.559 185.832 257.15C186.162 257.727 186.602 258.173 187.151 258.489C187.7 258.805 188.325 258.963 189.026 258.963ZM192.755 260.57V257.624L192.879 255.09L192.673 252.555V245.282H194.651V260.57H192.755ZM203.256 260.694C202.089 260.694 201.058 260.454 200.165 259.973C199.286 259.492 198.6 258.833 198.105 257.995C197.624 257.157 197.384 256.195 197.384 255.11C197.384 254.025 197.617 253.063 198.084 252.226C198.565 251.388 199.218 250.735 200.042 250.268C200.88 249.787 201.821 249.547 202.865 249.547C203.922 249.547 204.856 249.781 205.667 250.248C206.477 250.715 207.109 251.374 207.562 252.226C208.029 253.063 208.263 254.046 208.263 255.172C208.263 255.254 208.256 255.351 208.242 255.46C208.242 255.57 208.235 255.673 208.222 255.77H198.929V254.348H207.191L206.388 254.842C206.402 254.142 206.257 253.517 205.955 252.967C205.653 252.418 205.234 251.992 204.698 251.69C204.176 251.374 203.565 251.216 202.865 251.216C202.178 251.216 201.567 251.374 201.031 251.69C200.495 251.992 200.076 252.425 199.774 252.988C199.472 253.537 199.321 254.169 199.321 254.884V255.213C199.321 255.941 199.486 256.594 199.815 257.171C200.159 257.734 200.632 258.173 201.237 258.489C201.841 258.805 202.535 258.963 203.318 258.963C203.963 258.963 204.547 258.853 205.069 258.634C205.605 258.414 206.072 258.084 206.47 257.645L207.562 258.922C207.068 259.499 206.45 259.938 205.708 260.241C204.98 260.543 204.163 260.694 203.256 260.694ZM221.055 260.694C219.998 260.694 219.05 260.46 218.212 259.993C217.388 259.526 216.735 258.874 216.254 258.036C215.774 257.198 215.533 256.223 215.533 255.11C215.533 253.998 215.774 253.029 216.254 252.205C216.735 251.367 217.388 250.715 218.212 250.248C219.05 249.781 219.998 249.547 221.055 249.547C222.003 249.547 222.848 249.753 223.59 250.165C224.331 250.577 224.915 251.195 225.341 252.02C225.781 252.844 226 253.874 226 255.11C226 256.346 225.774 257.377 225.32 258.201C224.881 259.025 224.29 259.65 223.548 260.076C222.807 260.488 221.976 260.694 221.055 260.694ZM221.22 258.963C221.907 258.963 222.525 258.805 223.074 258.489C223.638 258.173 224.077 257.727 224.393 257.15C224.723 256.559 224.888 255.879 224.888 255.11C224.888 254.327 224.723 253.654 224.393 253.091C224.077 252.514 223.638 252.068 223.074 251.752C222.525 251.436 221.907 251.278 221.22 251.278C220.52 251.278 219.895 251.436 219.345 251.752C218.796 252.068 218.356 252.514 218.026 253.091C217.697 253.654 217.532 254.327 217.532 255.11C217.532 255.879 217.697 256.559 218.026 257.15C218.356 257.727 218.796 258.173 219.345 258.489C219.895 258.805 220.52 258.963 221.22 258.963ZM224.867 264.568V257.665L225.073 255.131L224.949 252.596V249.65H226.845V264.568H224.867ZM235.182 260.694C234.248 260.694 233.424 260.522 232.71 260.179C232.009 259.835 231.46 259.313 231.062 258.613C230.677 257.899 230.485 257.006 230.485 255.934V249.65H232.463V255.708C232.463 256.779 232.717 257.583 233.225 258.118C233.747 258.654 234.475 258.922 235.409 258.922C236.096 258.922 236.693 258.785 237.202 258.51C237.71 258.221 238.101 257.809 238.376 257.274C238.651 256.724 238.788 256.065 238.788 255.296V249.65H240.766V260.57H238.891V257.624L239.2 258.407C238.843 259.135 238.307 259.698 237.593 260.096C236.879 260.495 236.075 260.694 235.182 260.694ZM251.311 260.57V258.263L251.207 257.83V253.895C251.207 253.057 250.96 252.411 250.466 251.958C249.985 251.491 249.257 251.257 248.282 251.257C247.636 251.257 247.004 251.367 246.386 251.587C245.768 251.793 245.246 252.074 244.82 252.432L243.996 250.948C244.559 250.495 245.232 250.151 246.015 249.918C246.812 249.671 247.643 249.547 248.508 249.547C250.006 249.547 251.159 249.911 251.97 250.639C252.78 251.367 253.185 252.48 253.185 253.977V260.57H251.311ZM247.725 260.694C246.915 260.694 246.201 260.557 245.583 260.282C244.978 260.007 244.511 259.629 244.181 259.149C243.852 258.654 243.687 258.098 243.687 257.48C243.687 256.889 243.824 256.353 244.099 255.873C244.387 255.392 244.848 255.007 245.48 254.719C246.125 254.43 246.99 254.286 248.076 254.286H251.537V255.708H248.158C247.169 255.708 246.503 255.873 246.159 256.202C245.816 256.532 245.644 256.93 245.644 257.397C245.644 257.933 245.857 258.366 246.283 258.695C246.709 259.011 247.3 259.169 248.055 259.169C248.797 259.169 249.442 259.004 249.992 258.675C250.555 258.345 250.96 257.864 251.207 257.232L251.599 258.592C251.338 259.238 250.878 259.753 250.218 260.138C249.559 260.508 248.728 260.694 247.725 260.694ZM256.846 260.57V245.282H258.824V260.57H256.846ZM262.601 260.57V249.65H264.579V260.57H262.601ZM263.59 247.548C263.205 247.548 262.882 247.425 262.621 247.178C262.374 246.93 262.25 246.628 262.25 246.271C262.25 245.9 262.374 245.591 262.621 245.344C262.882 245.097 263.205 244.973 263.59 244.973C263.974 244.973 264.29 245.097 264.537 245.344C264.798 245.577 264.929 245.873 264.929 246.23C264.929 246.601 264.805 246.917 264.558 247.178C264.311 247.425 263.988 247.548 263.59 247.548ZM272.868 260.694C271.81 260.694 270.862 260.46 270.024 259.993C269.2 259.526 268.548 258.874 268.067 258.036C267.586 257.198 267.346 256.223 267.346 255.11C267.346 253.998 267.586 253.029 268.067 252.205C268.548 251.367 269.2 250.715 270.024 250.248C270.862 249.781 271.81 249.547 272.868 249.547C273.788 249.547 274.619 249.753 275.361 250.165C276.103 250.577 276.693 251.195 277.133 252.02C277.586 252.844 277.813 253.874 277.813 255.11C277.813 256.346 277.593 257.377 277.153 258.201C276.728 259.025 276.144 259.65 275.402 260.076C274.66 260.488 273.816 260.694 272.868 260.694ZM273.033 258.963C273.719 258.963 274.337 258.805 274.887 258.489C275.45 258.173 275.89 257.727 276.206 257.15C276.535 256.559 276.7 255.879 276.7 255.11C276.7 254.327 276.535 253.654 276.206 253.091C275.89 252.514 275.45 252.068 274.887 251.752C274.337 251.436 273.719 251.278 273.033 251.278C272.332 251.278 271.707 251.436 271.158 251.752C270.608 252.068 270.169 252.514 269.839 253.091C269.509 253.654 269.344 254.327 269.344 255.11C269.344 255.879 269.509 256.559 269.839 257.15C270.169 257.727 270.608 258.173 271.158 258.489C271.707 258.805 272.332 258.963 273.033 258.963ZM276.762 260.57V257.624L276.886 255.09L276.679 252.555V245.282H278.658V260.57H276.762ZM289.179 260.57V258.263L289.076 257.83V253.895C289.076 253.057 288.829 252.411 288.334 251.958C287.853 251.491 287.125 251.257 286.15 251.257C285.504 251.257 284.873 251.367 284.254 251.587C283.636 251.793 283.114 252.074 282.689 252.432L281.864 250.948C282.428 250.495 283.101 250.151 283.884 249.918C284.68 249.671 285.511 249.547 286.377 249.547C287.874 249.547 289.028 249.911 289.838 250.639C290.649 251.367 291.054 252.48 291.054 253.977V260.57H289.179ZM285.594 260.694C284.783 260.694 284.069 260.557 283.451 260.282C282.846 260.007 282.379 259.629 282.05 259.149C281.72 258.654 281.555 258.098 281.555 257.48C281.555 256.889 281.693 256.353 281.967 255.873C282.256 255.392 282.716 255.007 283.348 254.719C283.993 254.43 284.859 254.286 285.944 254.286H289.406V255.708H286.026C285.037 255.708 284.371 255.873 284.028 256.202C283.684 256.532 283.513 256.93 283.513 257.397C283.513 257.933 283.726 258.366 284.151 258.695C284.577 259.011 285.168 259.169 285.923 259.169C286.665 259.169 287.311 259.004 287.86 258.675C288.423 258.345 288.829 257.864 289.076 257.232L289.467 258.592C289.206 259.238 288.746 259.753 288.087 260.138C287.428 260.508 286.596 260.694 285.594 260.694ZM299.227 260.694C298.169 260.694 297.221 260.46 296.383 259.993C295.559 259.526 294.907 258.874 294.426 258.036C293.945 257.198 293.705 256.223 293.705 255.11C293.705 253.998 293.945 253.029 294.426 252.205C294.907 251.367 295.559 250.715 296.383 250.248C297.221 249.781 298.169 249.547 299.227 249.547C300.147 249.547 300.978 249.753 301.72 250.165C302.462 250.577 303.052 251.195 303.492 252.02C303.945 252.844 304.172 253.874 304.172 255.11C304.172 256.346 303.952 257.377 303.512 258.201C303.087 259.025 302.503 259.65 301.761 260.076C301.019 260.488 300.174 260.694 299.227 260.694ZM299.392 258.963C300.078 258.963 300.696 258.805 301.246 258.489C301.809 258.173 302.249 257.727 302.565 257.15C302.894 256.559 303.059 255.879 303.059 255.11C303.059 254.327 302.894 253.654 302.565 253.091C302.249 252.514 301.809 252.068 301.246 251.752C300.696 251.436 300.078 251.278 299.392 251.278C298.691 251.278 298.066 251.436 297.517 251.752C296.967 252.068 296.528 252.514 296.198 253.091C295.868 253.654 295.703 254.327 295.703 255.11C295.703 255.879 295.868 256.559 296.198 257.15C296.528 257.727 296.967 258.173 297.517 258.489C298.066 258.805 298.691 258.963 299.392 258.963ZM303.121 260.57V257.624L303.245 255.09L303.038 252.555V245.282H305.016V260.57H303.121ZM313.622 260.694C312.454 260.694 311.424 260.454 310.531 259.973C309.652 259.492 308.965 258.833 308.471 257.995C307.99 257.157 307.749 256.195 307.749 255.11C307.749 254.025 307.983 253.063 308.45 252.226C308.931 251.388 309.583 250.735 310.407 250.268C311.245 249.787 312.186 249.547 313.23 249.547C314.288 249.547 315.222 249.781 316.032 250.248C316.843 250.715 317.475 251.374 317.928 252.226C318.395 253.063 318.628 254.046 318.628 255.172C318.628 255.254 318.622 255.351 318.608 255.46C318.608 255.57 318.601 255.673 318.587 255.77H309.295V254.348H317.557L316.754 254.842C316.767 254.142 316.623 253.517 316.321 252.967C316.019 252.418 315.6 251.992 315.064 251.69C314.542 251.374 313.931 251.216 313.23 251.216C312.543 251.216 311.932 251.374 311.396 251.69C310.861 251.992 310.442 252.425 310.14 252.988C309.837 253.537 309.686 254.169 309.686 254.884V255.213C309.686 255.941 309.851 256.594 310.181 257.171C310.524 257.734 310.998 258.173 311.602 258.489C312.207 258.805 312.901 258.963 313.683 258.963C314.329 258.963 314.913 258.853 315.435 258.634C315.971 258.414 316.438 258.084 316.836 257.645L317.928 258.922C317.433 259.499 316.815 259.938 316.074 260.241C315.346 260.543 314.528 260.694 313.622 260.694ZM30.4256 285.694C29.368 285.694 28.4202 285.46 27.5823 284.993C26.7581 284.526 26.1056 283.874 25.6249 283.036C25.1441 282.198 24.9037 281.223 24.9037 280.11C24.9037 278.998 25.1441 278.029 25.6249 277.205C26.1056 276.367 26.7581 275.715 27.5823 275.248C28.4202 274.781 29.368 274.547 30.4256 274.547C31.3734 274.547 32.2182 274.753 32.96 275.165C33.7017 275.577 34.2855 276.195 34.7113 277.02C35.1509 277.844 35.3707 278.874 35.3707 280.11C35.3707 281.346 35.144 282.377 34.6907 283.201C34.2512 284.025 33.6605 284.65 32.9188 285.076C32.177 285.488 31.346 285.694 30.4256 285.694ZM30.5905 283.963C31.2773 283.963 31.8954 283.805 32.4449 283.489C33.008 283.173 33.4476 282.727 33.7635 282.15C34.0932 281.559 34.258 280.879 34.258 280.11C34.258 279.327 34.0932 278.654 33.7635 278.091C33.4476 277.514 33.008 277.068 32.4449 276.752C31.8954 276.436 31.2773 276.278 30.5905 276.278C29.8899 276.278 29.2649 276.436 28.7155 276.752C28.166 277.068 27.7265 277.514 27.3968 278.091C27.0672 278.654 26.9023 279.327 26.9023 280.11C26.9023 280.879 27.0672 281.559 27.3968 282.15C27.7265 282.727 28.166 283.173 28.7155 283.489C29.2649 283.805 29.8899 283.963 30.5905 283.963ZM34.2374 289.568V282.665L34.4435 280.131L34.3199 277.596V274.65H36.2154V289.568H34.2374ZM44.5528 285.694C43.6187 285.694 42.7945 285.522 42.0803 285.179C41.3797 284.835 40.8303 284.313 40.4319 283.613C40.0473 282.899 39.855 282.006 39.855 280.934V274.65H41.833V280.708C41.833 281.779 42.0871 282.583 42.5954 283.118C43.1173 283.654 43.8454 283.922 44.7794 283.922C45.4662 283.922 46.0637 283.785 46.572 283.51C47.0802 283.221 47.4717 282.809 47.7464 282.274C48.0211 281.724 48.1585 281.065 48.1585 280.296V274.65H50.1365V285.57H48.2615V282.624L48.5706 283.407C48.2135 284.135 47.6777 284.698 46.9635 285.096C46.2492 285.495 45.4456 285.694 44.5528 285.694ZM58.7647 285.694C57.5971 285.694 56.5669 285.454 55.6741 284.973C54.795 284.492 54.1081 283.833 53.6136 282.995C53.1329 282.157 52.8925 281.195 52.8925 280.11C52.8925 279.025 53.126 278.063 53.593 277.226C54.0738 276.388 54.7263 275.735 55.5504 275.268C56.3884 274.787 57.3293 274.547 58.3732 274.547C59.4309 274.547 60.365 274.781 61.1754 275.248C61.9858 275.715 62.6177 276.374 63.071 277.226C63.538 278.063 63.7715 279.046 63.7715 280.172C63.7715 280.254 63.7647 280.351 63.7509 280.46C63.7509 280.57 63.7441 280.673 63.7303 280.77H54.4378V279.348H62.7001L61.8966 279.842C61.9103 279.142 61.7661 278.517 61.4639 277.967C61.1617 277.418 60.7427 276.992 60.207 276.69C59.685 276.374 59.0738 276.216 58.3732 276.216C57.6864 276.216 57.0752 276.374 56.5395 276.69C56.0037 276.992 55.5848 277.425 55.2826 277.988C54.9804 278.537 54.8293 279.169 54.8293 279.884V280.213C54.8293 280.941 54.9941 281.594 55.3238 282.171C55.6672 282.734 56.1411 283.173 56.7455 283.489C57.3499 283.805 58.0436 283.963 58.8265 283.963C59.4721 283.963 60.0559 283.853 60.5779 283.634C61.1136 283.414 61.5806 283.084 61.979 282.645L63.071 283.922C62.5765 284.499 61.9584 284.938 61.2166 285.241C60.4886 285.543 59.6713 285.694 58.7647 285.694ZM76.8317 289.691C75.829 289.691 74.8537 289.547 73.9059 289.258C72.9719 288.984 72.2095 288.585 71.6189 288.063L72.5667 286.539C73.0749 286.978 73.6999 287.322 74.4417 287.569C75.1834 287.83 75.9595 287.96 76.7699 287.96C78.0611 287.96 79.0089 287.658 79.6133 287.054C80.2177 286.449 80.5199 285.529 80.5199 284.293V281.985L80.726 279.822L80.6229 277.638V274.65H82.4979V284.087C82.4979 286.01 82.0172 287.425 81.0556 288.331C80.0941 289.238 78.6861 289.691 76.8317 289.691ZM76.5845 285.117C75.5268 285.117 74.579 284.897 73.7411 284.458C72.9169 284.004 72.2576 283.379 71.7631 282.583C71.2823 281.786 71.0419 280.866 71.0419 279.822C71.0419 278.764 71.2823 277.844 71.7631 277.061C72.2576 276.264 72.9169 275.646 73.7411 275.206C74.579 274.767 75.5268 274.547 76.5845 274.547C77.5186 274.547 78.3702 274.739 79.1394 275.124C79.9086 275.495 80.5199 276.072 80.9732 276.855C81.4402 277.638 81.6737 278.627 81.6737 279.822C81.6737 281.003 81.4402 281.985 80.9732 282.768C80.5199 283.551 79.9086 284.142 79.1394 284.54C78.3702 284.925 77.5186 285.117 76.5845 285.117ZM76.8111 283.386C77.5392 283.386 78.1848 283.235 78.7479 282.933C79.3111 282.631 79.7507 282.212 80.0666 281.676C80.3963 281.14 80.5611 280.522 80.5611 279.822C80.5611 279.121 80.3963 278.503 80.0666 277.967C79.7507 277.432 79.3111 277.02 78.7479 276.731C78.1848 276.429 77.5392 276.278 76.8111 276.278C76.0831 276.278 75.4307 276.429 74.8537 276.731C74.2906 277.02 73.8441 277.432 73.5145 277.967C73.1985 278.503 73.0406 279.121 73.0406 279.822C73.0406 280.522 73.1985 281.14 73.5145 281.676C73.8441 282.212 74.2906 282.631 74.8537 282.933C75.4307 283.235 76.0831 283.386 76.8111 283.386ZM91.14 285.694C89.9724 285.694 88.9422 285.454 88.0493 284.973C87.1702 284.492 86.4834 283.833 85.9889 282.995C85.5081 282.157 85.2677 281.195 85.2677 280.11C85.2677 279.025 85.5013 278.063 85.9683 277.226C86.449 276.388 87.1015 275.735 87.9257 275.268C88.7636 274.787 89.7045 274.547 90.7485 274.547C91.8062 274.547 92.7402 274.781 93.5506 275.248C94.3611 275.715 94.9929 276.374 95.4462 277.226C95.9133 278.063 96.1468 279.046 96.1468 280.172C96.1468 280.254 96.1399 280.351 96.1262 280.46C96.1262 280.57 96.1193 280.673 96.1056 280.77H86.8131V279.348H95.0754L94.2718 279.842C94.2855 279.142 94.1413 278.517 93.8391 277.967C93.5369 277.418 93.118 276.992 92.5822 276.69C92.0603 276.374 91.449 276.216 90.7485 276.216C90.0617 276.216 89.4504 276.374 88.9147 276.69C88.379 276.992 87.96 277.425 87.6578 277.988C87.3556 278.537 87.2045 279.169 87.2045 279.884V280.213C87.2045 280.941 87.3694 281.594 87.699 282.171C88.0424 282.734 88.5163 283.173 89.1207 283.489C89.7251 283.805 90.4188 283.963 91.2018 283.963C91.8474 283.963 92.4312 283.853 92.9531 283.634C93.4888 283.414 93.9559 283.084 94.3542 282.645L95.4462 283.922C94.9517 284.499 94.3336 284.938 93.5919 285.241C92.8638 285.543 92.0465 285.694 91.14 285.694ZM98.8934 285.57V274.65H100.789V277.617L100.604 276.875C100.906 276.12 101.414 275.543 102.128 275.145C102.843 274.746 103.722 274.547 104.766 274.547V276.463C104.683 276.449 104.601 276.443 104.518 276.443C104.45 276.443 104.381 276.443 104.312 276.443C103.255 276.443 102.417 276.759 101.799 277.39C101.181 278.022 100.871 278.936 100.871 280.131V285.57H98.8934ZM111.966 285.694C110.798 285.694 109.768 285.454 108.875 284.973C107.996 284.492 107.309 283.833 106.814 282.995C106.334 282.157 106.093 281.195 106.093 280.11C106.093 279.025 106.327 278.063 106.794 277.226C107.275 276.388 107.927 275.735 108.751 275.268C109.589 274.787 110.53 274.547 111.574 274.547C112.632 274.547 113.566 274.781 114.376 275.248C115.187 275.715 115.819 276.374 116.272 277.226C116.739 278.063 116.972 279.046 116.972 280.172C116.972 280.254 116.966 280.351 116.952 280.46C116.952 280.57 116.945 280.673 116.931 280.77H107.639V279.348H115.901L115.097 279.842C115.111 279.142 114.967 278.517 114.665 277.967C114.363 277.418 113.944 276.992 113.408 276.69C112.886 276.374 112.275 276.216 111.574 276.216C110.887 276.216 110.276 276.374 109.74 276.69C109.205 276.992 108.786 277.425 108.483 277.988C108.181 278.537 108.03 279.169 108.03 279.884V280.213C108.03 280.941 108.195 281.594 108.525 282.171C108.868 282.734 109.342 283.173 109.946 283.489C110.551 283.805 111.244 283.963 112.027 283.963C112.673 283.963 113.257 283.853 113.779 283.634C114.314 283.414 114.781 283.084 115.18 282.645L116.272 283.922C115.777 284.499 115.159 284.938 114.417 285.241C113.689 285.543 112.872 285.694 111.966 285.694ZM133.38 274.547C134.259 274.547 135.035 274.719 135.708 275.062C136.381 275.406 136.903 275.928 137.274 276.628C137.658 277.329 137.851 278.215 137.851 279.286V285.57H135.873V279.513C135.873 278.455 135.626 277.658 135.131 277.123C134.637 276.587 133.943 276.319 133.05 276.319C132.391 276.319 131.814 276.456 131.319 276.731C130.825 277.006 130.44 277.411 130.165 277.947C129.904 278.482 129.774 279.149 129.774 279.945V285.57H127.796V279.513C127.796 278.455 127.549 277.658 127.054 277.123C126.573 276.587 125.88 276.319 124.973 276.319C124.328 276.319 123.757 276.456 123.263 276.731C122.768 277.006 122.384 277.411 122.109 277.947C121.834 278.482 121.697 279.149 121.697 279.945V285.57H119.719V274.65H121.615V277.555L121.306 276.814C121.649 276.099 122.178 275.543 122.892 275.145C123.606 274.746 124.437 274.547 125.385 274.547C126.429 274.547 127.329 274.808 128.084 275.33C128.84 275.838 129.334 276.614 129.568 277.658L128.764 277.329C129.094 276.491 129.671 275.818 130.495 275.309C131.319 274.801 132.281 274.547 133.38 274.547ZM147.024 285.57V274.65H149.002V285.57H147.024ZM148.013 272.548C147.628 272.548 147.305 272.425 147.044 272.178C146.797 271.93 146.673 271.628 146.673 271.271C146.673 270.9 146.797 270.591 147.044 270.344C147.305 270.097 147.628 269.973 148.013 269.973C148.397 269.973 148.713 270.097 148.96 270.344C149.221 270.577 149.352 270.873 149.352 271.23C149.352 271.601 149.228 271.917 148.981 272.178C148.734 272.425 148.411 272.548 148.013 272.548ZM166.439 274.547C167.318 274.547 168.094 274.719 168.767 275.062C169.44 275.406 169.962 275.928 170.333 276.628C170.718 277.329 170.91 278.215 170.91 279.286V285.57H168.932V279.513C168.932 278.455 168.685 277.658 168.19 277.123C167.696 276.587 167.002 276.319 166.109 276.319C165.45 276.319 164.873 276.456 164.379 276.731C163.884 277.006 163.499 277.411 163.225 277.947C162.964 278.482 162.833 279.149 162.833 279.945V285.57H160.855V279.513C160.855 278.455 160.608 277.658 160.113 277.123C159.633 276.587 158.939 276.319 158.032 276.319C157.387 276.319 156.817 276.456 156.322 276.731C155.828 277.006 155.443 277.411 155.168 277.947C154.894 278.482 154.756 279.149 154.756 279.945V285.57H152.778V274.65H154.674V277.555L154.365 276.814C154.708 276.099 155.237 275.543 155.951 275.145C156.666 274.746 157.497 274.547 158.445 274.547C159.489 274.547 160.388 274.808 161.144 275.33C161.899 275.838 162.394 276.614 162.627 277.658L161.824 277.329C162.153 276.491 162.73 275.818 163.554 275.309C164.379 274.801 165.34 274.547 166.439 274.547ZM180.339 285.694C179.433 285.694 178.602 285.488 177.846 285.076C177.105 284.65 176.507 284.025 176.054 283.201C175.614 282.377 175.394 281.346 175.394 280.11C175.394 278.874 175.607 277.844 176.033 277.02C176.473 276.195 177.063 275.577 177.805 275.165C178.561 274.753 179.405 274.547 180.339 274.547C181.411 274.547 182.359 274.781 183.183 275.248C184.007 275.715 184.66 276.367 185.14 277.205C185.621 278.029 185.861 278.998 185.861 280.11C185.861 281.223 185.621 282.198 185.14 283.036C184.66 283.874 184.007 284.526 183.183 284.993C182.359 285.46 181.411 285.694 180.339 285.694ZM174.55 289.568V274.65H176.445V277.596L176.322 280.131L176.528 282.665V289.568H174.55ZM180.175 283.963C180.875 283.963 181.5 283.805 182.05 283.489C182.613 283.173 183.052 282.727 183.368 282.15C183.698 281.559 183.863 280.879 183.863 280.11C183.863 279.327 183.698 278.654 183.368 278.091C183.052 277.514 182.613 277.068 182.05 276.752C181.5 276.436 180.875 276.278 180.175 276.278C179.488 276.278 178.863 276.436 178.3 276.752C177.75 277.068 177.311 277.514 176.981 278.091C176.665 278.654 176.507 279.327 176.507 280.11C176.507 280.879 176.665 281.559 176.981 282.15C177.311 282.727 177.75 283.173 178.3 283.489C178.863 283.805 179.488 283.963 180.175 283.963ZM195.273 285.57V283.263L195.17 282.83V278.895C195.17 278.057 194.922 277.411 194.428 276.958C193.947 276.491 193.219 276.257 192.244 276.257C191.598 276.257 190.966 276.367 190.348 276.587C189.73 276.793 189.208 277.074 188.782 277.432L187.958 275.948C188.521 275.495 189.194 275.151 189.977 274.918C190.774 274.671 191.605 274.547 192.47 274.547C193.968 274.547 195.121 274.911 195.932 275.639C196.742 276.367 197.148 277.48 197.148 278.977V285.57H195.273ZM191.687 285.694C190.877 285.694 190.163 285.557 189.545 285.282C188.94 285.007 188.473 284.629 188.144 284.149C187.814 283.654 187.649 283.098 187.649 282.48C187.649 281.889 187.786 281.353 188.061 280.873C188.35 280.392 188.81 280.007 189.442 279.719C190.087 279.43 190.953 279.286 192.038 279.286H195.499V280.708H192.12C191.131 280.708 190.465 280.873 190.122 281.202C189.778 281.532 189.606 281.93 189.606 282.397C189.606 282.933 189.819 283.366 190.245 283.695C190.671 284.011 191.262 284.169 192.017 284.169C192.759 284.169 193.404 284.004 193.954 283.675C194.517 283.345 194.922 282.864 195.17 282.232L195.561 283.592C195.3 284.238 194.84 284.753 194.181 285.138C193.521 285.508 192.69 285.694 191.687 285.694ZM205.568 285.694C204.455 285.694 203.459 285.454 202.58 284.973C201.715 284.492 201.035 283.833 200.54 282.995C200.046 282.157 199.798 281.195 199.798 280.11C199.798 279.025 200.046 278.063 200.54 277.226C201.035 276.388 201.715 275.735 202.58 275.268C203.459 274.787 204.455 274.547 205.568 274.547C206.557 274.547 207.436 274.746 208.205 275.145C208.988 275.529 209.592 276.106 210.018 276.875L208.514 277.844C208.157 277.308 207.717 276.917 207.195 276.669C206.687 276.408 206.138 276.278 205.547 276.278C204.833 276.278 204.194 276.436 203.631 276.752C203.068 277.068 202.621 277.514 202.292 278.091C201.962 278.654 201.797 279.327 201.797 280.11C201.797 280.893 201.962 281.573 202.292 282.15C202.621 282.727 203.068 283.173 203.631 283.489C204.194 283.805 204.833 283.963 205.547 283.963C206.138 283.963 206.687 283.84 207.195 283.592C207.717 283.331 208.157 282.933 208.514 282.397L210.018 283.345C209.592 284.101 208.988 284.684 208.205 285.096C207.436 285.495 206.557 285.694 205.568 285.694ZM216.47 285.694C215.371 285.694 214.519 285.399 213.915 284.808C213.311 284.217 213.008 283.373 213.008 282.274V272.26H214.986V282.191C214.986 282.782 215.131 283.235 215.419 283.551C215.721 283.867 216.147 284.025 216.696 284.025C217.315 284.025 217.83 283.853 218.242 283.51L218.86 284.932C218.558 285.193 218.194 285.385 217.768 285.508C217.356 285.632 216.923 285.694 216.47 285.694ZM211.154 276.278V274.65H218.118V276.278H211.154ZM225.566 285.694C224.467 285.694 223.492 285.454 222.64 284.973C221.789 284.492 221.116 283.833 220.621 282.995C220.127 282.143 219.88 281.182 219.88 280.11C219.88 279.025 220.127 278.063 220.621 277.226C221.116 276.388 221.789 275.735 222.64 275.268C223.492 274.787 224.467 274.547 225.566 274.547C226.651 274.547 227.62 274.787 228.471 275.268C229.337 275.735 230.01 276.388 230.491 277.226C230.985 278.05 231.232 279.011 231.232 280.11C231.232 281.195 230.985 282.157 230.491 282.995C230.01 283.833 229.337 284.492 228.471 284.973C227.62 285.454 226.651 285.694 225.566 285.694ZM225.566 283.963C226.267 283.963 226.892 283.805 227.441 283.489C228.004 283.173 228.444 282.727 228.76 282.15C229.076 281.559 229.234 280.879 229.234 280.11C229.234 279.327 229.076 278.654 228.76 278.091C228.444 277.514 228.004 277.068 227.441 276.752C226.892 276.436 226.267 276.278 225.566 276.278C224.866 276.278 224.241 276.436 223.691 276.752C223.142 277.068 222.702 277.514 222.373 278.091C222.043 278.654 221.878 279.327 221.878 280.11C221.878 280.879 222.043 281.559 222.373 282.15C222.702 282.727 223.142 283.173 223.691 283.489C224.241 283.805 224.866 283.963 225.566 283.963ZM246.28 285.57V283.263L246.177 282.83V278.895C246.177 278.057 245.93 277.411 245.435 276.958C244.955 276.491 244.227 276.257 243.251 276.257C242.606 276.257 241.974 276.367 241.356 276.587C240.738 276.793 240.216 277.074 239.79 277.432L238.966 275.948C239.529 275.495 240.202 275.151 240.985 274.918C241.782 274.671 242.613 274.547 243.478 274.547C244.975 274.547 246.129 274.911 246.94 275.639C247.75 276.367 248.155 277.48 248.155 278.977V285.57H246.28ZM242.695 285.694C241.885 285.694 241.17 285.557 240.552 285.282C239.948 285.007 239.481 284.629 239.151 284.149C238.821 283.654 238.657 283.098 238.657 282.48C238.657 281.889 238.794 281.353 239.069 280.873C239.357 280.392 239.817 280.007 240.449 279.719C241.095 279.43 241.96 279.286 243.045 279.286H246.507V280.708H243.128C242.139 280.708 241.473 280.873 241.129 281.202C240.786 281.532 240.614 281.93 240.614 282.397C240.614 282.933 240.827 283.366 241.253 283.695C241.679 284.011 242.269 284.169 243.025 284.169C243.766 284.169 244.412 284.004 244.962 283.675C245.525 283.345 245.93 282.864 246.177 282.232L246.569 283.592C246.308 284.238 245.847 284.753 245.188 285.138C244.529 285.508 243.698 285.694 242.695 285.694ZM256.493 285.694C255.394 285.694 254.419 285.454 253.567 284.973C252.715 284.492 252.042 283.833 251.548 282.995C251.053 282.143 250.806 281.182 250.806 280.11C250.806 279.025 251.053 278.063 251.548 277.226C252.042 276.388 252.715 275.735 253.567 275.268C254.419 274.787 255.394 274.547 256.493 274.547C257.578 274.547 258.546 274.787 259.398 275.268C260.263 275.735 260.936 276.388 261.417 277.226C261.912 278.05 262.159 279.011 262.159 280.11C262.159 281.195 261.912 282.157 261.417 282.995C260.936 283.833 260.263 284.492 259.398 284.973C258.546 285.454 257.578 285.694 256.493 285.694ZM256.493 283.963C257.193 283.963 257.818 283.805 258.368 283.489C258.931 283.173 259.371 282.727 259.686 282.15C260.002 281.559 260.16 280.879 260.16 280.11C260.16 279.327 260.002 278.654 259.686 278.091C259.371 277.514 258.931 277.068 258.368 276.752C257.818 276.436 257.193 276.278 256.493 276.278C255.792 276.278 255.167 276.436 254.618 276.752C254.068 277.068 253.629 277.514 253.299 278.091C252.969 278.654 252.805 279.327 252.805 280.11C252.805 280.879 252.969 281.559 253.299 282.15C253.629 282.727 254.068 283.173 254.618 283.489C255.167 283.805 255.792 283.963 256.493 283.963ZM30.6729 310.694C29.5603 310.694 28.5644 310.454 27.6853 309.973C26.8199 309.492 26.14 308.833 25.6455 307.995C25.151 307.157 24.9037 306.195 24.9037 305.11C24.9037 304.025 25.151 303.063 25.6455 302.226C26.14 301.388 26.8199 300.735 27.6853 300.268C28.5644 299.787 29.5603 299.547 30.6729 299.547C31.6619 299.547 32.541 299.746 33.3102 300.145C34.0932 300.529 34.6976 301.106 35.1234 301.875L33.6193 302.844C33.2622 302.308 32.8226 301.917 32.3006 301.669C31.7924 301.408 31.243 301.278 30.6523 301.278C29.938 301.278 29.2993 301.436 28.7361 301.752C28.1729 302.068 27.7265 302.514 27.3968 303.091C27.0672 303.654 26.9023 304.327 26.9023 305.11C26.9023 305.893 27.0672 306.573 27.3968 307.15C27.7265 307.727 28.1729 308.173 28.7361 308.489C29.2993 308.805 29.938 308.963 30.6523 308.963C31.243 308.963 31.7924 308.84 32.3006 308.592C32.8226 308.331 33.2622 307.933 33.6193 307.397L35.1234 308.345C34.6976 309.101 34.0932 309.684 33.3102 310.096C32.541 310.495 31.6619 310.694 30.6729 310.694ZM37.5435 310.57V295.282H39.5215V310.57H37.5435ZM43.2982 310.57V299.65H45.2762V310.57H43.2982ZM44.2872 297.548C43.9025 297.548 43.5797 297.425 43.3188 297.178C43.0715 296.93 42.9479 296.628 42.9479 296.271C42.9479 295.9 43.0715 295.591 43.3188 295.344C43.5797 295.097 43.9025 294.973 44.2872 294.973C44.6718 294.973 44.9877 295.097 45.235 295.344C45.4959 295.577 45.6264 295.873 45.6264 296.23C45.6264 296.601 45.5028 296.917 45.2556 297.178C45.0083 297.425 44.6855 297.548 44.2872 297.548ZM53.9155 310.694C52.7479 310.694 51.7177 310.454 50.8248 309.973C49.9457 309.492 49.2589 308.833 48.7644 307.995C48.2836 307.157 48.0433 306.195 48.0433 305.11C48.0433 304.025 48.2768 303.063 48.7438 302.226C49.2246 301.388 49.877 300.735 50.7012 300.268C51.5391 299.787 52.48 299.547 53.524 299.547C54.5817 299.547 55.5157 299.781 56.3262 300.248C57.1366 300.715 57.7685 301.374 58.2218 302.226C58.6888 303.063 58.9223 304.046 58.9223 305.172C58.9223 305.254 58.9154 305.351 58.9017 305.46C58.9017 305.57 58.8948 305.673 58.8811 305.77H49.5886V304.348H57.8509L57.0473 304.842C57.0611 304.142 56.9168 303.517 56.6146 302.967C56.3124 302.418 55.8935 301.992 55.3578 301.69C54.8358 301.374 54.2245 301.216 53.524 301.216C52.8372 301.216 52.2259 301.374 51.6902 301.69C51.1545 301.992 50.7355 302.425 50.4333 302.988C50.1312 303.537 49.9801 304.169 49.9801 304.884V305.213C49.9801 305.941 50.1449 306.594 50.4746 307.171C50.818 307.734 51.2919 308.173 51.8963 308.489C52.5006 308.805 53.1943 308.963 53.9773 308.963C54.6229 308.963 55.2067 308.853 55.7286 308.634C56.2644 308.414 56.7314 308.084 57.1297 307.645L58.2218 308.922C57.7273 309.499 57.1091 309.938 56.3674 310.241C55.6394 310.543 54.8221 310.694 53.9155 310.694ZM67.4999 299.547C68.3928 299.547 69.1758 299.719 69.8488 300.062C70.5356 300.406 71.0714 300.928 71.456 301.628C71.8406 302.329 72.0329 303.215 72.0329 304.286V310.57H70.0549V304.513C70.0549 303.455 69.7939 302.658 69.2719 302.123C68.7637 301.587 68.0425 301.319 67.1085 301.319C66.4079 301.319 65.7967 301.456 65.2747 301.731C64.7527 302.006 64.3475 302.411 64.059 302.947C63.7843 303.482 63.647 304.149 63.647 304.945V310.57H61.6689V299.65H63.5645V302.596L63.2555 301.814C63.6126 301.099 64.1621 300.543 64.9038 300.145C65.6456 299.746 66.5109 299.547 67.4999 299.547ZM79.4435 310.694C78.3446 310.694 77.493 310.399 76.8886 309.808C76.2842 309.217 75.982 308.373 75.982 307.274V297.26H77.96V307.191C77.96 307.782 78.1042 308.235 78.3927 308.551C78.6949 308.867 79.1207 309.025 79.6701 309.025C80.2883 309.025 80.8034 308.853 81.2155 308.51L81.8336 309.932C81.5314 310.193 81.1674 310.385 80.7416 310.508C80.3295 310.632 79.8968 310.694 79.4435 310.694ZM74.1276 301.278V299.65H81.0918V301.278H74.1276ZM88.7254 310.694C87.5578 310.694 86.5276 310.454 85.6348 309.973C84.7556 309.492 84.0688 308.833 83.5743 307.995C83.0936 307.157 82.8532 306.195 82.8532 305.11C82.8532 304.025 83.0867 303.063 83.5537 302.226C84.0345 301.388 84.687 300.735 85.5111 300.268C86.349 299.787 87.29 299.547 88.3339 299.547C89.3916 299.547 90.3257 299.781 91.1361 300.248C91.9465 300.715 92.5784 301.374 93.0317 302.226C93.4987 303.063 93.7322 304.046 93.7322 305.172C93.7322 305.254 93.7254 305.351 93.7116 305.46C93.7116 305.57 93.7048 305.673 93.691 305.77H84.3985V304.348H92.6608L91.8572 304.842C91.871 304.142 91.7267 303.517 91.4246 302.967C91.1224 302.418 90.7034 301.992 90.1677 301.69C89.6457 301.374 89.0345 301.216 88.3339 301.216C87.6471 301.216 87.0358 301.374 86.5001 301.69C85.9644 301.992 85.5455 302.425 85.2433 302.988C84.9411 303.537 84.79 304.169 84.79 304.884V305.213C84.79 305.941 84.9548 306.594 85.2845 307.171C85.6279 307.734 86.1018 308.173 86.7062 308.489C87.3106 308.805 88.0042 308.963 88.7872 308.963C89.4328 308.963 90.0166 308.853 90.5386 308.634C91.0743 308.414 91.5413 308.084 91.9397 307.645L93.0317 308.922C92.5372 309.499 91.9191 309.938 91.1773 310.241C90.4493 310.543 89.632 310.694 88.7254 310.694ZM106.875 310.694C105.707 310.694 104.677 310.454 103.784 309.973C102.905 309.492 102.218 308.833 101.724 307.995C101.243 307.157 101.003 306.195 101.003 305.11C101.003 304.025 101.236 303.063 101.703 302.226C102.184 301.388 102.836 300.735 103.661 300.268C104.498 299.787 105.439 299.547 106.483 299.547C107.541 299.547 108.475 299.781 109.286 300.248C110.096 300.715 110.728 301.374 111.181 302.226C111.648 303.063 111.882 304.046 111.882 305.172C111.882 305.254 111.875 305.351 111.861 305.46C111.861 305.57 111.854 305.673 111.84 305.77H102.548V304.348H110.81L110.007 304.842C110.02 304.142 109.876 303.517 109.574 302.967C109.272 302.418 108.853 301.992 108.317 301.69C107.795 301.374 107.184 301.216 106.483 301.216C105.797 301.216 105.185 301.374 104.65 301.69C104.114 301.992 103.695 302.425 103.393 302.988C103.091 303.537 102.939 304.169 102.939 304.884V305.213C102.939 305.941 103.104 306.594 103.434 307.171C103.777 307.734 104.251 308.173 104.856 308.489C105.46 308.805 106.154 308.963 106.937 308.963C107.582 308.963 108.166 308.853 108.688 308.634C109.224 308.414 109.691 308.084 110.089 307.645L111.181 308.922C110.687 309.499 110.069 309.938 109.327 310.241C108.599 310.543 107.781 310.694 106.875 310.694ZM126.94 310.57V308.263L126.837 307.83V303.895C126.837 303.057 126.59 302.411 126.096 301.958C125.615 301.491 124.887 301.257 123.912 301.257C123.266 301.257 122.634 301.367 122.016 301.587C121.398 301.793 120.876 302.074 120.45 302.432L119.626 300.948C120.189 300.495 120.862 300.151 121.645 299.918C122.442 299.671 123.273 299.547 124.138 299.547C125.636 299.547 126.789 299.911 127.6 300.639C128.41 301.367 128.815 302.48 128.815 303.977V310.57H126.94ZM123.355 310.694C122.545 310.694 121.831 310.557 121.213 310.282C120.608 310.007 120.141 309.629 119.811 309.149C119.482 308.654 119.317 308.098 119.317 307.48C119.317 306.889 119.454 306.353 119.729 305.873C120.017 305.392 120.478 305.007 121.109 304.719C121.755 304.43 122.62 304.286 123.706 304.286H127.167V305.708H123.788C122.799 305.708 122.133 305.873 121.789 306.202C121.446 306.532 121.274 306.93 121.274 307.397C121.274 307.933 121.487 308.366 121.913 308.695C122.339 309.011 122.93 309.169 123.685 309.169C124.427 309.169 125.072 309.004 125.622 308.675C126.185 308.345 126.59 307.864 126.837 307.232L127.229 308.592C126.968 309.238 126.508 309.753 125.848 310.138C125.189 310.508 124.358 310.694 123.355 310.694ZM123.973 298.064L120.512 295.385H123.026L125.828 298.064H123.973ZM140.173 302.37H147.59V304.121H140.173V302.37ZM140.358 308.778H148.765V310.57H138.298V296.147H148.476V297.94H140.358V308.778ZM154.804 310.694C153.897 310.694 153.032 310.57 152.207 310.323C151.397 310.076 150.758 309.774 150.291 309.416L151.115 307.851C151.582 308.166 152.159 308.434 152.846 308.654C153.533 308.874 154.234 308.984 154.948 308.984C155.868 308.984 156.527 308.853 156.926 308.592C157.338 308.331 157.544 307.967 157.544 307.5C157.544 307.157 157.42 306.889 157.173 306.697C156.926 306.504 156.596 306.36 156.184 306.264C155.786 306.168 155.339 306.085 154.845 306.017C154.35 305.934 153.856 305.838 153.361 305.728C152.867 305.605 152.413 305.44 152.001 305.234C151.589 305.014 151.26 304.719 151.012 304.348C150.765 303.963 150.642 303.455 150.642 302.823C150.642 302.164 150.827 301.587 151.198 301.092C151.569 300.598 152.091 300.22 152.764 299.959C153.451 299.684 154.261 299.547 155.195 299.547C155.909 299.547 156.63 299.636 157.358 299.815C158.1 299.98 158.705 300.22 159.172 300.536L158.327 302.102C157.832 301.772 157.317 301.546 156.782 301.422C156.246 301.298 155.71 301.237 155.174 301.237C154.309 301.237 153.663 301.381 153.238 301.669C152.812 301.944 152.599 302.301 152.599 302.741C152.599 303.112 152.723 303.4 152.97 303.606C153.231 303.798 153.56 303.949 153.959 304.059C154.371 304.169 154.824 304.265 155.319 304.348C155.813 304.417 156.308 304.513 156.802 304.636C157.297 304.746 157.743 304.904 158.141 305.11C158.554 305.316 158.883 305.605 159.13 305.976C159.391 306.346 159.522 306.841 159.522 307.459C159.522 308.118 159.33 308.688 158.945 309.169C158.56 309.65 158.018 310.028 157.317 310.302C156.617 310.563 155.779 310.694 154.804 310.694ZM165.744 310.694C164.645 310.694 163.793 310.399 163.189 309.808C162.585 309.217 162.282 308.373 162.282 307.274V297.26H164.26V307.191C164.26 307.782 164.405 308.235 164.693 308.551C164.995 308.867 165.421 309.025 165.971 309.025C166.589 309.025 167.104 308.853 167.516 308.51L168.134 309.932C167.832 310.193 167.468 310.385 167.042 310.508C166.63 310.632 166.197 310.694 165.744 310.694ZM160.428 301.278V299.65H167.392V301.278H160.428ZM177.304 310.57V308.263L177.201 307.83V303.895C177.201 303.057 176.954 302.411 176.459 301.958C175.979 301.491 175.251 301.257 174.275 301.257C173.63 301.257 172.998 301.367 172.38 301.587C171.762 301.793 171.24 302.074 170.814 302.432L169.99 300.948C170.553 300.495 171.226 300.151 172.009 299.918C172.806 299.671 173.637 299.547 174.502 299.547C175.999 299.547 177.153 299.911 177.964 300.639C178.774 301.367 179.179 302.48 179.179 303.977V310.57H177.304ZM173.719 310.694C172.909 310.694 172.194 310.557 171.576 310.282C170.972 310.007 170.505 309.629 170.175 309.149C169.845 308.654 169.681 308.098 169.681 307.48C169.681 306.889 169.818 306.353 170.093 305.873C170.381 305.392 170.841 305.007 171.473 304.719C172.119 304.43 172.984 304.286 174.069 304.286H177.531V305.708H174.152C173.163 305.708 172.497 305.873 172.153 306.202C171.81 306.532 171.638 306.93 171.638 307.397C171.638 307.933 171.851 308.366 172.277 308.695C172.703 309.011 173.293 309.169 174.049 309.169C174.79 309.169 175.436 309.004 175.986 308.675C176.549 308.345 176.954 307.864 177.201 307.232L177.593 308.592C177.332 309.238 176.872 309.753 176.212 310.138C175.553 310.508 174.722 310.694 173.719 310.694ZM186.59 310.694C185.491 310.694 184.639 310.399 184.035 309.808C183.43 309.217 183.128 308.373 183.128 307.274V297.26H185.106V307.191C185.106 307.782 185.25 308.235 185.539 308.551C185.841 308.867 186.267 309.025 186.816 309.025C187.434 309.025 187.95 308.853 188.362 308.51L188.98 309.932C188.678 310.193 188.314 310.385 187.888 310.508C187.476 310.632 187.043 310.694 186.59 310.694ZM181.274 301.278V299.65H188.238V301.278H181.274ZM199.047 310.735C198.196 310.735 197.399 310.557 196.657 310.199C195.915 309.842 195.311 309.327 194.844 308.654L196.039 307.253C196.437 307.802 196.884 308.228 197.378 308.53C197.887 308.819 198.443 308.963 199.047 308.963C200.696 308.963 201.52 307.988 201.52 306.037V297.94H196.307V296.147H203.56V305.934C203.56 307.541 203.175 308.743 202.406 309.54C201.65 310.337 200.531 310.735 199.047 310.735ZM212.063 310.694C211.129 310.694 210.305 310.522 209.59 310.179C208.89 309.835 208.34 309.313 207.942 308.613C207.557 307.899 207.365 307.006 207.365 305.934V299.65H209.343V305.708C209.343 306.779 209.597 307.583 210.106 308.118C210.628 308.654 211.356 308.922 212.29 308.922C212.976 308.922 213.574 308.785 214.082 308.51C214.59 308.221 214.982 307.809 215.257 307.274C215.531 306.724 215.669 306.065 215.669 305.296V299.65H217.647V310.57H215.772V307.624L216.081 308.407C215.724 309.135 215.188 309.698 214.474 310.096C213.759 310.495 212.956 310.694 212.063 310.694ZM210.971 298.064L213.773 295.385H216.287L212.825 298.064H210.971ZM227.243 299.547C228.136 299.547 228.919 299.719 229.592 300.062C230.279 300.406 230.815 300.928 231.199 301.628C231.584 302.329 231.776 303.215 231.776 304.286V310.57H229.798V304.513C229.798 303.455 229.537 302.658 229.015 302.123C228.507 301.587 227.786 301.319 226.852 301.319C226.151 301.319 225.54 301.456 225.018 301.731C224.496 302.006 224.091 302.411 223.802 302.947C223.528 303.482 223.39 304.149 223.39 304.945V310.57H221.412V299.65H223.308V302.596L222.999 301.814C223.356 301.099 223.905 300.543 224.647 300.145C225.389 299.746 226.254 299.547 227.243 299.547ZM235.437 310.57V299.65H237.415V310.57H235.437ZM236.426 297.548C236.041 297.548 235.718 297.425 235.457 297.178C235.21 296.93 235.087 296.628 235.087 296.271C235.087 295.9 235.21 295.591 235.457 295.344C235.718 295.097 236.041 294.973 236.426 294.973C236.81 294.973 237.126 295.097 237.374 295.344C237.635 295.577 237.765 295.873 237.765 296.23C237.765 296.601 237.642 296.917 237.394 297.178C237.147 297.425 236.824 297.548 236.426 297.548ZM245.869 310.694C244.77 310.694 243.795 310.454 242.943 309.973C242.091 309.492 241.418 308.833 240.924 307.995C240.429 307.143 240.182 306.182 240.182 305.11C240.182 304.025 240.429 303.063 240.924 302.226C241.418 301.388 242.091 300.735 242.943 300.268C243.795 299.787 244.77 299.547 245.869 299.547C246.954 299.547 247.922 299.787 248.774 300.268C249.639 300.735 250.312 301.388 250.793 302.226C251.288 303.05 251.535 304.011 251.535 305.11C251.535 306.195 251.288 307.157 250.793 307.995C250.312 308.833 249.639 309.492 248.774 309.973C247.922 310.454 246.954 310.694 245.869 310.694ZM245.869 308.963C246.569 308.963 247.194 308.805 247.744 308.489C248.307 308.173 248.746 307.727 249.062 307.15C249.378 306.559 249.536 305.879 249.536 305.11C249.536 304.327 249.378 303.654 249.062 303.091C248.746 302.514 248.307 302.068 247.744 301.752C247.194 301.436 246.569 301.278 245.869 301.278C245.168 301.278 244.543 301.436 243.994 301.752C243.444 302.068 243.005 302.514 242.675 303.091C242.345 303.654 242.181 304.327 242.181 305.11C242.181 305.879 242.345 306.559 242.675 307.15C243.005 307.727 243.444 308.173 243.994 308.489C244.543 308.805 245.168 308.963 245.869 308.963ZM254.27 310.57V299.65H256.166V302.617L255.981 301.875C256.283 301.12 256.791 300.543 257.505 300.145C258.22 299.746 259.099 299.547 260.143 299.547V301.463C260.06 301.449 259.978 301.443 259.895 301.443C259.827 301.443 259.758 301.443 259.689 301.443C258.632 301.443 257.794 301.759 257.176 302.39C256.558 303.022 256.248 303.936 256.248 305.131V310.57H254.27ZM262.994 310.694C262.609 310.694 262.28 310.563 262.005 310.302C261.73 310.028 261.593 309.684 261.593 309.272C261.593 308.86 261.73 308.524 262.005 308.263C262.28 308.002 262.609 307.871 262.994 307.871C263.365 307.871 263.681 308.002 263.942 308.263C264.217 308.524 264.354 308.86 264.354 309.272C264.354 309.684 264.217 310.028 263.942 310.302C263.681 310.563 263.365 310.694 262.994 310.694Z" fill="black"/>
<mask id="mask0_1064_3599" style="mask-type:luminance" maskUnits="userSpaceOnUse" x="24" y="30" width="132" height="134">
<path d="M155.858 30.9062H24.0388V163.117H155.858V30.9062Z" fill="white"/>
</mask>
<g mask="url(#mask0_1064_3599)">
<path d="M116.058 137.529C115.818 137.529 115.577 137.473 115.357 137.357L89.9452 123.984L64.5353 137.357C64.0265 137.624 63.4108 137.58 62.9463 137.242C62.4818 136.904 62.2495 136.331 62.3458 135.764L67.1986 107.442L46.6415 87.3834C46.2305 86.9831 46.0823 86.3826 46.2595 85.8371C46.4367 85.2901 46.9089 84.8913 47.4773 84.8088L75.888 80.6772L88.5929 54.9083C88.8466 54.3919 89.3707 54.0664 89.9452 54.0664C90.5197 54.0664 91.0438 54.3919 91.2974 54.9083L104.004 80.6772L132.413 84.8088C132.981 84.8913 133.454 85.2901 133.631 85.8371C133.808 86.3826 133.66 86.9831 133.249 87.3834L112.692 107.442L117.545 135.764C117.642 136.331 117.409 136.904 116.944 137.242C116.683 137.433 116.371 137.529 116.058 137.529ZM50.9366 87.3574L69.8725 105.833C70.2285 106.18 70.3904 106.68 70.3064 107.17L65.8356 133.26L89.2438 120.942C89.6824 120.711 90.208 120.711 90.648 120.942L114.055 133.26L109.584 107.17C109.5 106.681 109.663 106.18 110.018 105.833L128.955 87.3574L102.785 83.5498C102.294 83.4795 101.869 83.1708 101.649 82.7247L89.9452 58.9879L78.2426 82.7247C78.0226 83.1708 77.5978 83.4795 77.1058 83.5513L50.9366 87.3574Z" fill="#329BD5"/>
<mask id="mask1_1064_3599" style="mask-type:luminance" maskUnits="userSpaceOnUse" x="24" y="95" width="17" height="4">
<path d="M24.1477 95.0508H40.0766V98.5712H24.1477V95.0508Z" fill="white"/>
</mask>
<g mask="url(#mask1_1064_3599)">
<path d="M38.1996 98.3958H25.6704C24.8377 98.3958 24.1624 97.7189 24.1624 96.8861C24.1624 96.0519 24.8377 95.375 25.6704 95.375H38.1996C39.0324 95.375 39.7077 96.0519 39.7077 96.8861C39.7077 97.7204 39.0324 98.3958 38.1996 98.3958Z" fill="#329BD5"/>
</g>
<mask id="mask2_1064_3599" style="mask-type:luminance" maskUnits="userSpaceOnUse" x="139" y="95" width="17" height="4">
<path d="M139.821 95.0508H155.719V98.5712H139.821V95.0508Z" fill="white"/>
</mask>
<g mask="url(#mask2_1064_3599)">
<path d="M154.22 98.3958H141.692C140.859 98.3958 140.184 97.7189 140.184 96.8861C140.184 96.0519 140.859 95.375 141.692 95.375H154.22C155.052 95.375 155.728 96.0519 155.728 96.8861C155.728 97.7204 155.052 98.3958 154.22 98.3958Z" fill="#329BD5"/>
</g>
<mask id="mask3_1064_3599" style="mask-type:luminance" maskUnits="userSpaceOnUse" x="88" y="31" width="4" height="16">
<path d="M88.1892 31.043H91.7096V46.9413H88.1892V31.043Z" fill="white"/>
</mask>
<g mask="url(#mask3_1064_3599)">
<path d="M89.9468 46.6021C89.1141 46.6021 88.4387 45.9268 88.4387 45.0925V32.5526C88.4387 31.7183 89.1141 31.043 89.9468 31.043C90.7795 31.043 91.4549 31.7183 91.4549 32.5526V45.0925C91.4549 45.9268 90.7795 46.6021 89.9468 46.6021Z" fill="#329BD5"/>
</g>
<path d="M53.3558 61.7734C52.9692 61.7734 52.5842 61.6267 52.2893 61.3318L43.4302 52.4651C42.8419 51.8753 42.8419 50.9189 43.4302 50.3291C44.02 49.7393 44.975 49.7393 45.5632 50.3291L54.4223 59.1958C55.0121 59.7856 55.0121 60.7421 54.4223 61.3318C54.1274 61.6267 53.7424 61.7734 53.3558 61.7734Z" fill="#329BD5"/>
<path d="M126.538 61.7734C126.151 61.7734 125.764 61.6267 125.471 61.3318C124.881 60.7421 124.881 59.7856 125.47 59.1958L134.329 50.3291C134.918 49.7393 135.873 49.7393 136.462 50.3291C137.051 50.9189 137.051 51.8753 136.462 52.4651L127.604 61.3318C127.309 61.6267 126.923 61.7734 126.538 61.7734Z" fill="#329BD5"/>
<mask id="mask4_1064_3599" style="mask-type:luminance" maskUnits="userSpaceOnUse" x="139" y="95" width="17" height="4">
<path d="M139.821 95.4453H155.719V98.5746H139.821V95.4453Z" fill="white"/>
</mask>
<g mask="url(#mask4_1064_3599)">
<path d="M154.22 98.5739H141.692C140.859 98.5739 140.184 97.8986 140.184 97.0643C140.184 96.23 140.859 95.5547 141.692 95.5547H154.22C155.052 95.5547 155.728 96.23 155.728 97.0643C155.728 97.8986 155.052 98.5739 154.22 98.5739Z" fill="#329BD5"/>
</g>
<mask id="mask5_1064_3599" style="mask-type:luminance" maskUnits="userSpaceOnUse" x="24" y="95" width="17" height="4">
<path d="M24.1477 95.4453H40.0766V98.5746H24.1477V95.4453Z" fill="white"/>
</mask>
<g mask="url(#mask5_1064_3599)">
<path d="M38.1996 98.5739H25.6704C24.8377 98.5739 24.1624 97.8986 24.1624 97.0643C24.1624 96.23 24.8377 95.5547 25.6704 95.5547H38.1996C39.0324 95.5547 39.7077 96.23 39.7077 97.0643C39.7077 97.8986 39.0324 98.5739 38.1996 98.5739Z" fill="#329BD5"/>
</g>
<mask id="mask6_1064_3599" style="mask-type:luminance" maskUnits="userSpaceOnUse" x="88" y="147" width="4" height="16">
<path d="M88.1892 147.074H91.7096V162.904H88.1892V147.074Z" fill="white"/>
</mask>
<g mask="url(#mask6_1064_3599)">
<path d="M89.9468 162.904C89.1141 162.904 88.4387 162.228 88.4387 161.395V148.853C88.4387 148.021 89.1141 147.344 89.9468 147.344C90.7795 147.344 91.4549 148.021 91.4549 148.853V161.395C91.4549 162.228 90.7795 162.904 89.9468 162.904Z" fill="#329BD5"/>
</g>
<path d="M135.395 144.062C135.01 144.062 134.624 143.916 134.329 143.621L125.47 134.753C124.881 134.163 124.881 133.208 125.471 132.618C126.059 132.028 127.014 132.028 127.604 132.618L136.462 141.485C137.051 142.075 137.051 143.031 136.462 143.621C136.168 143.916 135.782 144.062 135.395 144.062Z" fill="#329BD5"/>
<path d="M44.4954 144.062C44.1089 144.062 43.7238 143.916 43.4289 143.621C42.8391 143.031 42.8391 142.075 43.4289 141.485L52.288 132.618C52.8762 132.028 53.8312 132.028 54.421 132.618C55.0093 133.208 55.0093 134.163 54.421 134.753L45.5619 143.621C45.2686 143.916 44.882 144.062 44.4954 144.062Z" fill="#329BD5"/>
</g>
<defs>
<filter id="filter0_d_1064_3599" x="5.91278e-05" y="0" width="348.555" height="343.402" filterUnits="userSpaceOnUse" color-interpolation-filters="sRGB">
<feFlood flood-opacity="0" result="BackgroundImageFix"/>
<feColorMatrix in="SourceAlpha" type="matrix" values="0 0 0 0 0 0 0 0 0 0 0 0 0 0 0 0 0 0 127 0" result="hardAlpha"/>
<feOffset dx="-5.15106"/>
<feComposite in2="hardAlpha" operator="out"/>
<feColorMatrix type="matrix" values="0 0 0 0 0 0 0 0 0 0 0 0 0 0 0 0 0 0 1 0"/>
<feBlend mode="normal" in2="BackgroundImageFix" result="effect1_dropShadow_1064_3599"/>
<feBlend mode="normal" in="SourceGraphic" in2="effect1_dropShadow_1064_3599" result="shape"/>
</filter>
</defs>
</svg>
